<svg width="462" height="38" viewBox="0 0 462 38" fill="none" xmlns="http://www.w3.org/2000/svg">
<path fill-rule="evenodd" clip-rule="evenodd" d="M200.845 0.80542H193.444C192.475 0.80542 191.682 1.55066 191.682 2.46218V17.4026C191.682 18.3137 191.268 18.4235 190.762 17.6452L180.722 2.21959C180.216 1.44094 179.009 0.80542 178.04 0.80542H170.979C170.01 0.80542 169.217 1.55066 169.217 2.46218V34.116C169.217 35.0263 170.01 35.7716 170.979 35.7716H178.428C179.397 35.7716 180.19 35.0263 180.19 34.116V19.1759C180.19 18.2644 180.604 18.1547 181.11 18.9314L191.15 34.3589C191.656 35.1361 192.862 35.7716 193.832 35.7716H200.845C201.814 35.7716 202.607 35.0263 202.607 34.116V2.46218C202.607 1.55066 201.814 0.80542 200.845 0.80542" fill="black"/>
<path fill-rule="evenodd" clip-rule="evenodd" d="M234.044 21.729C233.564 22.7392 232.896 23.6317 232.058 24.3838C231.216 25.129 230.234 25.7247 229.137 26.1381C226.96 26.9714 224.307 26.9631 222.139 26.1381C221.044 25.7247 220.071 25.1332 219.248 24.3864C218.424 23.6412 217.76 22.7434 217.276 21.729C216.799 20.7244 216.556 19.6026 216.556 18.4029C216.556 17.1991 216.799 16.0776 217.278 15.0731C217.76 14.0587 218.424 13.1623 219.248 12.4156C220.071 11.6688 221.044 11.0785 222.136 10.6639C223.233 10.2535 224.413 10.0421 225.638 10.0421C226.861 10.0421 228.041 10.2535 229.137 10.6639C230.234 11.0785 231.216 11.673 232.056 12.4198C232.896 13.1703 233.564 14.0644 234.046 15.0731C234.523 16.0776 234.767 17.1991 234.767 18.4029C234.767 19.6026 234.523 20.7244 234.044 21.729M240.375 5.3065C238.564 3.64974 236.37 2.33314 233.855 1.39315C228.821 -0.471271 222.343 -0.458743 217.391 1.39695C214.89 2.33732 212.712 3.65392 210.923 5.31067C209.128 6.96212 207.703 8.93436 206.686 11.1651C205.674 13.3902 205.16 15.8279 205.16 18.403C205.16 20.9796 205.674 23.4124 206.686 25.6428C207.703 27.8694 209.128 29.8401 210.923 31.4931C212.721 33.1578 214.899 34.4744 217.393 35.4064C219.881 36.3373 222.655 36.8118 225.638 36.8118C228.587 36.8118 231.352 36.3373 233.855 35.4106C236.363 34.4786 238.555 33.1578 240.375 31.4969C242.185 29.8401 243.619 27.8736 244.636 25.6386C245.648 23.4124 246.162 20.9796 246.162 18.403C246.162 15.8279 245.648 13.3902 244.636 11.1594C243.619 8.93018 242.185 6.96212 240.375 5.3065" fill="black"/>
<path fill-rule="evenodd" clip-rule="evenodd" d="M271.766 0.80542L247.811 0.80542C246.842 0.80542 245.602 1.46742 245.602 2.40751L245.602 8.19439C245.602 9.17229 245.948 9.79648 246.917 9.79648H252.225C253.194 9.79648 253.987 10.5417 253.987 11.4532V34.116C253.987 35.0263 254.78 35.7716 255.749 35.7716H263.198C264.167 35.7716 264.96 35.0263 264.96 34.116V11.4532C264.96 10.5417 265.753 9.79648 266.722 9.79648H271.766C272.736 9.79648 273.529 9.05124 273.529 8.13934V2.46218C273.529 1.55066 272.736 0.80542 271.766 0.80542Z" fill="black"/>
<path fill-rule="evenodd" clip-rule="evenodd" d="M319.359 13.957C318.595 13.7151 317.822 13.4904 317.044 13.2789C316.322 13.0853 315.674 12.8613 315.121 12.6024C314.609 12.3685 314.198 12.0971 313.9 11.7953C313.675 11.5629 313.57 11.2774 313.57 10.8986C313.57 10.3071 313.816 9.85378 314.341 9.48363C315.435 8.71068 317.347 8.62412 319.32 9.34886L320.238 9.68522C320.926 10.1245 321.816 10.727 322.216 11.0235C322.616 11.3203 323.304 10.8986 323.744 10.0861L326.693 4.65155C327.134 3.84064 327.13 2.99745 326.686 2.77802C326.242 2.55973 325.154 2.07644 324.268 1.70591C324.268 1.70591 323.01 1.17745 321.037 0.708212C316.916 -0.280376 312.996 -0.232541 309.914 0.842605C308.294 1.40637 306.895 2.21767 305.752 3.25295C304.623 4.28482 303.732 5.53953 303.106 6.98521C302.486 8.42253 302.172 10.0353 302.172 11.7824C302.172 13.5466 302.477 15.0439 303.083 16.2261C303.682 17.3995 304.485 18.3923 305.469 19.1729C306.438 19.9405 307.548 20.557 308.765 21.0069C309.928 21.4465 311.117 21.8429 312.308 22.1971C313.295 22.5114 314.132 22.8011 314.83 23.063C315.449 23.2969 315.961 23.5516 316.342 23.8155C316.663 24.0433 316.89 24.2851 317.016 24.5307C317.145 24.7847 317.211 25.1006 317.211 25.4764C317.211 26.0664 316.941 26.588 316.388 27.0797C315.796 27.5986 315.406 27.8264 314.143 27.8264C313.056 27.8264 311.686 27.2611 310.348 26.7049L309.028 26.1575C308.455 25.8044 307.589 25.2403 307.105 24.9039C306.621 24.5676 305.852 24.9521 305.397 25.7566L302.414 31.0317C301.959 31.8377 301.98 32.7488 302.462 33.059C302.943 33.3696 304.022 33.9979 304.86 34.4565C304.86 34.4565 309.169 36.8175 314.051 36.8175C316.301 36.8175 318.347 36.5293 320.14 35.9595C321.957 35.3763 323.513 34.5446 324.765 33.4914C326.034 32.4261 327.012 31.1278 327.673 29.6343C328.325 28.1586 328.655 26.4897 328.655 24.6818C328.655 21.9598 327.884 19.7081 326.36 17.9857C324.864 16.2944 322.507 14.9398 319.359 13.957" fill="black"/>
<path fill-rule="evenodd" clip-rule="evenodd" d="M297.54 0.80542H278.002C277.033 0.80542 276.239 1.55066 276.239 2.46218V34.116C276.239 35.0263 277.033 35.7716 278.002 35.7716H297.54C298.509 35.7716 299.302 35.0263 299.302 34.116V28.4388C299.302 27.5273 298.509 26.7805 297.54 26.7805H288.975C288.005 26.7805 287.213 26.0364 287.213 25.1253V24.3519C287.213 23.4408 288.005 22.6952 288.975 22.6952H297.54C298.509 22.6952 299.302 21.95 299.302 21.04V15.3613C299.302 14.4509 298.509 13.7045 297.54 13.7045H288.975C288.005 13.7045 287.213 12.9593 287.213 12.0489V11.4532C287.213 10.5417 288.005 9.79648 288.975 9.79648H297.54C298.509 9.79648 299.302 9.05124 299.302 8.13934V2.46218C299.302 1.55066 298.509 0.80542 297.54 0.80542" fill="black"/>
<path fill-rule="evenodd" clip-rule="evenodd" d="M18.387 13.957C17.6225 13.7151 16.8496 13.4904 16.0717 13.2789C15.3488 13.0853 14.7018 12.8613 14.1485 12.6024C13.6369 12.3685 13.2261 12.0971 12.9281 11.7953C12.7031 11.5629 12.5973 11.2774 12.5973 10.8986C12.5973 10.3071 12.8429 9.85378 13.3687 9.48363C14.4632 8.71068 16.3746 8.62412 18.3479 9.34886L19.2658 9.68522C19.9484 10.1214 20.8364 10.7216 21.2391 11.0197C21.6421 11.3188 22.3315 10.8986 22.7717 10.0861L25.7207 4.65155C26.1613 3.84064 26.0579 2.95227 25.4917 2.67893C24.9251 2.40597 23.7362 1.88131 22.8493 1.51381C22.8493 1.51381 22.0379 1.17745 20.0643 0.708212C15.9429 -0.280376 12.0238 -0.232541 8.942 0.842605C7.32172 1.40637 5.92235 2.21767 4.77943 3.25295C3.65024 4.28482 2.76013 5.53953 2.13334 6.98521C1.51423 8.42253 1.19962 10.0353 1.19962 11.7824C1.19962 13.5466 1.50736 15.0439 2.11073 16.2261C2.70965 17.3995 3.51252 18.3923 4.49713 19.1729C5.46558 19.9405 6.57619 20.557 7.79221 21.0069C8.95573 21.4465 10.1443 21.8429 11.3353 22.1971C12.3219 22.5114 13.1595 22.8011 13.857 23.063C14.4769 23.2969 14.9882 23.5516 15.3694 23.8155C15.6909 24.0433 15.9179 24.2851 16.0443 24.5307C16.1727 24.7847 16.2389 25.1006 16.2389 25.4764C16.2389 26.0664 15.9683 26.588 15.415 27.0797C14.3254 28.0379 11.5647 28.1119 9.01792 27.0592C7.76233 26.5364 7.27002 26.189 7.27002 26.189C6.49502 25.6412 5.51445 24.9123 5.0908 24.5676C4.66715 24.2217 3.94828 24.5979 3.49313 25.402L0.308304 31.0317C-0.146845 31.8377 -0.091516 32.7063 0.431077 32.9641C0.953671 33.2223 2.08771 33.7727 2.95075 34.1873C2.95075 34.1873 8.43475 36.8175 13.0791 36.8175C15.3282 36.8175 17.3754 36.5293 19.1673 35.9595C20.9847 35.3763 22.5403 34.5446 23.7931 33.4914C25.062 32.4261 26.0398 31.1278 26.7005 29.6343C27.3523 28.1586 27.6827 26.4897 27.6827 24.6818C27.6827 21.9598 26.9117 19.7081 25.3879 17.9857C23.8916 16.2944 21.5351 14.9398 18.387 13.957" fill="black"/>
<path fill-rule="evenodd" clip-rule="evenodd" d="M57.5571 21.729C57.0777 22.7392 56.4101 23.6317 55.5721 24.3838C54.7301 25.129 53.7479 25.7247 52.651 26.1381C50.4754 26.9714 47.8208 26.9631 45.6525 26.1381C44.5577 25.7247 43.5848 25.1332 42.7613 24.3864C41.9374 23.6412 41.2739 22.7434 40.7897 21.729C40.3127 20.7244 40.0692 19.6026 40.0692 18.4029C40.0692 17.1991 40.3127 16.0776 40.7921 15.0731C41.2739 14.0587 41.9374 13.1623 42.7613 12.4156C43.5848 11.6688 44.5577 11.0785 45.6501 10.6639C46.747 10.2535 47.9262 10.0421 49.152 10.0421C50.3748 10.0421 51.5545 10.2535 52.651 10.6639C53.7479 11.0785 54.7301 11.673 55.5701 12.4198C56.4101 13.1703 57.0777 14.0644 57.5595 15.0731C58.0365 16.0776 58.28 17.1991 58.28 18.4029C58.28 19.6026 58.0365 20.7244 57.5571 21.729M63.8884 5.3065C62.0779 3.64974 59.8842 2.33314 57.3689 1.39315C52.3324 -0.471271 45.8545 -0.458743 40.9048 1.39695C38.4037 2.33732 36.2261 3.65392 34.4362 5.31067C32.6415 6.96212 31.2166 8.93436 30.2001 11.1651C29.1881 13.3902 28.674 15.8279 28.674 18.403C28.674 20.9796 29.1881 23.4124 30.2001 25.6428C31.2166 27.8694 32.6415 29.8401 34.4362 31.4931C36.235 33.1578 38.4126 34.4744 40.9072 35.4064C43.3942 36.3373 46.1687 36.8118 49.152 36.8118C52.1006 36.8118 54.8654 36.3373 57.3689 35.4106C59.8769 34.4786 62.0682 33.1578 63.8884 31.4969C65.6989 29.8401 67.133 27.8736 68.1495 25.6386C69.1616 23.4124 69.6757 20.9796 69.6757 18.403C69.6757 15.8279 69.1616 13.3902 68.1495 11.1594C67.133 8.93018 65.6989 6.96212 63.8884 5.3065" fill="black"/>
<path fill-rule="evenodd" clip-rule="evenodd" d="M106.202 0.80542H98.8008C97.8316 0.80542 97.0388 1.55066 97.0388 2.46218V17.7124C97.0388 18.6243 96.5848 18.7587 96.0295 18.0119L84.2546 2.16302C83.6997 1.41626 82.4522 0.80542 81.483 0.80542H74.4566C73.4874 0.80542 72.6946 1.55066 72.6946 2.46218V34.116C72.6946 35.0263 73.4874 35.7716 74.4566 35.7716H81.9054C82.8746 35.7716 83.6674 35.0263 83.6674 34.116V18.8642C83.6674 17.9542 84.1218 17.8195 84.6771 18.5662L96.4516 34.414C97.0065 35.1607 98.254 35.7716 99.2233 35.7716H106.202C107.171 35.7716 107.964 35.0263 107.964 34.116V2.46218C107.964 1.55066 107.171 0.80542 106.202 0.80542" fill="black"/>
<path fill-rule="evenodd" clip-rule="evenodd" d="M150.009 15.5866H133.535C132.566 15.5866 131.773 16.3319 131.773 17.2434V21.7596C131.773 22.6707 132.566 23.4148 133.535 23.4148H136.589C137.558 23.4148 138.163 23.3928 138.163 23.7994C138.163 24.2041 138.513 25.4121 137.369 26.078C135.867 26.952 130.208 26.9634 128.039 26.1384C126.945 25.725 125.972 25.1331 125.148 24.3867C124.324 23.6415 123.661 22.7436 123.177 21.7292C122.7 20.7243 122.456 19.6029 122.456 18.4032C122.456 17.1994 122.7 16.0779 123.179 15.073C123.661 14.059 124.324 13.1622 125.148 12.4155C125.972 11.6691 126.945 11.0788 128.037 10.6642C130.228 9.84455 132.842 9.84455 135.038 10.6642C136.135 11.0788 136.634 11.4535 136.634 11.4535C137.391 12.0229 138.186 12.6752 138.402 12.9003C138.618 13.1281 139.398 12.8285 140.135 12.2374L145.316 8.0739C146.054 7.4809 146.782 6.83551 146.935 6.63961C147.089 6.44182 147.073 6.13848 146.902 5.96385C146.73 5.78959 146.5 5.54283 146.39 5.41375L146.275 5.30669C144.465 3.64993 142.271 2.33333 139.756 1.39296C134.719 -0.471081 128.244 -0.458933 123.292 1.39714C120.79 2.33751 118.613 3.65373 116.823 5.31086C115.029 6.96193 113.603 8.93455 112.587 11.1653C111.575 13.3904 111.061 15.8281 111.061 18.4032C111.061 20.9798 111.575 23.4122 112.587 25.6426C113.603 27.8696 115.029 29.8403 116.823 31.4929C118.622 33.158 120.799 34.4746 123.294 35.4066C125.781 36.3371 128.556 36.812 131.539 36.812C134.487 36.812 137.253 36.3371 139.756 35.4108C142.264 34.4788 144.456 33.158 146.275 31.497C148.086 29.8403 149.52 27.8734 150.536 25.6388C151.548 23.4122 152.062 20.9798 152.062 18.4032V17.8774C151.988 17.3243 151.892 16.5832 151.849 16.2286C151.806 15.8763 150.978 15.5866 150.009 15.5866" fill="black"/>
<path d="M348.466 26.9437C348.616 27.5085 348.692 28.2866 348.692 29.278C348.692 30.3071 348.604 31.1041 348.428 31.6688C348.19 32.4469 347.775 33.0619 347.186 33.5137C346.596 33.9655 345.861 34.1914 344.983 34.1914C344.481 34.1914 344.023 34.091 343.609 33.8902C343.195 33.6894 342.849 33.4007 342.573 33.0242C342.561 32.9991 342.542 32.9928 342.517 33.0054C342.492 33.0054 342.479 33.0179 342.479 33.043V33.8525C342.479 33.978 342.417 34.0408 342.291 34.0408H341.331C341.205 34.0408 341.143 33.978 341.143 33.8525V21.0514C341.143 20.9259 341.205 20.8632 341.331 20.8632H342.291C342.417 20.8632 342.479 20.9259 342.479 21.0514V25.4942C342.479 25.5193 342.486 25.5381 342.498 25.5506C342.523 25.5506 342.548 25.5381 342.573 25.513C342.849 25.149 343.195 24.8667 343.609 24.6659C344.023 24.4651 344.481 24.3647 344.983 24.3647C345.874 24.3647 346.621 24.5968 347.223 25.0612C347.826 25.513 348.24 26.1405 348.466 26.9437ZM347.016 31.5559C347.142 31.2923 347.229 30.9974 347.28 30.6711C347.33 30.3322 347.355 29.8679 347.355 29.278C347.355 28.6631 347.317 28.1862 347.242 27.8473C347.179 27.4959 347.073 27.1822 346.922 26.906C346.759 26.4919 346.495 26.1593 346.131 25.9083C345.767 25.6573 345.334 25.5318 344.832 25.5318C344.355 25.5318 343.941 25.6636 343.59 25.9271C343.251 26.1781 343.006 26.517 342.856 26.9437C342.73 27.2073 342.636 27.5085 342.573 27.8473C342.523 28.1862 342.498 28.6631 342.498 29.278C342.498 29.8804 342.523 30.351 342.573 30.6899C342.636 31.0162 342.724 31.3111 342.837 31.5747C343 32.0139 343.251 32.3653 343.59 32.6289C343.929 32.8924 344.349 33.0242 344.851 33.0242C345.378 33.0242 345.83 32.8924 346.207 32.6289C346.596 32.3653 346.866 32.0077 347.016 31.5559ZM350.821 37.8058C350.733 37.8058 350.689 37.743 350.689 37.6175V36.8645C350.689 36.739 350.752 36.6763 350.877 36.6763H350.953C351.442 36.6637 351.819 36.5884 352.082 36.4504C352.358 36.3249 352.59 36.0802 352.779 35.7162C352.979 35.3648 353.193 34.8252 353.419 34.0972C353.444 34.047 353.444 34.0094 353.419 33.9843L350.237 24.7223L350.218 24.647C350.218 24.5592 350.275 24.5153 350.388 24.5153H351.386C351.499 24.5153 351.574 24.5655 351.611 24.6659L354.059 32.2712C354.071 32.2963 354.09 32.3089 354.115 32.3089C354.14 32.3089 354.159 32.2963 354.172 32.2712L356.581 24.6659C356.619 24.5655 356.694 24.5153 356.807 24.5153H357.786C357.924 24.5153 357.974 24.5843 357.937 24.7223L354.454 34.8691C354.153 35.7099 353.871 36.3312 353.607 36.7328C353.343 37.1344 353.011 37.4105 352.609 37.5611C352.22 37.7242 351.668 37.8058 350.953 37.8058H350.821ZM363.794 34.0408C363.731 34.0408 363.675 34.0219 363.624 33.9843C363.587 33.9341 363.568 33.8776 363.568 33.8149V21.0891C363.568 21.0263 363.587 20.9761 363.624 20.9385C363.675 20.8883 363.731 20.8632 363.794 20.8632H368.387C369.278 20.8632 370.063 21.0201 370.74 21.3338C371.418 21.6476 371.939 22.0994 372.303 22.6892C372.679 23.2665 372.868 23.9442 372.868 24.7223V30.1816C372.868 30.9597 372.679 31.6437 372.303 32.2336C371.939 32.8109 371.418 33.2564 370.74 33.5701C370.063 33.8839 369.278 34.0408 368.387 34.0408H363.794ZM365.752 32.0641C365.752 32.1269 365.783 32.1583 365.846 32.1583H368.481C369.146 32.1583 369.674 31.9512 370.063 31.537C370.464 31.1103 370.671 30.5456 370.684 29.8428V25.08C370.684 24.3647 370.483 23.7999 370.081 23.3857C369.68 22.959 369.14 22.7457 368.462 22.7457H365.846C365.783 22.7457 365.752 22.7771 365.752 22.8398V32.0641ZM382.75 34.0408C382.625 34.0408 382.543 33.978 382.505 33.8525L381.884 31.8382C381.859 31.788 381.828 31.7629 381.79 31.7629H376.82C376.782 31.7629 376.751 31.788 376.726 31.8382L376.105 33.8525C376.067 33.978 375.986 34.0408 375.86 34.0408H373.978C373.902 34.0408 373.846 34.0219 373.808 33.9843C373.77 33.9341 373.764 33.8651 373.789 33.7772L377.874 21.0514C377.912 20.9259 377.994 20.8632 378.119 20.8632H380.472C380.598 20.8632 380.679 20.9259 380.717 21.0514L384.821 33.7772C384.833 33.8023 384.84 33.8337 384.84 33.8713C384.84 33.9843 384.771 34.0408 384.633 34.0408H382.75ZM377.31 29.9369C377.297 30.0122 377.322 30.0498 377.385 30.0498H381.206C381.282 30.0498 381.307 30.0122 381.282 29.9369L379.343 23.6305C379.33 23.5803 379.311 23.5552 379.286 23.5552C379.261 23.5552 379.242 23.5803 379.23 23.6305L377.31 29.9369ZM389.643 34.0408C389.517 34.0408 389.436 33.978 389.398 33.8525L385.445 21.1267L385.426 21.0514C385.426 20.9259 385.495 20.8632 385.633 20.8632H387.497C387.635 20.8632 387.723 20.9259 387.76 21.0514L390.584 30.8781C390.596 30.9158 390.615 30.9346 390.64 30.9346C390.665 30.9346 390.684 30.9158 390.697 30.8781L393.502 21.0514C393.539 20.9259 393.627 20.8632 393.765 20.8632H395.591C395.667 20.8632 395.723 20.8883 395.761 20.9385C395.798 20.9887 395.805 21.0514 395.78 21.1267L391.77 33.8525C391.732 33.978 391.651 34.0408 391.525 34.0408H389.643ZM397.951 34.0408C397.888 34.0408 397.832 34.0219 397.782 33.9843C397.744 33.9341 397.725 33.8776 397.725 33.8149V21.0891C397.725 21.0263 397.744 20.9761 397.782 20.9385C397.832 20.8883 397.888 20.8632 397.951 20.8632H399.683C399.746 20.8632 399.796 20.8883 399.834 20.9385C399.884 20.9761 399.909 21.0263 399.909 21.0891V33.8149C399.909 33.8776 399.884 33.9341 399.834 33.9843C399.796 34.0219 399.746 34.0408 399.683 34.0408H397.951ZM402.878 34.0408C402.815 34.0408 402.759 34.0219 402.709 33.9843C402.671 33.9341 402.652 33.8776 402.652 33.8149V21.0891C402.652 21.0263 402.671 20.9761 402.709 20.9385C402.759 20.8883 402.815 20.8632 402.878 20.8632H407.471C408.362 20.8632 409.147 21.0201 409.825 21.3338C410.502 21.6476 411.023 22.0994 411.387 22.6892C411.764 23.2665 411.952 23.9442 411.952 24.7223V30.1816C411.952 30.9597 411.764 31.6437 411.387 32.2336C411.023 32.8109 410.502 33.2564 409.825 33.5701C409.147 33.8839 408.362 34.0408 407.471 34.0408H402.878ZM404.836 32.0641C404.836 32.1269 404.867 32.1583 404.93 32.1583H407.566C408.231 32.1583 408.758 31.9512 409.147 31.537C409.548 31.1103 409.755 30.5456 409.768 29.8428V25.08C409.768 24.3647 409.567 23.7999 409.166 23.3857C408.764 22.959 408.224 22.7457 407.547 22.7457H404.93C404.867 22.7457 404.836 22.7771 404.836 22.8398V32.0641ZM423.348 20.8444C424.138 20.8444 424.835 21.0075 425.437 21.3338C426.04 21.6601 426.504 22.1245 426.83 22.7269C427.169 23.3167 427.339 24.0007 427.339 24.7788C427.339 25.5444 427.169 26.2221 426.83 26.8119C426.492 27.4018 426.008 27.8599 425.381 28.1862C424.766 28.4999 424.051 28.6568 423.235 28.6568H420.223C420.16 28.6568 420.129 28.6882 420.129 28.7509V33.8149C420.129 33.8776 420.104 33.9341 420.053 33.9843C420.016 34.0219 419.965 34.0408 419.903 34.0408H418.171C418.108 34.0408 418.052 34.0219 418.001 33.9843C417.964 33.9341 417.945 33.8776 417.945 33.8149V21.0703C417.945 21.0075 417.964 20.9573 418.001 20.9197C418.052 20.8695 418.108 20.8444 418.171 20.8444H423.348ZM423.028 26.8872C423.668 26.8872 424.182 26.699 424.571 26.3225C424.96 25.946 425.155 25.4502 425.155 24.8353C425.155 24.2078 424.96 23.6995 424.571 23.3104C424.182 22.9214 423.668 22.7269 423.028 22.7269H420.223C420.16 22.7269 420.129 22.7582 420.129 22.821V26.7931C420.129 26.8558 420.16 26.8872 420.223 26.8872H423.028ZM433.715 34.229C432.774 34.229 431.939 34.0408 431.211 33.6643C430.484 33.2752 429.919 32.7293 429.517 32.0265C429.128 31.3237 428.934 30.5142 428.934 29.598V25.3059C428.934 24.4023 429.134 23.6054 429.536 22.9151C429.938 22.2123 430.496 21.6727 431.211 21.2962C431.939 20.9071 432.774 20.7126 433.715 20.7126C434.669 20.7126 435.504 20.9071 436.219 21.2962C436.947 21.6727 437.512 22.2123 437.913 22.9151C438.315 23.6054 438.516 24.4023 438.516 25.3059V29.598C438.516 30.5142 438.315 31.3237 437.913 32.0265C437.512 32.7293 436.947 33.2752 436.219 33.6643C435.504 34.0408 434.669 34.229 433.715 34.229ZM433.715 32.3465C434.506 32.3465 435.14 32.1018 435.617 31.6123C436.093 31.1229 436.332 30.4765 436.332 29.6733V25.2871C436.332 24.4713 436.093 23.8187 435.617 23.3293C435.14 22.8398 434.506 22.5951 433.715 22.5951C432.937 22.5951 432.31 22.8398 431.833 23.3293C431.356 23.8187 431.117 24.4713 431.117 25.2871V29.6733C431.117 30.4765 431.356 31.1229 431.833 31.6123C432.31 32.1018 432.937 32.3465 433.715 32.3465ZM449.458 20.8632C449.521 20.8632 449.571 20.8883 449.609 20.9385C449.659 20.9761 449.684 21.0263 449.684 21.0891V22.5386C449.684 22.6014 449.659 22.6578 449.609 22.708C449.571 22.7457 449.521 22.7645 449.458 22.7645H445.995C445.932 22.7645 445.9 22.7959 445.9 22.8586V33.8149C445.9 33.8776 445.875 33.9341 445.825 33.9843C445.787 34.0219 445.737 34.0408 445.674 34.0408H443.943C443.88 34.0408 443.823 34.0219 443.773 33.9843C443.735 33.9341 443.717 33.8776 443.717 33.8149V22.8586C443.717 22.7959 443.685 22.7645 443.623 22.7645H440.29C440.228 22.7645 440.171 22.7457 440.121 22.708C440.083 22.6578 440.065 22.6014 440.065 22.5386V21.0891C440.065 21.0263 440.083 20.9761 440.121 20.9385C440.171 20.8883 440.228 20.8632 440.29 20.8632H449.458ZM455.863 34.1914C454.884 34.1914 454.031 34.0345 453.303 33.7207C452.575 33.407 452.01 32.9677 451.609 32.403C451.219 31.8382 451.025 31.1731 451.025 30.4075V29.9369C451.025 29.8741 451.044 29.8239 451.081 29.7863C451.132 29.7361 451.188 29.711 451.251 29.711H452.926C452.989 29.711 453.039 29.7361 453.077 29.7863C453.127 29.8239 453.152 29.8741 453.152 29.9369V30.2946C453.152 30.8719 453.409 31.3551 453.924 31.7441C454.439 32.1206 455.141 32.3089 456.032 32.3089C456.798 32.3089 457.375 32.1457 457.764 31.8194C458.153 31.4931 458.348 31.0727 458.348 30.5581C458.348 30.2067 458.241 29.9118 458.028 29.6733C457.815 29.4223 457.507 29.1964 457.105 28.9956C456.716 28.7948 456.127 28.5438 455.336 28.2426C454.445 27.9163 453.723 27.6089 453.171 27.3202C452.619 27.0315 452.154 26.6425 451.778 26.153C451.414 25.651 451.232 25.0298 451.232 24.2894C451.232 23.1849 451.634 22.3127 452.437 21.6727C453.24 21.0326 454.313 20.7126 455.656 20.7126C456.597 20.7126 457.425 20.8757 458.141 21.202C458.869 21.5283 459.433 21.9864 459.835 22.5763C460.237 23.1536 460.437 23.825 460.437 24.5906V24.9106C460.437 24.9733 460.412 25.0298 460.362 25.08C460.325 25.1177 460.274 25.1365 460.212 25.1365H458.517C458.455 25.1365 458.398 25.1177 458.348 25.08C458.31 25.0298 458.291 24.9733 458.291 24.9106V24.7035C458.291 24.1137 458.047 23.6179 457.557 23.2163C457.08 22.8022 456.415 22.5951 455.562 22.5951C454.872 22.5951 454.332 22.7394 453.943 23.0281C453.566 23.3167 453.378 23.7246 453.378 24.2517C453.378 24.6282 453.478 24.9357 453.679 25.1741C453.88 25.4126 454.181 25.6322 454.583 25.833C454.984 26.0213 455.606 26.266 456.447 26.5672C457.338 26.906 458.047 27.2135 458.574 27.4896C459.113 27.7657 459.572 28.1548 459.948 28.6568C460.337 29.1462 460.532 29.7612 460.532 30.5016C460.532 31.6312 460.111 32.5285 459.27 33.1936C458.442 33.8588 457.306 34.1914 455.863 34.1914Z" fill="black"/>
</svg>
