<svg width="261" height="49" viewBox="0 0 261 49" fill="none" xmlns="http://www.w3.org/2000/svg">
<path d="M44.0321 45V38.6567H46.9284C47.4222 38.6567 47.8337 38.7137 48.1628 38.8277C48.492 38.9353 48.7389 39.1125 48.9035 39.3594C49.0745 39.6 49.1599 39.9165 49.1599 40.309C49.1599 40.6889 49.0808 40.9959 48.9225 41.2301C48.7706 41.458 48.5142 41.6226 48.1533 41.7239C48.5838 41.8189 48.8909 41.993 49.0745 42.2462C49.258 42.4994 49.3498 42.8349 49.3498 43.2528C49.3498 43.8858 49.1504 44.3353 48.7516 44.6012C48.3528 44.8671 47.745 45 46.9284 45H44.0321ZM44.8488 44.2973H46.8049C47.2291 44.2973 47.5646 44.2593 47.8115 44.1834C48.0584 44.1074 48.2356 43.9903 48.3433 43.832C48.4572 43.6674 48.5142 43.4522 48.5142 43.1863C48.5142 42.9204 48.4572 42.7052 48.3433 42.5406C48.2356 42.376 48.0584 42.2588 47.8115 42.1892C47.5646 42.1132 47.2291 42.0753 46.8049 42.0753H44.8488V44.2973ZM44.8488 41.3916H46.8049C47.362 41.3916 47.7545 41.3187 47.9824 41.1731C48.2103 41.0212 48.3243 40.7553 48.3243 40.3755C48.3243 39.9957 48.2103 39.7329 47.9824 39.5873C47.7545 39.4354 47.362 39.3594 46.8049 39.3594H44.8488V41.3916ZM51.7766 45V42.5311L49.2317 38.6567H50.1908L52.185 41.7809L54.1791 38.6567H55.1382L52.5933 42.5311V45H51.7766ZM59.2866 45V37.2471H61.9328C63.2481 37.2471 64.2501 37.5721 64.9387 38.222C65.6274 38.872 65.9717 39.8391 65.9717 41.1236C65.9717 42.408 65.6274 43.3751 64.9387 44.0251C64.2501 44.675 63.2481 45 61.9328 45H59.2866ZM60.2847 44.1411H61.8515C62.9425 44.1411 63.7317 43.8936 64.2192 43.3984C64.7066 42.8954 64.9503 42.1372 64.9503 41.1236C64.9503 40.11 64.7066 39.3556 64.2192 38.8604C63.7317 38.3574 62.9425 38.106 61.8515 38.106H60.2847V44.1411ZM66.1177 45L69.2977 37.2471H70.3887L73.5688 45H72.4894L71.8163 43.3055H67.8586L67.197 45H66.1177ZM68.1952 42.4699H71.4913L69.8432 38.3033L68.1952 42.4699ZM75.3275 45L72.1474 37.2471H73.25L75.873 43.8626L78.496 37.2471H79.5985L76.4185 45H75.3275ZM80.8894 45V37.2471H81.8875V45H80.8894ZM83.8022 45V37.2471H86.4484C87.7638 37.2471 88.7658 37.5721 89.4544 38.222C90.143 38.872 90.4873 39.8391 90.4873 41.1236C90.4873 42.408 90.143 43.3751 89.4544 44.0251C88.7658 44.675 87.7638 45 86.4484 45H83.8022ZM84.8003 44.1411H86.3672C87.4581 44.1411 88.2474 43.8936 88.7348 43.3984C89.2223 42.8954 89.466 42.1372 89.466 41.1236C89.466 40.11 89.2223 39.3556 88.7348 38.8604C88.2474 38.3574 87.4581 38.106 86.3672 38.106H84.8003V44.1411ZM94.8756 45V37.2471H97.8932C98.8294 37.2471 99.5336 37.4444 100.006 37.839C100.485 38.2259 100.725 38.8294 100.725 39.6496C100.725 40.4697 100.485 41.0771 100.006 41.4717C99.5336 41.8586 98.8294 42.052 97.8932 42.052H95.8738V45H94.8756ZM95.8738 41.1932H97.6959C98.3459 41.1932 98.8449 41.081 99.1931 40.8566C99.5413 40.6245 99.7154 40.2221 99.7154 39.6496C99.7154 39.077 99.549 38.6785 99.2163 38.4541C98.8836 38.222 98.3768 38.106 97.6959 38.106H95.8738V41.1932ZM105.863 45.1161C105.058 45.1161 104.362 44.9458 103.774 44.6054C103.186 44.2572 102.733 43.7852 102.416 43.1894C102.099 42.5859 101.94 41.8973 101.94 41.1236C101.94 40.3498 102.099 39.6651 102.416 39.0693C102.733 38.4658 103.186 37.9938 103.774 37.6533C104.362 37.3051 105.058 37.1311 105.863 37.1311C106.675 37.1311 107.372 37.3051 107.952 37.6533C108.54 37.9938 108.993 38.4658 109.31 39.0693C109.627 39.6651 109.786 40.3498 109.786 41.1236C109.786 41.8973 109.627 42.5859 109.31 43.1894C108.993 43.7852 108.54 44.2572 107.952 44.6054C107.372 44.9458 106.675 45.1161 105.863 45.1161ZM105.863 44.234C106.459 44.234 106.973 44.1063 107.406 43.851C107.84 43.5879 108.172 43.2243 108.405 42.76C108.644 42.288 108.764 41.7425 108.764 41.1236C108.764 40.5046 108.644 39.9629 108.405 39.4987C108.172 39.0267 107.84 38.6631 107.406 38.4077C106.973 38.1447 106.459 38.0131 105.863 38.0131C105.267 38.0131 104.752 38.1447 104.319 38.4077C103.886 38.6631 103.549 39.0267 103.309 39.4987C103.077 39.9629 102.961 40.5046 102.961 41.1236C102.961 41.7425 103.077 42.288 103.309 42.76C103.549 43.2243 103.886 43.5879 104.319 43.851C104.752 44.1063 105.267 44.234 105.863 44.234ZM112.355 45V38.1292H109.917V37.2471H115.778V38.1292H113.353V45H112.355ZM119.255 45.1161C118.722 45.1161 118.234 45.0348 117.793 44.8723C117.352 44.7098 116.915 44.439 116.482 44.0599L116.911 43.2707C117.329 43.6111 117.723 43.8587 118.095 44.0135C118.466 44.1605 118.853 44.234 119.255 44.234C119.851 44.234 120.312 44.1141 120.637 43.8742C120.962 43.6266 121.124 43.2784 121.124 42.8297C121.124 42.5202 121.023 42.2648 120.822 42.0637C120.629 41.8547 120.343 41.7116 119.963 41.6342L118.629 41.3789C117.956 41.2551 117.468 41.023 117.166 40.6825C116.865 40.3343 116.714 39.9243 116.714 39.4523C116.714 39.0267 116.81 38.6398 117.004 38.2917C117.197 37.9435 117.491 37.6649 117.886 37.456C118.281 37.2394 118.772 37.1311 119.36 37.1311C119.824 37.1311 120.269 37.2007 120.695 37.34C121.12 37.4715 121.526 37.6998 121.913 38.0247L121.484 38.8139C121.151 38.5663 120.818 38.3729 120.486 38.2336C120.153 38.0866 119.785 38.0131 119.383 38.0131C118.842 38.0131 118.431 38.133 118.153 38.3729C117.874 38.605 117.735 38.9223 117.735 39.3246C117.735 39.6341 117.832 39.8778 118.025 40.0558C118.226 40.226 118.517 40.3498 118.896 40.4272L120.23 40.6825C120.896 40.8063 121.379 41.0617 121.681 41.4485C121.991 41.8354 122.145 42.2648 122.145 42.7368C122.145 43.4409 121.894 44.0135 121.391 44.4545C120.896 44.8955 120.184 45.1161 119.255 45.1161Z" fill="white"/>
<path fill-rule="evenodd" clip-rule="evenodd" d="M59.2216 16.3142C58.2654 15.1562 56.76 14.2276 54.7481 13.554C54.2586 13.3877 53.7663 13.2358 53.2683 13.0925C52.8073 12.9578 52.3946 12.803 52.0418 12.6282C51.7116 12.4677 51.4527 12.2814 51.2592 12.075C51.1169 11.9174 51.0486 11.7196 51.0486 11.4616C51.0486 11.0575 51.2051 10.7479 51.5409 10.4928C52.241 9.96258 53.4618 9.90525 54.7225 10.4011L55.3087 10.6333C55.7469 10.9285 56.3132 11.3412 56.5694 11.5447C56.8283 11.7483 57.2666 11.4616 57.5511 10.9056L59.435 7.18231C59.7139 6.62913 59.6485 6.02148 59.2871 5.83517C58.9256 5.646 58.1658 5.28772 57.5995 5.03549C57.5995 5.03549 57.0816 4.80619 55.8209 4.48517C53.1857 3.80873 50.6843 3.84026 48.7151 4.57689C47.6792 4.96383 46.7828 5.51702 46.0543 6.22498C45.3315 6.93581 44.7623 7.79282 44.3639 8.78168C43.9683 9.76481 43.7663 10.8712 43.7663 12.0664C43.7663 13.2731 43.9626 14.2992 44.3468 15.1075C44.731 15.9101 45.2432 16.5922 45.875 17.1253C46.4925 17.6527 47.2011 18.0741 47.978 18.3808C48.7236 18.6817 49.4834 18.954 50.2432 19.1976C50.8721 19.4126 51.4071 19.6075 51.8539 19.791C52.2495 19.9515 52.5768 20.1234 52.8186 20.304C53.0264 20.4588 53.1715 20.625 53.2512 20.7913C53.3337 20.969 53.3764 21.184 53.3764 21.4391C53.3764 21.8461 53.2028 22.2043 52.8499 22.5397C52.1527 23.1932 50.3884 23.2448 48.7606 22.5254C47.9581 22.1671 47.6451 21.9292 47.6451 21.9292C47.1499 21.5537 46.5238 21.055 46.2535 20.8171C45.9831 20.582 45.5221 20.84 45.2319 21.3903L43.1971 25.2426C42.9069 25.7958 42.941 26.3919 43.274 26.5668C43.6098 26.7445 44.3354 27.1228 44.8847 27.4037C44.8847 27.4037 48.3878 29.2037 51.3559 29.2037C52.793 29.2037 54.1021 29.0088 55.2461 28.6161C56.4071 28.2177 57.4003 27.6474 58.2028 26.9279C59.0139 26.197 59.6371 25.3114 60.0582 24.2881C60.4766 23.2792 60.6872 22.1327 60.6872 20.8973C60.6872 19.0343 60.1948 17.4922 59.2216 16.3142" fill="white"/>
<path fill-rule="evenodd" clip-rule="evenodd" d="M80.7713 16.5993C80.7713 17.4193 80.6137 18.1904 80.307 18.8785C79.9975 19.5694 79.5676 20.18 79.0288 20.6961C78.4872 21.2035 77.8538 21.6135 77.1488 21.8973C75.7503 22.4678 74.0422 22.4621 72.6465 21.8973C71.9415 21.6135 71.3167 21.2064 70.7866 20.6989C70.2564 20.1858 69.8294 19.5723 69.517 18.8785C69.2103 18.1904 69.0556 17.4193 69.0556 16.5993C69.0556 15.7765 69.2103 15.0054 69.5198 14.3202C69.8294 13.6264 70.2564 13.01 70.7866 12.4997C71.3167 11.9894 71.9415 11.5852 72.6465 11.2985C73.3515 11.0204 74.1081 10.8742 74.8991 10.8742C75.6844 10.8742 76.4438 11.0204 77.1488 11.2985C77.8538 11.5852 78.4872 11.9923 79.0288 12.5026C79.5676 13.0158 79.9975 13.6293 80.307 14.3202C80.6137 15.0054 80.7713 15.7765 80.7713 16.5993M87.12 11.6441C86.4665 10.1132 85.5437 8.76866 84.3773 7.63338C83.2138 6.50098 81.8009 5.59792 80.1816 4.95574C76.9432 3.67712 72.7733 3.68572 69.5893 4.95574C67.9816 5.60078 66.5773 6.50384 65.4252 7.63625C64.2731 8.76866 63.356 10.1161 62.6997 11.6441C62.0492 13.1693 61.7196 14.8378 61.7196 16.6009C61.7196 18.364 62.0492 20.0297 62.6997 21.5577C63.356 23.0829 64.2731 24.4303 65.4252 25.5627C66.583 26.7037 67.9873 27.6068 69.5922 28.2432C71.1914 28.8797 72.9768 29.2036 74.897 29.2036C76.7942 29.2036 78.571 28.8797 80.1816 28.2461C81.7951 27.6096 83.208 26.7037 84.3773 25.5656C85.5437 24.4303 86.4665 23.0857 87.12 21.5577C87.7705 20.0297 88.103 18.364 88.103 16.6009C88.103 14.8378 87.7705 13.1693 87.12 11.6441" fill="white"/>
<path fill-rule="evenodd" clip-rule="evenodd" d="M106.928 4.73502C106.299 4.73502 105.785 5.25017 105.785 5.8811V16.4216C105.785 17.0525 105.491 17.1422 105.133 16.6271L97.5044 5.67272C97.1438 5.15756 96.3388 4.73502 95.7098 4.73502H91.1567C90.5277 4.73502 90.017 5.25017 90.017 5.8811V27.7579C90.017 28.3889 90.5277 28.9069 91.1567 28.9069H95.9839C96.61 28.9069 97.1236 28.3889 97.1236 27.7579V17.2146C97.1236 16.5894 97.4179 16.4939 97.7785 17.0091L105.407 27.9634C105.765 28.4815 106.573 28.9069 107.202 28.9069H111.723C112.349 28.9069 112.863 28.3889 112.863 27.7579V5.8811C112.863 5.25017 112.349 4.73502 111.723 4.73502H106.928Z" fill="white"/>
<path fill-rule="evenodd" clip-rule="evenodd" d="M172.509 4.73502C171.878 4.73502 171.364 5.25017 171.364 5.8811V16.2074C171.364 16.8383 171.095 16.9107 170.769 16.3724L164.253 5.71034C163.924 5.17203 163.141 4.73502 162.513 4.73502H157.929C157.302 4.73502 156.787 5.25017 156.787 5.8811V27.7579C156.787 28.3889 157.302 28.9069 157.929 28.9069H162.762C163.392 28.9069 163.907 28.3889 163.907 27.7579V17.4316C163.907 16.8036 164.175 16.7283 164.505 17.2638L171.02 27.9287C171.35 28.4641 172.133 28.9069 172.76 28.9069H177.312C177.94 28.9069 178.454 28.3889 178.454 27.7579V5.8811C178.454 5.25017 177.94 4.73502 177.312 4.73502H172.509Z" fill="white"/>
<path fill-rule="evenodd" clip-rule="evenodd" d="M199.567 16.5993C199.567 17.4193 199.412 18.1904 199.102 18.8785C198.793 19.5694 198.366 20.18 197.824 20.6961C197.282 21.2035 196.652 21.6135 195.944 21.8973C194.546 22.4678 192.837 22.4621 191.442 21.8973C190.737 21.6135 190.112 21.2064 189.582 20.6989C189.052 20.1858 188.625 19.5723 188.312 18.8785C188.006 18.1904 187.851 17.4193 187.851 16.5993C187.851 15.7765 188.006 15.0054 188.315 14.3202C188.625 13.6264 189.052 13.01 189.582 12.4997C190.112 11.9894 190.737 11.5852 191.442 11.2985C192.147 11.0204 192.906 10.8742 193.694 10.8742C194.482 10.8742 195.239 11.0204 195.944 11.2985C196.652 11.5852 197.282 11.9923 197.824 12.5026C198.366 13.0158 198.793 13.6293 199.102 14.3202C199.412 15.0054 199.567 15.7765 199.567 16.5993M205.918 11.6441C205.264 10.1132 204.342 8.76866 203.175 7.63338C202.012 6.50098 200.599 5.59792 198.982 4.95574C195.744 3.67712 191.574 3.68572 188.387 4.95574C186.779 5.60078 185.378 6.50384 184.226 7.63625C183.071 8.76866 182.154 10.1161 181.5 11.6441C180.847 13.1693 180.517 14.8378 180.517 16.6009C180.517 18.364 180.847 20.0297 181.5 21.5577C182.154 23.0829 183.071 24.4303 184.226 25.5627C185.384 26.7037 186.785 27.6068 188.39 28.2432C189.989 28.8797 191.775 29.2036 193.695 29.2036C195.592 29.2036 197.369 28.8797 198.982 28.2461C200.596 27.6096 202.006 26.7037 203.175 25.5656C204.342 24.4303 205.264 23.0857 205.918 21.5577C206.568 20.0297 206.901 18.364 206.901 16.6009C206.901 14.8378 206.568 13.1693 205.918 11.6441" fill="white"/>
<path fill-rule="evenodd" clip-rule="evenodd" d="M209.728 4.73502C209.093 4.73502 208.445 5.23281 208.285 5.84347L207.232 9.84318C207.069 10.4509 207.456 10.9487 208.09 10.9487H211.554C212.189 10.9487 212.706 11.4639 212.706 12.0948V27.7579C212.706 28.3889 213.224 28.9069 213.858 28.9069H218.722C219.356 28.9069 219.874 28.3889 219.874 27.7579V12.0948C219.874 11.4639 220.392 10.9487 221.023 10.9487H224.319C224.95 10.9487 225.471 10.4336 225.471 9.80266V5.8811C225.471 5.25017 224.95 4.73502 224.319 4.73502H209.728Z" fill="white"/>
<path fill-rule="evenodd" clip-rule="evenodd" d="M257.59 16.3141C256.619 15.1561 255.09 14.2274 253.046 13.5539C252.549 13.3876 252.048 13.2357 251.542 13.0924C251.074 12.9577 250.655 12.8029 250.296 12.6281C249.964 12.4676 249.698 12.2813 249.501 12.0749C249.357 11.9172 249.288 11.7195 249.288 11.4615C249.288 11.0574 249.447 10.7478 249.788 10.4927C250.499 9.96246 251.739 9.90513 253.02 10.401L253.615 10.6332C254.063 10.9312 254.639 11.344 254.899 11.5475C255.159 11.7481 255.604 11.4615 255.893 10.9055L257.807 7.18219C258.09 6.629 258.09 6.05289 257.801 5.90098C257.512 5.75193 256.807 5.42231 256.232 5.16721C256.232 5.16721 255.416 4.80607 254.136 4.48505C251.459 3.80861 248.918 3.84014 246.917 4.57677C245.865 4.96371 244.954 5.5169 244.214 6.22486C243.483 6.93569 242.902 7.7927 242.497 8.78156C242.095 9.76468 241.89 10.8711 241.89 12.0663C241.89 13.273 242.089 14.2991 242.482 15.1074C242.87 15.9099 243.39 16.5921 244.032 17.1252C244.659 17.6526 245.379 18.074 246.168 18.3806C246.926 18.6816 247.698 18.9539 248.469 19.1975C249.108 19.4125 249.652 19.6074 250.106 19.7908C250.508 19.9513 250.84 20.1233 251.086 20.3039C251.297 20.4587 251.444 20.6249 251.525 20.7912C251.609 20.9689 251.652 21.1838 251.652 21.4389C251.652 21.8459 251.476 22.2042 251.117 22.5396C250.733 22.895 250.481 23.0498 249.66 23.0498C248.955 23.0498 248.065 22.6628 247.197 22.2816L246.339 21.9061C245.969 21.6654 245.408 21.2784 245.093 21.0491C244.778 20.8198 244.28 21.0806 243.983 21.631L242.049 25.2424C241.751 25.7956 241.765 26.4176 242.078 26.6326C242.39 26.8447 243.089 27.2746 243.636 27.5899C243.636 27.5899 246.431 29.2036 249.6 29.2036C251.06 29.2036 252.39 29.0087 253.552 28.616C254.731 28.2176 255.74 27.6472 256.555 26.9278C257.379 26.1969 258.012 25.3112 258.44 24.288C258.865 23.2791 259.079 22.1326 259.079 20.8972C259.079 19.0341 258.579 17.4921 257.59 16.3141" fill="white"/>
<path fill-rule="evenodd" clip-rule="evenodd" d="M238.914 10.9116C239.547 10.9116 240.064 10.3966 240.064 9.77236V5.87137C240.064 5.24422 239.547 4.73502 238.914 4.73502H228.241C227.608 4.73502 227.094 5.24422 227.094 5.87137V27.6203C227.094 28.2446 227.608 28.7595 228.241 28.7595H238.914C239.547 28.7595 240.064 28.2446 240.064 27.6203V23.7193C240.064 23.0921 239.547 22.5829 238.914 22.5829H235.397C234.764 22.5829 234.247 22.068 234.247 21.4408V20.9144C234.247 20.2872 234.764 19.7723 235.397 19.7723H238.914C239.547 19.7723 240.064 19.2602 240.064 18.6359V14.7349C240.064 14.1078 239.547 13.5986 238.914 13.5986H235.397C234.764 13.5986 234.247 13.0836 234.247 12.4565V12.0508C234.247 11.4237 234.764 10.9116 235.397 10.9116H238.914Z" fill="white"/>
<path fill-rule="evenodd" clip-rule="evenodd" d="M141.459 16.2399C141.41 15.8615 141.35 15.354 141.321 15.1103C141.293 14.8695 140.76 14.6717 140.138 14.6717H129.537C128.915 14.6717 128.402 15.182 128.402 15.807V18.9003C128.402 19.5252 128.915 20.0327 129.537 20.0327H131.503C132.128 20.0327 132.515 20.0155 132.515 20.2964C132.515 20.5745 132.741 21.4001 132.004 21.856C131.039 22.4551 127.396 22.4637 126 21.899C125.295 21.6152 124.671 21.2081 124.14 20.7006C123.61 20.1875 123.186 19.574 122.874 18.8802C122.564 18.1922 122.409 17.421 122.409 16.6011C122.409 15.7783 122.564 15.0071 122.874 14.322C123.186 13.6282 123.61 13.0118 124.14 12.5015C124.671 11.9913 125.295 11.587 126 11.3003C127.41 10.7413 129.093 10.7413 130.506 11.3003C131.211 11.587 131.532 11.8422 131.532 11.8422C132.019 12.2349 132.529 12.6793 132.669 12.8341C132.807 12.9889 133.308 12.7854 133.784 12.3783L137.117 9.52866C137.593 9.12444 138.06 8.68008 138.16 8.54534C138.258 8.41347 138.249 8.20132 138.137 8.08378C138.029 7.96338 137.88 7.79423 137.811 7.70536L137.736 7.63369C136.57 6.5013 135.16 5.59825 133.541 4.95322C130.299 3.67749 126.132 3.68609 122.948 4.95609C121.338 5.60112 119.936 6.50417 118.784 7.63656C117.629 8.76895 116.712 10.1164 116.059 11.6444C115.408 13.1695 115.076 14.838 115.076 16.6011C115.076 18.3642 115.408 20.0298 116.059 21.5578C116.712 23.083 117.629 24.4304 118.784 25.5628C119.942 26.7037 121.343 27.6068 122.948 28.2432C124.547 28.8797 126.333 29.2036 128.253 29.2036C130.15 29.2036 131.93 28.8797 133.541 28.2432C135.154 27.6097 136.564 26.7037 137.736 25.5656C138.9 24.4304 139.823 23.0858 140.476 21.5549C141.129 20.0298 141.459 18.3642 141.459 16.6011V16.2399Z" fill="white"/>
<path d="M0.726526 19.1234C1.3482 17.3287 2.33128 15.6779 3.6161 14.2711C5.08051 12.6784 6.86602 11.4082 8.85706 10.5427C10.8481 9.67726 13.0003 9.2358 15.1744 9.24691H16H16.8256C18.9997 9.2358 21.1519 9.67726 23.1429 10.5427C25.134 11.4082 26.9195 12.6784 28.3839 14.2711C29.6687 15.6779 30.6518 17.3287 31.2735 19.1234C31.7544 20.5253 31.9999 21.9959 32 23.4766C32 23.6484 32 23.8121 32 23.9839C31.9161 25.9063 31.4208 27.789 30.547 29.5073C29.2407 32.0026 27.2605 34.0891 24.8274 35.534C22.3943 36.9789 19.604 37.7253 16.7678 37.6899C16.5036 37.6899 16.2312 37.6899 15.9422 37.6899C15.6533 37.6899 15.4138 37.6899 15.1166 37.6899C12.2804 37.7253 9.49012 36.9789 7.05703 35.534C4.62393 34.0891 2.64376 32.0026 1.33746 29.5073C0.503652 27.7802 0.0478534 25.8979 -9.9496e-08 23.9839C-9.9496e-08 23.8121 -9.9496e-08 23.6484 -9.9496e-08 23.4766C0.000135806 21.9959 0.245579 20.5253 0.726526 19.1234V19.1234Z" fill="#61D9FF"/>
<path d="M4.97891 39.4454C4.97891 36.8482 5.71025 35.6949 7.05104 33.7166L7.33232 33.2572C8.12929 32.0476 7.82926 31.5038 7.22918 30.4443C6.67442 29.6056 6.35098 28.6353 6.29157 27.6315C6.29157 25.1093 8.10116 23.2341 10.8577 22.6996C11.4169 22.5613 11.9886 22.4797 12.5642 22.4558C13.1077 22.489 13.6455 22.3297 14.0831 22.0058L13.8019 10.8951C13.6163 10.8012 13.4169 10.7379 13.2112 10.7076C12.9682 10.6901 12.7397 10.5858 12.5675 10.4136C12.3953 10.2414 12.291 10.0129 12.2735 9.76994C12.1764 7.42433 11.9479 5.086 11.5891 2.76597C11.5801 2.61948 11.6022 2.47274 11.6539 2.33539C11.7056 2.19804 11.7857 2.07317 11.8891 1.969C12.583 1.27516 12.583 1.27516 13.4924 0.318798C13.5893 0.217493 13.7057 0.136978 13.8347 0.0821687C13.9636 0.027359 14.1024 -0.000596018 14.2425 9.63455e-06H17.993C18.1331 -0.000596018 18.2719 0.027359 18.4009 0.0821687C18.5298 0.136978 18.6463 0.217493 18.7431 0.318798C19.6807 1.25641 19.6807 1.25641 20.3464 1.969C20.4498 2.07317 20.5299 2.19804 20.5817 2.33539C20.6334 2.47274 20.6554 2.61948 20.6464 2.76597C20.2792 5.10425 20.0444 7.46142 19.9432 9.8262C19.9258 10.0691 19.8214 10.2976 19.6492 10.4698C19.477 10.642 19.2485 10.7464 19.0056 10.7638C18.8002 10.7955 18.601 10.8588 18.4149 10.9513L18.1336 22.062C18.594 22.3791 19.1534 22.519 19.7088 22.4558C20.2762 22.4625 20.8415 22.5253 21.3965 22.6434V22.6434C24.1531 23.1778 25.9627 25.053 25.9627 27.5752C25.9033 28.579 25.5798 29.5494 25.0251 30.3881C24.425 31.4569 24.0875 32.0007 24.9219 33.2009L25.222 33.6603C26.5628 35.6762 27.3035 36.792 27.3035 39.3891C27.3035 39.436 27.3035 39.4735 27.3035 39.511C27.2285 44.6773 22.6154 48.8872 16.896 48.8872H15.377C9.67636 48.8872 5.0633 44.7054 4.97891 39.511V39.4454ZM18.2086 8.8417L18.4149 5.64444C18.5743 4.20989 18.7525 2.8316 18.7525 2.8316C18.4055 2.48468 17.9274 2.1659 17.4304 1.64083H14.8332C14.3363 2.1659 13.8956 2.48468 13.5112 2.8316C13.5112 2.8316 13.6893 4.17239 13.8487 5.64444L14.055 8.8417C14.7894 9.0471 15.4881 9.36327 16.1271 9.77932C16.7691 9.3624 17.471 9.04621 18.2086 8.8417V8.8417ZM7.03228 39.5673C7.10729 43.5803 10.7827 45.5961 15.377 45.5961H16.896C21.4528 45.5961 25.1657 43.5803 25.2407 39.5673C25.2407 39.5673 25.2407 39.4923 25.2407 39.4454C25.2407 37.467 24.8001 36.8107 23.5061 34.8605L23.1967 34.3917C22.6661 33.6737 22.3797 32.8045 22.3797 31.9117C22.3797 31.0189 22.6661 30.1497 23.1967 29.4317C23.5806 28.8765 23.8103 28.2294 23.8624 27.5565C23.8355 26.8687 23.57 26.2118 23.1114 25.6986C22.6529 25.1853 22.03 24.8476 21.3496 24.7436V24.7436C20.8442 24.6123 20.3247 24.5431 19.8026 24.5373H18.1149L18.0211 28.6628C18.8661 29.0926 19.5417 29.7944 19.9391 30.6551C20.3365 31.5158 20.4324 32.4852 20.2114 33.4071C19.9905 34.329 19.4655 35.1496 18.7211 35.7366C17.9767 36.3237 17.0564 36.6429 16.1084 36.6429C15.1604 36.6429 14.24 36.3237 13.4957 35.7366C12.7513 35.1496 12.2263 34.329 12.0053 33.4071C11.7844 32.4852 11.8803 31.5158 12.2777 30.6551C12.675 29.7944 13.3507 29.0926 14.1956 28.6628L14.1019 24.5373H12.4142C11.8921 24.5437 11.3726 24.613 10.8671 24.7436V24.7436C10.1868 24.8476 9.56385 25.1853 9.10532 25.6986C8.64679 26.2118 8.38126 26.8687 8.35432 27.5565C8.40648 28.2294 8.63619 28.8765 9.02002 29.4317C9.55068 30.1497 9.83705 31.0189 9.83705 31.9117C9.83705 32.8045 9.55068 33.6737 9.02002 34.3917L8.71061 34.8605C7.41671 36.8107 6.97603 37.467 6.97603 39.4454C6.97603 39.4923 6.97603 39.5298 6.97603 39.5673H7.03228Z" fill="#153857"/>
<path d="M13.2122 37.5707H18.7817C18.8506 37.5742 18.9172 37.5973 18.9736 37.6371C19.03 37.6769 19.074 37.7319 19.1004 37.7957L19.4661 38.8083C19.478 38.8324 19.4832 38.8592 19.4812 38.8859C19.4792 38.9127 19.4701 38.9384 19.4548 38.9604C19.4394 38.9824 19.4185 39 19.3941 39.0111C19.3697 39.0223 19.3428 39.0267 19.3161 39.024H12.6778C12.6511 39.0267 12.6242 39.0223 12.5998 39.0111C12.5754 39 12.5544 38.9824 12.5391 38.9604C12.5238 38.9384 12.5147 38.9127 12.5127 38.8859C12.5107 38.8592 12.5159 38.8324 12.5278 38.8083L12.8934 37.7957C12.9199 37.7319 12.9639 37.6769 13.0203 37.6371C13.0767 37.5973 13.1433 37.5742 13.2122 37.5707V37.5707Z" fill="#153857"/>
<path d="M8.69638 34.859L9.00579 34.3902C9.53645 33.6722 9.82282 32.803 9.82282 31.9102C9.82282 31.0174 9.53645 30.1481 9.00579 29.4302C8.62195 28.875 8.39224 28.2279 8.34009 27.555C8.36703 26.8672 8.63256 26.2103 9.09109 25.697C9.54962 25.1838 10.1725 24.8461 10.8529 24.7421V24.7421C11.3584 24.6115 11.8778 24.5422 12.3999 24.5358H14.0877L14.1814 28.6613C13.3364 29.0911 12.6608 29.7929 12.2634 30.6536C11.8661 31.5143 11.7701 32.4837 11.9911 33.4056C12.2121 34.3275 12.7371 35.1481 13.4814 35.7351C14.2258 36.3221 15.1462 36.6414 16.0941 36.6414C17.0421 36.6414 17.9625 36.3221 18.7069 35.7351C19.4512 35.1481 19.9762 34.3275 20.1972 33.4056C20.4182 32.4837 20.3222 31.5143 19.9249 30.6536C19.5275 29.7929 18.8519 29.0911 18.0069 28.6613L18.1006 24.5358H19.7883C20.3105 24.5415 20.83 24.6108 21.3354 24.7421V24.7421C22.0158 24.8461 22.6387 25.1838 23.0972 25.697C23.5557 26.2103 23.8213 26.8672 23.8482 27.555C23.7961 28.2279 23.5663 28.875 23.1825 29.4302C22.6518 30.1481 22.3655 31.0174 22.3655 31.9102C22.3655 32.803 22.6518 33.6722 23.1825 34.3902L23.4919 34.859C24.7296 36.8092 25.1702 37.4562 25.1702 39.4439C25.1702 39.4908 25.1702 39.5283 25.1702 39.5658C25.0952 43.5788 21.4198 45.5946 16.8255 45.5946H15.3066C10.7498 45.5946 7.0368 43.5788 6.96179 39.5658C6.96179 39.5658 6.96179 39.4908 6.96179 39.4439C6.96179 37.4562 7.40247 36.8092 8.69638 34.859ZM12.7469 39.022H19.3852C19.4119 39.0247 19.4388 39.0203 19.4632 39.0091C19.4876 38.998 19.5085 38.9804 19.5238 38.9584C19.5392 38.9364 19.5483 38.9107 19.5503 38.8839C19.5523 38.8572 19.5471 38.8304 19.5352 38.8063L19.1695 37.7937C19.1431 37.7299 19.0991 37.6749 19.0426 37.6351C18.9862 37.5953 18.9197 37.5722 18.8507 37.5687H13.2813C13.2123 37.5722 13.1458 37.5953 13.0894 37.6351C13.033 37.6749 12.989 37.7299 12.9625 37.7937L12.5968 38.8063C12.585 38.8304 12.5798 38.8572 12.5818 38.8839C12.5837 38.9107 12.5929 38.9364 12.6082 38.9584C12.6235 38.9804 12.6445 38.998 12.6689 39.0091C12.6932 39.0203 12.7202 39.0247 12.7469 39.022Z" fill="white"/>
<path d="M14.08 8.84035L13.9113 5.64309C13.7519 4.20854 13.5737 2.83025 13.5737 2.83025C13.9113 2.52084 14.3613 2.20205 14.8489 1.67699H17.4461C17.943 2.20205 18.3837 2.52084 18.7681 2.86776C18.7681 2.86776 18.59 4.20854 18.4306 5.68059L18.2243 8.87786C17.4899 9.08325 16.7912 9.39942 16.1522 9.81547C15.5154 9.38628 14.8166 9.05741 14.08 8.84035V8.84035Z" fill="white"/>
<path d="M7.01805 38.7331C7.28058 42.418 10.8998 44.2744 15.3347 44.2744H16.8536C21.2885 44.2744 24.9077 42.3992 25.1702 38.7331C25.1702 38.9582 25.1702 39.1926 25.1702 39.4457C25.1702 39.4926 25.1702 39.5301 25.1702 39.5676C25.0952 43.5806 21.4198 45.5965 16.8255 45.5965H15.3066C10.7498 45.5965 7.0368 43.5806 6.9618 39.5676C6.9618 39.5676 6.9618 39.4926 6.9618 39.4457C6.98992 39.1926 6.9993 38.9582 7.01805 38.7331Z" fill="#E9E6ED"/>
</svg>
