<?xml version="1.0" encoding="UTF-8"?>
<svg width="1600px" height="180px" viewBox="0 0 1600 180" version="1.1" xmlns="http://www.w3.org/2000/svg" xmlns:xlink="http://www.w3.org/1999/xlink">
    <!-- Generator: Sketch 49 (51002) - http://www.bohemiancoding.com/sketch -->
    <title>Artboard Copy 11</title>
    <desc>Created with Sketch.</desc>
    <defs></defs>
    <g id="Artboard-Copy-11" stroke="none" stroke-width="1" fill="none" fill-rule="evenodd">
        <path d="M977.521376,3.93478261 L941.50172,3.93478261 C936.784275,3.93478261 932.925799,7.57481834 932.925799,12.0270475 L932.925799,85.0020685 C932.925799,89.4524433 930.911057,89.9883426 928.448157,86.1869808 L879.581327,10.8421352 C877.120393,7.03891904 871.247174,3.93478261 866.52973,3.93478261 L832.165111,3.93478261 C827.4457,3.93478261 823.587224,7.57481834 823.587224,12.0270475 L823.587224,166.636777 C823.587224,171.083443 827.4457,174.723479 832.165111,174.723479 L868.416708,174.723479 C873.134152,174.723479 876.992629,171.083443 876.992629,166.636777 L876.992629,93.6636104 C876.992629,89.2113813 879.009337,88.675482 881.47027,92.4694265 L930.337101,167.823544 C932.798034,171.619343 938.671253,174.723479 943.388698,174.723479 L977.521376,174.723479 C982.238821,174.723479 986.097297,171.083443 986.097297,166.636777 L986.097297,12.0270475 C986.097297,7.57481834 982.238821,3.93478261 977.521376,3.93478261" id="Fill-10" fill="#0C0C0C"></path>
        <path d="M1139.10369,106.133359 C1136.76855,111.067712 1133.51941,115.427225 1129.44079,119.100639 C1125.34251,122.740675 1120.56216,125.650107 1115.22359,127.669465 C1104.62506,131.739703 1091.71499,131.698908 1081.16167,127.669465 C1075.83292,125.650107 1071.09779,122.761072 1067.08993,119.113619 C1063.0801,115.473584 1059.85061,111.08811 1057.49386,106.133359 C1055.17248,101.226821 1053.98722,95.7472972 1053.98722,89.887637 C1053.98722,84.0075793 1055.17248,78.5299096 1057.50565,73.6233714 C1059.85061,68.6686208 1063.0801,64.2905646 1067.08993,60.6431115 C1071.09779,56.9956585 1075.83292,54.1121865 1081.14988,52.087266 C1086.48845,50.082743 1092.22801,49.0498852 1098.19361,49.0498852 C1104.14545,49.0498852 1109.88698,50.082743 1115.22359,52.087266 C1120.56216,54.1121865 1125.34251,57.0160561 1129.43096,60.6635091 C1133.51941,64.3295053 1136.76855,68.6964356 1139.11351,73.6233714 C1141.43686,78.5299096 1142.62211,84.0075793 1142.62211,89.887637 C1142.62211,95.7472972 1141.43686,101.226821 1139.10369,106.133359 M1169.91646,25.9190621 C1161.10467,17.8267972 1150.42555,11.3960056 1138.18575,6.80470225 C1113.68256,-2.30187721 1082.1543,-2.24068456 1058.05209,6.82324548 C1045.88108,11.4164031 1035.28256,17.8471948 1026.57101,25.9394596 C1017.83587,34.005764 1010.90123,43.6389711 1005.95184,54.5349721 C1001.02801,65.4031583 998.525799,77.3097652 998.525799,89.887637 C998.525799,102.472926 1001.02801,114.355427 1005.95184,125.249574 C1010.90123,136.125177 1017.83587,145.750967 1026.57101,153.824689 C1035.3258,161.955894 1045.92432,168.386686 1058.06388,172.939048 C1070.17199,177.485848 1083.67371,179.803751 1098.19361,179.803751 C1112.54447,179.803751 1126.00098,177.485848 1138.18575,172.959446 C1150.39214,168.407083 1161.05749,161.955894 1169.91646,153.843232 C1178.72826,145.750967 1185.70811,136.145575 1190.65553,125.229176 C1195.58133,114.355427 1198.08157,102.472926 1198.08157,89.887637 C1198.08157,77.3097652 1195.58133,65.4031583 1190.65553,54.5071573 C1185.70811,43.6185736 1178.72826,34.005764 1169.91646,25.9190621" id="Fill-12" fill="#0C0C0C"></path>
        <path d="M1322.70053,3.93478261 L1218.53935,3.93478261 C1213.82191,3.93478261 1208.98456,7.45428736 1207.78751,11.760025 L1195.35705,40.025468 C1194.15999,44.3293513 1197.04157,47.8507104 1201.75901,47.8507104 L1227.59095,47.8507104 C1232.3084,47.8507104 1236.16884,51.4907461 1236.16884,55.9429753 L1236.16884,166.636777 C1236.16884,171.083443 1240.02732,174.723479 1244.74476,174.723479 L1280.99832,174.723479 C1285.71577,174.723479 1289.57424,171.083443 1289.57424,166.636777 L1289.57424,55.9429753 C1289.57424,51.4907461 1293.43469,47.8507104 1298.15213,47.8507104 L1322.70053,47.8507104 C1327.41798,47.8507104 1331.27842,44.2106747 1331.27842,39.7565912 L1331.27842,12.0270475 C1331.27842,7.57481834 1327.41798,3.93478261 1322.70053,3.93478261" id="Fill-14" fill="#0C0C0C"></path>
        <path d="M1554.33847,68.1713481 C1550.61955,66.9901444 1546.85542,65.8923853 1543.06967,64.8595275 C1539.55321,63.9138228 1536.40235,62.8197724 1533.70947,61.5551242 C1531.21906,60.4128613 1529.22004,59.0870205 1527.76746,57.6128338 C1526.67459,56.4779883 1526.16156,55.0835375 1526.16156,53.2329233 C1526.16156,50.3438883 1527.35665,48.1298268 1529.9139,46.3218621 C1535.24068,42.5464608 1544.54387,42.1236752 1554.1478,45.6635775 L1558.61562,47.3065075 C1561.96304,49.451959 1566.29719,52.3947694 1568.24314,53.8429955 C1570.18908,55.293076 1573.5365,53.2329233 1575.68097,49.2646724 L1590.0338,22.720041 C1592.17631,18.7592074 1592.16058,14.6407564 1589.99842,13.5689578 C1587.83429,12.5027221 1582.53896,10.1421692 1578.23036,8.33235008 C1578.23036,8.33235008 1572.10751,5.75113268 1562.50161,3.45918966 C1542.44461,-1.36946702 1523.36844,-1.13582234 1508.36893,4.11561994 C1500.4849,6.86928936 1493.67213,10.8319773 1488.10947,15.8887156 C1482.61562,20.9287651 1478.28146,27.0573021 1475.23282,34.1185635 C1472.21562,41.1390297 1470.68638,49.0161932 1470.68638,57.5497869 C1470.68638,66.1668251 1472.17237,73.4802744 1475.12078,79.2546357 C1478.03576,84.9863476 1481.94338,89.8354018 1486.73552,93.6478896 C1491.44903,97.3973303 1496.85444,100.408751 1502.77287,102.606123 C1508.43576,104.753429 1514.22053,106.689342 1520.01906,108.419425 C1524.82102,109.954805 1528.89768,111.369653 1532.29228,112.649136 C1535.30751,113.791399 1537.79793,115.035649 1539.65149,116.324404 C1541.21414,117.436997 1542.32078,118.618201 1542.93404,119.817948 C1543.56107,121.05849 1543.88343,122.601286 1543.88343,124.437066 C1543.88343,127.318684 1542.56648,129.866523 1539.87557,132.267871 C1536.994,134.802731 1535.09522,135.915324 1528.95075,135.915324 C1523.65935,135.915324 1516.99203,133.154238 1510.48196,130.437655 L1504.0564,127.763721 C1501.26721,126.039201 1497.05296,123.283677 1494.69817,121.640747 C1492.33945,119.997817 1488.59891,121.876246 1486.38368,125.805556 L1471.86574,151.571372 C1469.65051,155.508099 1469.75468,159.958474 1472.09965,161.473456 C1474.44068,162.990292 1479.69277,166.059196 1483.76943,168.299218 C1483.76943,168.299218 1504.74043,179.831252 1528.50456,179.831252 C1539.451,179.831252 1549.41267,178.423821 1558.13601,175.640483 C1566.98122,172.792243 1574.55272,168.729421 1580.65002,163.58553 C1586.82594,158.3823 1591.58466,152.040516 1594.80038,144.74561 C1597.97287,137.537857 1599.58269,129.386254 1599.58269,120.555968 C1599.58269,107.260474 1595.82839,96.2624848 1588.41218,87.849422 C1581.13159,79.5884138 1569.66033,72.9721899 1554.33847,68.1713481" id="Fill-16" fill="#0C0C0C"></path>
        <path d="M1448.14152,3.93478261 L1353.04963,3.93478261 C1348.33219,3.93478261 1344.47174,7.57481834 1344.47174,12.0270475 L1344.47174,166.636777 C1344.47174,171.083443 1348.33219,174.723479 1353.04963,174.723479 L1448.14152,174.723479 C1452.85897,174.723479 1456.71941,171.083443 1456.71941,166.636777 L1456.71941,138.907233 C1456.71941,134.455004 1452.85897,130.807551 1448.14152,130.807551 L1406.45504,130.807551 C1401.73759,130.807551 1397.87912,127.173078 1397.87912,122.722704 L1397.87912,118.945448 C1397.87912,114.495073 1401.73759,110.853183 1406.45504,110.853183 L1448.14152,110.853183 C1452.85897,110.853183 1456.71941,107.213147 1456.71941,102.768336 L1456.71941,75.0313746 C1456.71941,70.5847084 1452.85897,66.9391097 1448.14152,66.9391097 L1406.45504,66.9391097 C1401.73759,66.9391097 1397.87912,63.299074 1397.87912,58.8524078 L1397.87912,55.9429753 C1397.87912,51.4907461 1401.73759,47.8507104 1406.45504,47.8507104 L1448.14152,47.8507104 C1452.85897,47.8507104 1456.71941,44.2106747 1456.71941,39.7565912 L1456.71941,12.0270475 C1456.71941,7.57481834 1452.85897,3.93478261 1448.14152,3.93478261" id="Fill-18" fill="#0C0C0C"></path>
        <path d="M89.4907046,68.1713481 C85.76982,66.9901444 82.0076579,65.8923853 78.2219085,64.8595275 C74.703481,63.9138228 71.5545866,62.8197724 68.8617119,61.5551242 C66.3712942,60.4128613 64.372277,59.0870205 62.9216628,57.6128338 C61.8268225,56.4779883 61.3118348,55.0835375 61.3118348,53.2329233 C61.3118348,50.3438883 62.5069208,48.1298268 65.0661345,46.3218621 C70.3929159,42.5464608 79.69611,42.1236752 89.3000412,45.6635775 L93.7678544,47.3065075 C97.0897218,49.4371244 101.41208,52.3688088 103.371786,53.8244523 C105.333456,55.2856587 108.688739,53.2329233 110.831245,49.2646724 L125.184071,22.720041 C127.328542,18.7592074 126.825348,14.420092 124.069574,13.0849795 C121.311835,11.7517214 115.525103,9.18904723 111.208641,7.39406272 C111.208641,7.39406272 107.259746,5.75113268 97.6538495,3.45918966 C77.5948815,-1.36946702 58.52068,-1.13582234 43.5211714,4.11561994 C35.6351763,6.86928936 28.8243655,10.8319773 23.2617119,15.8887156 C17.7658888,20.9287651 13.4337021,27.0573021 10.3830878,34.1185635 C7.36982004,41.1390297 5.8386161,49.0161932 5.8386161,57.5497869 C5.8386161,66.1668251 7.3364048,73.4802744 10.2730141,79.2546357 C13.1880019,84.9863476 17.0956186,89.8354018 21.8877562,93.6478896 C26.6012697,97.3973303 32.0066751,100.408751 37.9251026,102.606123 C43.5880019,104.753429 49.3727684,106.689342 55.1693286,108.419425 C59.9712942,109.954805 64.0479527,111.369653 67.4425473,112.649136 C70.4597463,113.791399 72.9481984,115.035649 74.8037267,116.324404 C76.3683458,117.436997 77.4730141,118.618201 78.0882476,119.817948 C78.713309,121.05849 79.0356677,122.601286 79.0356677,124.437066 C79.0356677,127.318684 77.7187144,129.866523 75.0258397,132.267871 C69.7226456,136.948182 56.2857906,137.309775 43.8907046,132.167738 C37.779648,129.614335 35.3835792,127.91763 35.3835792,127.91763 C31.6115891,125.241842 26.8391075,121.681542 24.777191,119.997817 C22.7152746,118.308529 19.2165031,120.146163 17.0012697,124.073619 L1.50053257,151.571372 C-0.714700849,155.508099 -0.44541338,159.75079 2.09807556,161.009875 C4.64156451,162.270815 10.1609748,164.959583 14.3614662,166.984503 C14.3614662,166.984503 41.0523753,179.831252 63.6567979,179.831252 C74.6032353,179.831252 84.5668716,178.423821 93.2882476,175.640483 C102.133456,172.792243 109.704955,168.729421 115.802252,163.58553 C121.978174,158.3823 126.736896,152.040516 129.952621,144.74561 C133.125103,137.537857 134.732965,129.386254 134.732965,120.555968 C134.732965,107.260474 130.980631,96.2624848 123.564415,87.849422 C116.281859,79.5884138 104.812572,72.9721899 89.4907046,68.1713481" id="Fill-4" fill="#0C0C0C"></path>
        <path d="M280.133661,106.133359 C277.800491,111.067712 274.551351,115.427225 270.472727,119.100639 C266.374447,122.740675 261.594103,125.650107 256.255528,127.669465 C245.66683,131.739703 232.746929,131.698908 222.193612,127.669465 C216.864865,125.650107 212.12973,122.761072 208.121867,119.113619 C204.112039,115.473584 200.882555,111.08811 198.525799,106.133359 C196.204423,101.226821 195.019165,95.7472972 195.019165,89.887637 C195.019165,84.0075793 196.204423,78.5299096 198.537592,73.6233714 C200.882555,68.6686208 204.112039,64.2905646 208.121867,60.6431115 C212.12973,56.9956585 216.864865,54.1121865 222.181818,52.087266 C227.520393,50.082743 233.259951,49.0498852 239.225553,49.0498852 C245.177396,49.0498852 250.918919,50.082743 256.255528,52.087266 C261.594103,54.1121865 266.374447,57.0160561 270.462899,60.6635091 C274.551351,64.3295053 277.800491,68.6964356 280.145455,73.6233714 C282.46683,78.5299096 283.652088,84.0075793 283.652088,89.887637 C283.652088,95.7472972 282.46683,101.226821 280.133661,106.133359 M310.948403,25.9190621 C302.136609,17.8267972 291.459459,11.3960056 279.21769,6.80470225 C254.704668,-2.30187721 223.176413,-2.24068456 199.085995,6.82324548 C186.913022,11.4164031 176.314496,17.8471948 167.602948,25.9394596 C158.867813,34.005764 151.93317,43.6389711 146.985749,54.5349721 C142.059951,65.4031583 139.55774,77.3097652 139.55774,89.887637 C139.55774,102.472926 142.059951,114.355427 146.985749,125.249574 C151.93317,136.125177 158.867813,145.750967 167.602948,153.824689 C176.35774,161.955894 186.956265,168.386686 199.097789,172.939048 C211.201966,177.485848 224.705651,179.803751 239.225553,179.803751 C253.576413,179.803751 267.032924,177.485848 279.21769,172.959446 C291.424079,168.407083 302.089435,161.955894 310.948403,153.843232 C319.760197,145.750967 326.740049,136.145575 331.687469,125.229176 C336.613268,114.355427 339.115479,102.472926 339.115479,89.887637 C339.115479,77.3097652 336.613268,65.4031583 331.687469,54.5071573 C326.740049,43.6185736 319.760197,34.005764 310.948403,25.9190621" id="Fill-6" fill="#0C0C0C"></path>
        <path d="M516.888452,3.93478261 L480.868796,3.93478261 C476.151351,3.93478261 472.292875,7.57481834 472.292875,12.0270475 L472.292875,86.5151959 C472.292875,90.9692794 470.083538,91.6257096 467.380835,87.9782566 L410.071744,10.5658411 C407.371007,6.91838806 401.299263,3.93478261 396.581818,3.93478261 L362.384275,3.93478261 C357.66683,3.93478261 353.808354,7.57481834 353.808354,12.0270475 L353.808354,166.636777 C353.808354,171.083443 357.66683,174.723479 362.384275,174.723479 L398.637838,174.723479 C403.355283,174.723479 407.213759,171.083443 407.213759,166.636777 L407.213759,92.1412114 C407.213759,87.6963996 409.425061,87.0381149 412.127764,90.685568 L469.434889,168.092421 C472.135627,171.739874 478.207371,174.723479 482.924816,174.723479 L516.888452,174.723479 C521.605897,174.723479 525.464373,171.083443 525.464373,166.636777 L525.464373,12.0270475 C525.464373,7.57481834 521.605897,3.93478261 516.888452,3.93478261" id="Fill-8" fill="#0C0C0C"></path>
        <path d="M730.101229,76.1313431 L649.922359,76.1313431 C645.20688,76.1313431 641.344472,79.7713788 641.344472,84.2236079 L641.344472,106.282632 C641.344472,110.733007 645.20688,114.36748 649.922359,114.36748 L664.786241,114.36748 C669.503686,114.36748 672.448157,114.259929 672.448157,116.245909 C672.448157,118.222617 674.150369,124.123072 668.581818,127.375555 C661.269779,131.644206 633.727764,131.699836 623.174447,127.670392 C617.847666,125.651034 613.112531,122.760145 609.100737,119.114546 C605.090909,115.474511 601.865356,111.089037 599.510565,106.134287 C597.185258,101.225894 596.001966,95.7482244 596.001966,89.8885642 C596.001966,84.0085065 597.185258,78.5308368 599.520393,73.6224443 C601.865356,68.669548 605.090909,64.2896374 609.100737,60.6421844 C613.112531,56.9965857 617.847666,54.1131137 623.162654,52.0881931 C633.82801,48.0847101 646.549386,48.0847101 657.238329,52.0881931 C662.576904,54.1131137 665.004423,55.9433303 665.004423,55.9433303 C668.687961,58.7248146 672.560197,61.9105412 673.609828,63.0101546 C674.661425,64.1227484 678.455037,62.6596876 682.04226,59.772507 L707.262899,39.4361484 C710.850123,36.5396961 714.394103,33.3873473 715.141032,32.4305167 C715.887961,31.4644145 715.813268,29.9828106 714.979853,29.1298221 C714.142506,28.2786879 713.024079,27.073378 712.489435,26.4429083 L711.929238,25.9199892 C703.117445,17.8277244 692.440295,11.3969328 680.200491,6.80377509 C655.685504,-2.30095005 624.169042,-2.24161172 600.06683,6.82417264 C587.891892,11.4173303 577.295332,17.8462676 568.583784,25.9403868 C559.850614,34.0048368 552.914005,43.6398983 547.966585,54.5358993 C543.040786,65.4040854 540.540541,77.3106924 540.540541,89.8885642 C540.540541,102.473853 543.040786,114.3545 547.966585,125.248646 C552.914005,136.126104 559.850614,145.751894 568.583784,153.823761 C577.338575,161.956821 587.937101,168.387613 600.078624,172.939975 C612.184767,177.484921 625.688452,179.804679 640.206388,179.804679 C654.557248,179.804679 668.015725,177.484921 680.200491,172.960373 C692.40688,168.40801 703.074201,161.956821 711.929238,153.844159 C720.741032,145.751894 727.72285,136.144647 732.668305,125.230103 C737.594103,114.3545 740.094349,102.473853 740.094349,89.8885642 L740.094349,87.3203271 C739.732678,84.6185787 739.26683,80.9989405 739.058477,79.267003 C738.848157,77.5461914 734.818673,76.1313431 730.101229,76.1313431" id="Fill-20" fill="#0C0C0C"></path>
    </g>
</svg>