<svg width="306" height="27" viewBox="0 0 306 27" fill="none" xmlns="http://www.w3.org/2000/svg">
<path fill-rule="evenodd" clip-rule="evenodd" d="M132.967 0.533203H128.068C127.426 0.533203 126.901 1.02658 126.901 1.63004V11.5212C126.901 12.1244 126.627 12.1971 126.292 11.6818L119.645 1.46944C119.31 0.953943 118.511 0.533203 117.87 0.533203H113.195C112.553 0.533203 112.028 1.02658 112.028 1.63004V22.5861C112.028 23.1888 112.553 23.6822 113.195 23.6822H118.126C118.768 23.6822 119.293 23.1888 119.293 22.5861V12.6952C119.293 12.0917 119.567 12.0191 119.902 12.5333L126.549 22.747C126.884 23.2615 127.683 23.6822 128.324 23.6822H132.967C133.609 23.6822 134.134 23.1888 134.134 22.5861V1.63004C134.134 1.02658 133.609 0.533203 132.967 0.533203" fill="white"/>
<path fill-rule="evenodd" clip-rule="evenodd" d="M154.946 14.3853C154.628 15.0541 154.186 15.645 153.632 16.1429C153.074 16.6363 152.424 17.0306 151.698 17.3043C150.256 17.856 148.5 17.8505 147.064 17.3043C146.34 17.0306 145.695 16.639 145.15 16.1446C144.605 15.6513 144.166 15.0569 143.845 14.3853C143.529 13.7202 143.368 12.9775 143.368 12.1833C143.368 11.3863 143.529 10.6439 143.847 9.97882C144.166 9.30724 144.605 8.71383 145.15 8.21945C145.695 7.72507 146.34 7.33424 147.063 7.05977C147.789 6.78808 148.57 6.64808 149.381 6.64808C150.191 6.64808 150.972 6.78808 151.698 7.05977C152.424 7.33424 153.074 7.72783 153.63 8.22221C154.186 8.71911 154.628 9.31101 154.947 9.97882C155.263 10.6439 155.425 11.3863 155.425 12.1833C155.425 12.9775 155.263 13.7202 154.946 14.3853M159.138 3.51312C157.939 2.41628 156.486 1.54464 154.821 0.922322C151.488 -0.312001 147.2 -0.303706 143.921 0.924835C142.266 1.5474 140.824 2.41904 139.639 3.51588C138.451 4.6092 137.508 5.9149 136.834 7.39177C136.165 8.86486 135.824 10.4787 135.824 12.1835C135.824 13.8894 136.165 15.4999 136.834 16.9766C137.508 18.4507 138.451 19.7553 139.639 20.8497C140.83 21.9518 142.272 22.8234 143.923 23.4405C145.57 24.0568 147.406 24.3709 149.382 24.3709C151.334 24.3709 153.164 24.0568 154.821 23.4432C156.482 22.8262 157.933 21.9518 159.138 20.8522C160.336 19.7553 161.286 18.4534 161.959 16.9738C162.629 15.4999 162.969 13.8894 162.969 12.1835C162.969 10.4787 162.629 8.86486 161.959 7.388C161.286 5.91214 160.336 4.6092 159.138 3.51312" fill="white"/>
<path fill-rule="evenodd" clip-rule="evenodd" d="M179.92 0.533203L164.06 0.533203C163.418 0.533203 162.598 0.971476 162.598 1.59385L162.598 5.425C162.598 6.07241 162.827 6.48565 163.468 6.48565H166.982C167.624 6.48565 168.149 6.97902 168.149 7.58249V22.5861C168.149 23.1888 168.674 23.6822 169.316 23.6822H174.247C174.889 23.6822 175.414 23.1888 175.414 22.5861V7.58249C175.414 6.97902 175.939 6.48565 176.58 6.48565H179.92C180.561 6.48565 181.086 5.99227 181.086 5.38856V1.63004C181.086 1.02658 180.561 0.533203 179.92 0.533203Z" fill="white"/>
<path fill-rule="evenodd" clip-rule="evenodd" d="M211.429 9.24007C210.923 9.07996 210.411 8.93117 209.896 8.79118C209.417 8.66299 208.989 8.5147 208.622 8.34329C208.284 8.18847 208.012 8.00876 207.814 7.80895C207.666 7.65513 207.596 7.46612 207.596 7.21529C207.596 6.8237 207.758 6.5236 208.106 6.27855C208.831 5.76682 210.096 5.70952 211.403 6.18932L212.01 6.41201C212.466 6.70281 213.055 7.10168 213.32 7.29798C213.585 7.49452 214.04 7.21529 214.332 6.67742L216.284 3.07951C216.575 2.54266 216.573 1.98443 216.279 1.83916C215.985 1.69464 215.265 1.37469 214.678 1.12938C214.678 1.12938 213.846 0.779519 212.539 0.468865C209.811 -0.18562 207.216 -0.153951 205.176 0.557839C204.103 0.931076 203.176 1.46819 202.42 2.15359C201.672 2.83672 201.083 3.6674 200.668 4.62449C200.258 5.57606 200.05 6.64374 200.05 7.8004C200.05 8.96837 200.252 9.95965 200.653 10.7423C201.049 11.5192 201.581 12.1765 202.233 12.6932C202.874 13.2014 203.609 13.6096 204.414 13.9074C205.185 14.1985 205.971 14.4609 206.76 14.6954C207.413 14.9035 207.968 15.0952 208.43 15.2687C208.84 15.4235 209.179 15.5921 209.431 15.7668C209.643 15.9176 209.794 16.0777 209.877 16.2403C209.963 16.4085 210.006 16.6176 210.006 16.8664C210.006 17.257 209.827 17.6023 209.461 17.9278C209.069 18.2714 208.811 18.4222 207.975 18.4222C207.255 18.4222 206.348 18.048 205.463 17.6798L204.589 17.3173C204.21 17.0836 203.636 16.7101 203.316 16.4874C202.995 16.2647 202.486 16.5193 202.185 17.0519L200.21 20.5443C199.909 21.0778 199.923 21.6811 200.242 21.8864C200.56 22.092 201.275 22.508 201.829 22.8116C201.829 22.8116 204.682 24.3746 207.914 24.3746C209.403 24.3746 210.759 24.1839 211.945 23.8066C213.148 23.4206 214.178 22.8699 215.008 22.1727C215.848 21.4674 216.495 20.6078 216.932 19.6191C217.364 18.6421 217.583 17.5372 217.583 16.3404C217.583 14.5383 217.072 13.0476 216.063 11.9073C215.073 10.7876 213.513 9.89078 211.429 9.24007" fill="white"/>
<path fill-rule="evenodd" clip-rule="evenodd" d="M196.983 0.533203H184.048C183.406 0.533203 182.881 1.02658 182.881 1.63004V22.5861C182.881 23.1888 183.406 23.6822 184.048 23.6822H196.983C197.624 23.6822 198.149 23.1888 198.149 22.5861V18.8276C198.149 18.2241 197.624 17.7298 196.983 17.7298H191.312C190.67 17.7298 190.146 17.2371 190.146 16.6339V16.122C190.146 15.5187 190.67 15.0251 191.312 15.0251H196.983C197.624 15.0251 198.149 14.5317 198.149 13.9293V10.1698C198.149 9.56705 197.624 9.07292 196.983 9.07292H191.312C190.67 9.07292 190.146 8.57955 190.146 7.97684V7.58249C190.146 6.97902 190.67 6.48565 191.312 6.48565H196.983C197.624 6.48565 198.149 5.99227 198.149 5.38856V1.63004C198.149 1.02658 197.624 0.533203 196.983 0.533203" fill="white"/>
<path fill-rule="evenodd" clip-rule="evenodd" d="M12.173 9.24007C11.6668 9.07996 11.1551 8.93117 10.6401 8.79118C10.1615 8.66299 9.73321 8.5147 9.36691 8.34329C9.02815 8.18847 8.75623 8.00876 8.55891 7.80895C8.40999 7.65513 8.33994 7.46612 8.33994 7.21529C8.33994 6.8237 8.5025 6.5236 8.85061 6.27855C9.57519 5.76682 10.8407 5.70952 12.147 6.18932L12.7548 6.41201C13.2066 6.7008 13.7946 7.09816 14.0611 7.29546C14.328 7.49352 14.7844 7.21529 15.0758 6.67742L17.0282 3.07951C17.3199 2.54266 17.2514 1.95453 16.8766 1.77356C16.5014 1.59285 15.7143 1.2455 15.1271 1.0022C15.1271 1.0022 14.59 0.779519 13.2834 0.468865C10.5548 -0.18562 7.96027 -0.153951 5.91996 0.557839C4.84727 0.931076 3.92083 1.46819 3.16417 2.15359C2.4166 2.83672 1.82732 3.6674 1.41236 4.62449C1.00248 5.57606 0.794197 6.64374 0.794197 7.8004C0.794197 8.96837 0.997934 9.95965 1.39739 10.7423C1.7939 11.5192 2.32543 12.1765 2.97728 12.6932C3.61844 13.2014 4.35371 13.6096 5.15876 13.9074C5.92905 14.1985 6.71593 14.4609 7.5044 14.6954C8.15759 14.9035 8.71212 15.0952 9.17387 15.2687C9.58428 15.4235 9.92277 15.5921 10.1752 15.7668C10.388 15.9176 10.5383 16.0777 10.6219 16.2403C10.707 16.4085 10.7508 16.6176 10.7508 16.8664C10.7508 17.257 10.5717 17.6023 10.2054 17.9278C9.48402 18.5622 7.65627 18.6112 5.97023 17.9143C5.13897 17.5682 4.81305 17.3382 4.81305 17.3382C4.29996 16.9755 3.65079 16.4929 3.37032 16.2647C3.08984 16.0357 2.61392 16.2848 2.3126 16.8172L0.20411 20.5443C-0.0972171 21.0778 -0.0605873 21.6529 0.285391 21.8236C0.631368 21.9945 1.38215 22.3589 1.95352 22.6334C1.95352 22.6334 5.58415 24.3746 8.65891 24.3746C10.1479 24.3746 11.5032 24.1839 12.6895 23.8066C13.8927 23.4206 14.9226 22.8699 15.752 22.1727C16.5921 21.4674 17.2394 20.6078 17.6768 19.6191C18.1083 18.6421 18.327 17.5372 18.327 16.3404C18.327 14.5383 17.8166 13.0476 16.8078 11.9073C15.8172 10.7876 14.2571 9.89078 12.173 9.24007" fill="white"/>
<path fill-rule="evenodd" clip-rule="evenodd" d="M38.1047 14.3853C37.7874 15.0541 37.3454 15.645 36.7906 16.1429C36.2332 16.6363 35.5829 17.0306 34.8567 17.3043C33.4164 17.856 31.659 17.8505 30.2235 17.3043C29.4986 17.0306 28.8545 16.639 28.3094 16.1446C27.7639 15.6513 27.3246 15.0569 27.004 14.3853C26.6883 13.7202 26.5271 12.9775 26.5271 12.1833C26.5271 11.3863 26.6883 10.6439 27.0057 9.97882C27.3246 9.30724 27.7639 8.71383 28.3094 8.21945C28.8545 7.72507 29.4986 7.33424 30.2219 7.05977C30.948 6.78808 31.7288 6.64808 32.5402 6.64808C33.3498 6.64808 34.1308 6.78808 34.8567 7.05977C35.5829 7.33424 36.2332 7.72783 36.7893 8.22221C37.3454 8.71911 37.7874 9.31101 38.1064 9.97882C38.4221 10.6439 38.5833 11.3863 38.5833 12.1833C38.5833 12.9775 38.4221 13.7202 38.1047 14.3853M42.2958 3.51312C41.0972 2.41628 39.6448 1.54464 37.9797 0.922322C34.6453 -0.312001 30.3566 -0.303706 27.0797 0.924835C25.4239 1.5474 23.9823 2.41904 22.7973 3.51588C21.6091 4.6092 20.6658 5.9149 19.9928 7.39177C19.3228 8.86486 18.9824 10.4787 18.9824 12.1835C18.9824 13.8894 19.3228 15.4999 19.9928 16.9766C20.6658 18.4507 21.6091 19.7553 22.7973 20.8497C23.9881 21.9518 25.4298 22.8234 27.0814 23.4405C28.7278 24.0568 30.5647 24.3709 32.5397 24.3709C34.4918 24.3709 36.3222 24.0568 37.9797 23.4432C39.64 22.8262 41.0908 21.9518 42.2958 20.8522C43.4944 19.7553 44.4439 18.4534 45.1168 16.9738C45.7869 15.4999 46.1272 13.8894 46.1272 12.1835C46.1272 10.4787 45.7869 8.86486 45.1168 7.388C44.4439 5.91214 43.4944 4.6092 42.2958 3.51312" fill="white"/>
<path fill-rule="evenodd" clip-rule="evenodd" d="M70.3089 0.533203H65.4094C64.7677 0.533203 64.2428 1.02658 64.2428 1.63004V11.7263C64.2428 12.33 63.9423 12.419 63.5747 11.9246L55.7792 1.43199C55.4118 0.937606 54.5859 0.533203 53.9442 0.533203H49.2925C48.6508 0.533203 48.126 1.02658 48.126 1.63004V22.5861C48.126 23.1888 48.6508 23.6822 49.2925 23.6822H54.2239C54.8656 23.6822 55.3904 23.1888 55.3904 22.5861V12.4889C55.3904 11.8864 55.6912 11.7972 56.0589 12.2916L63.8541 22.7834C64.2214 23.2778 65.0473 23.6822 65.689 23.6822H70.3089C70.9506 23.6822 71.4755 23.1888 71.4755 22.5861V1.63004C71.4755 1.02658 70.9506 0.533203 70.3089 0.533203" fill="white"/>
<path fill-rule="evenodd" clip-rule="evenodd" d="M99.3123 10.319H88.406C87.7646 10.319 87.2392 10.8124 87.2392 11.4158V14.4057C87.2392 15.009 87.7646 15.5016 88.406 15.5016H90.4279C91.0695 15.5016 91.4701 15.487 91.4701 15.7562C91.4701 16.0241 91.7016 16.8239 90.9441 17.2647C89.9495 17.8433 86.2031 17.8508 84.7676 17.3047C84.043 17.031 83.3989 16.6391 82.8532 16.145C82.3078 15.6516 81.869 15.0572 81.5487 14.3856C81.2324 13.7203 81.0715 12.9779 81.0715 12.1837C81.0715 11.3867 81.2324 10.6442 81.5501 9.97892C81.869 9.30759 82.3078 8.71393 82.8532 8.21955C83.3989 7.72542 84.043 7.33459 84.766 7.06013C86.2168 6.51749 87.9472 6.51749 89.4011 7.06013C90.1273 7.33459 90.4575 7.58266 90.4575 7.58266C90.9586 7.95967 91.4853 8.39147 91.6281 8.54051C91.7711 8.69131 92.2872 8.49301 92.7751 8.10167L96.2057 5.34525C96.6937 4.95266 97.1758 4.52538 97.2774 4.39569C97.379 4.26474 97.3688 4.06392 97.2554 3.94831C97.1415 3.83294 96.9894 3.66957 96.9167 3.58412L96.8405 3.51324C95.6419 2.4164 94.1895 1.54476 92.5246 0.922196C89.1899 -0.311875 84.9029 -0.303832 81.6244 0.924961C79.9683 1.54753 78.5269 2.41892 77.3419 3.51601C76.154 4.60908 75.2104 5.91503 74.5375 7.39189C73.8674 8.86499 73.5273 10.4788 73.5273 12.1837C73.5273 13.8895 73.8674 15.4998 74.5375 16.9764C75.2104 18.4508 76.154 19.7555 77.3419 20.8495C78.5328 21.9519 79.9745 22.8236 81.626 23.4406C83.2727 24.0566 85.1096 24.3711 87.0844 24.3711C89.0365 24.3711 90.8671 24.0566 92.5246 23.4434C94.1849 22.8263 95.636 21.9519 96.8405 20.8523C98.0391 19.7555 98.9888 18.4533 99.6615 16.9739C100.332 15.4998 100.672 13.8895 100.672 12.1837V11.8356C100.622 11.4694 100.559 10.9787 100.531 10.744C100.502 10.5108 99.954 10.319 99.3123 10.319" fill="white"/>
<path d="M230.835 18.9201C230.935 19.294 230.985 19.8091 230.985 20.4655C230.985 21.1468 230.927 21.6744 230.81 22.0483C230.653 22.5635 230.378 22.9706 229.988 23.2697C229.597 23.5688 229.111 23.7184 228.53 23.7184C228.197 23.7184 227.894 23.6519 227.62 23.5189C227.346 23.386 227.117 23.1949 226.934 22.9457C226.926 22.929 226.914 22.9249 226.897 22.9332C226.88 22.9332 226.872 22.9415 226.872 22.9581V23.494C226.872 23.5771 226.831 23.6187 226.748 23.6187H226.112C226.029 23.6187 225.987 23.5771 225.987 23.494V15.0192C225.987 14.9361 226.029 14.8946 226.112 14.8946H226.748C226.831 14.8946 226.872 14.9361 226.872 15.0192V17.9605C226.872 17.9771 226.876 17.9895 226.885 17.9978C226.901 17.9978 226.918 17.9895 226.934 17.9729C227.117 17.732 227.346 17.545 227.62 17.4121C227.894 17.2791 228.197 17.2127 228.53 17.2127C229.12 17.2127 229.614 17.3664 230.013 17.6738C230.412 17.9729 230.686 18.3883 230.835 18.9201ZM229.876 21.9735C229.959 21.7991 230.017 21.6038 230.05 21.3878C230.083 21.1634 230.1 20.856 230.1 20.4655C230.1 20.0584 230.075 19.7427 230.025 19.5183C229.984 19.2857 229.913 19.078 229.813 18.8952C229.705 18.621 229.531 18.4008 229.29 18.2346C229.049 18.0685 228.762 17.9854 228.43 17.9854C228.114 17.9854 227.84 18.0726 227.607 18.2471C227.383 18.4133 227.221 18.6376 227.121 18.9201C227.038 19.0946 226.976 19.294 226.934 19.5183C226.901 19.7427 226.885 20.0584 226.885 20.4655C226.885 20.8643 226.901 21.1759 226.934 21.4002C226.976 21.6163 227.034 21.8115 227.109 21.986C227.217 22.2768 227.383 22.5094 227.607 22.6839C227.832 22.8584 228.11 22.9457 228.442 22.9457C228.791 22.9457 229.091 22.8584 229.34 22.6839C229.597 22.5094 229.776 22.2726 229.876 21.9735ZM232.395 26.1113C232.336 26.1113 232.307 26.0697 232.307 25.9866V25.4881C232.307 25.405 232.349 25.3635 232.432 25.3635H232.482C232.806 25.3552 233.055 25.3053 233.23 25.2139C233.412 25.1308 233.566 24.9688 233.691 24.7279C233.824 24.4952 233.965 24.1379 234.115 23.656C234.131 23.6228 234.131 23.5979 234.115 23.5813L232.008 17.4495L231.996 17.3996C231.996 17.3415 232.033 17.3124 232.108 17.3124H232.769C232.843 17.3124 232.893 17.3456 232.918 17.4121L234.538 22.4471C234.547 22.4637 234.559 22.4721 234.576 22.4721C234.592 22.4721 234.605 22.4637 234.613 22.4471L236.208 17.4121C236.233 17.3456 236.283 17.3124 236.358 17.3124H237.006C237.097 17.3124 237.131 17.3581 237.106 17.4495L234.8 24.167C234.601 24.7237 234.414 25.135 234.239 25.4009C234.065 25.6667 233.844 25.8495 233.579 25.9492C233.321 26.0572 232.955 26.1113 232.482 26.1113H232.395ZM240.983 23.6187C240.942 23.6187 240.904 23.6062 240.871 23.5813C240.846 23.548 240.834 23.5106 240.834 23.4691V15.0441C240.834 15.0026 240.846 14.9693 240.871 14.9444C240.904 14.9112 240.942 14.8946 240.983 14.8946H244.024C244.614 14.8946 245.133 14.9984 245.582 15.2061C246.031 15.4138 246.376 15.713 246.617 16.1035C246.866 16.4857 246.99 16.9343 246.99 17.4495V21.0637C246.99 21.5789 246.866 22.0317 246.617 22.4222C246.376 22.8044 246.031 23.0994 245.582 23.3071C245.133 23.5148 244.614 23.6187 244.024 23.6187H240.983ZM242.279 22.31C242.279 22.3516 242.3 22.3724 242.342 22.3724H244.087C244.527 22.3724 244.876 22.2353 245.133 21.9611C245.399 21.6786 245.536 21.3047 245.545 20.8394V17.6863C245.545 17.2127 245.412 16.8388 245.146 16.5646C244.88 16.2821 244.523 16.1409 244.074 16.1409H242.342C242.3 16.1409 242.279 16.1616 242.279 16.2032V22.31ZM253.533 23.6187C253.45 23.6187 253.396 23.5771 253.371 23.494L252.96 22.1605C252.943 22.1272 252.922 22.1106 252.897 22.1106H249.607C249.582 22.1106 249.561 22.1272 249.545 22.1605L249.134 23.494C249.109 23.5771 249.055 23.6187 248.972 23.6187H247.725C247.675 23.6187 247.638 23.6062 247.613 23.5813C247.588 23.548 247.584 23.5023 247.601 23.4442L250.305 15.0192C250.33 14.9361 250.384 14.8946 250.467 14.8946H252.025C252.108 14.8946 252.162 14.9361 252.187 15.0192L254.904 23.4442C254.912 23.4608 254.916 23.4816 254.916 23.5065C254.916 23.5813 254.871 23.6187 254.779 23.6187H253.533ZM249.931 20.9017C249.923 20.9516 249.94 20.9765 249.981 20.9765H252.511C252.561 20.9765 252.578 20.9516 252.561 20.9017L251.277 16.7266C251.269 16.6934 251.256 16.6768 251.24 16.6768C251.223 16.6768 251.211 16.6934 251.202 16.7266L249.931 20.9017ZM258.096 23.6187C258.013 23.6187 257.959 23.5771 257.934 23.494L255.317 15.069L255.305 15.0192C255.305 14.9361 255.35 14.8946 255.442 14.8946H256.675C256.767 14.8946 256.825 14.9361 256.85 15.0192L258.719 21.5249C258.728 21.5498 258.74 21.5623 258.757 21.5623C258.773 21.5623 258.786 21.5498 258.794 21.5249L260.651 15.0192C260.676 14.9361 260.734 14.8946 260.826 14.8946H262.035C262.084 14.8946 262.122 14.9112 262.147 14.9444C262.172 14.9776 262.176 15.0192 262.159 15.069L259.505 23.494C259.48 23.5771 259.426 23.6187 259.343 23.6187H258.096ZM263.597 23.6187C263.555 23.6187 263.518 23.6062 263.485 23.5813C263.46 23.548 263.447 23.5106 263.447 23.4691V15.0441C263.447 15.0026 263.46 14.9693 263.485 14.9444C263.518 14.9112 263.555 14.8946 263.597 14.8946H264.743C264.785 14.8946 264.818 14.9112 264.843 14.9444C264.876 14.9693 264.893 15.0026 264.893 15.0441V23.4691C264.893 23.5106 264.876 23.548 264.843 23.5813C264.818 23.6062 264.785 23.6187 264.743 23.6187H263.597ZM266.859 23.6187C266.817 23.6187 266.78 23.6062 266.746 23.5813C266.721 23.548 266.709 23.5106 266.709 23.4691V15.0441C266.709 15.0026 266.721 14.9693 266.746 14.9444C266.78 14.9112 266.817 14.8946 266.859 14.8946H269.9C270.489 14.8946 271.009 14.9984 271.457 15.2061C271.906 15.4138 272.251 15.713 272.492 16.1035C272.741 16.4857 272.866 16.9343 272.866 17.4495V21.0637C272.866 21.5789 272.741 22.0317 272.492 22.4222C272.251 22.8044 271.906 23.0994 271.457 23.3071C271.009 23.5148 270.489 23.6187 269.9 23.6187H266.859ZM268.155 22.31C268.155 22.3516 268.176 22.3724 268.217 22.3724H269.962C270.402 22.3724 270.751 22.2353 271.009 21.9611C271.275 21.6786 271.412 21.3047 271.42 20.8394V17.6863C271.42 17.2127 271.287 16.8388 271.021 16.5646C270.755 16.2821 270.398 16.1409 269.949 16.1409H268.217C268.176 16.1409 268.155 16.1616 268.155 16.2032V22.31ZM280.41 14.8821C280.934 14.8821 281.395 14.9901 281.794 15.2061C282.193 15.4222 282.5 15.7296 282.716 16.1284C282.94 16.5189 283.052 16.9717 283.052 17.4869C283.052 17.9937 282.94 18.4424 282.716 18.8329C282.492 19.2234 282.172 19.5266 281.756 19.7427C281.349 19.9504 280.876 20.0542 280.336 20.0542H278.341C278.3 20.0542 278.279 20.075 278.279 20.1166V23.4691C278.279 23.5106 278.263 23.548 278.229 23.5813C278.204 23.6062 278.171 23.6187 278.13 23.6187H276.983C276.941 23.6187 276.904 23.6062 276.871 23.5813C276.846 23.548 276.833 23.5106 276.833 23.4691V15.0316C276.833 14.9901 276.846 14.9569 276.871 14.9319C276.904 14.8987 276.941 14.8821 276.983 14.8821H280.41ZM280.198 18.8827C280.622 18.8827 280.963 18.7581 281.22 18.5088C281.478 18.2596 281.607 17.9314 281.607 17.5242C281.607 17.1088 281.478 16.7723 281.22 16.5147C280.963 16.2572 280.622 16.1284 280.198 16.1284H278.341C278.3 16.1284 278.279 16.1492 278.279 16.1907V18.8204C278.279 18.8619 278.3 18.8827 278.341 18.8827H280.198ZM287.274 23.7433C286.651 23.7433 286.098 23.6187 285.616 23.3694C285.135 23.1118 284.761 22.7504 284.495 22.2851C284.237 21.8198 284.108 21.2839 284.108 20.6774V17.8358C284.108 17.2376 284.241 16.71 284.507 16.253C284.773 15.7877 285.143 15.4305 285.616 15.1812C286.098 14.9236 286.651 14.7949 287.274 14.7949C287.906 14.7949 288.458 14.9236 288.932 15.1812C289.414 15.4305 289.787 15.7877 290.053 16.253C290.319 16.71 290.452 17.2376 290.452 17.8358V20.6774C290.452 21.2839 290.319 21.8198 290.053 22.2851C289.787 22.7504 289.414 23.1118 288.932 23.3694C288.458 23.6187 287.906 23.7433 287.274 23.7433ZM287.274 22.497C287.797 22.497 288.217 22.335 288.533 22.0109C288.849 21.6869 289.006 21.259 289.006 20.7272V17.8234C289.006 17.2833 288.849 16.8512 288.533 16.5272C288.217 16.2032 287.797 16.0412 287.274 16.0412C286.759 16.0412 286.343 16.2032 286.028 16.5272C285.712 16.8512 285.554 17.2833 285.554 17.8234V20.7272C285.554 21.259 285.712 21.6869 286.028 22.0109C286.343 22.335 286.759 22.497 287.274 22.497ZM297.697 14.8946C297.738 14.8946 297.771 14.9112 297.796 14.9444C297.83 14.9693 297.846 15.0026 297.846 15.0441V16.0038C297.846 16.0453 297.83 16.0827 297.796 16.1159C297.771 16.1409 297.738 16.1533 297.697 16.1533H295.403C295.362 16.1533 295.341 16.1741 295.341 16.2156V23.4691C295.341 23.5106 295.324 23.548 295.291 23.5813C295.266 23.6062 295.233 23.6187 295.192 23.6187H294.045C294.003 23.6187 293.966 23.6062 293.933 23.5813C293.908 23.548 293.895 23.5106 293.895 23.4691V16.2156C293.895 16.1741 293.875 16.1533 293.833 16.1533H291.627C291.586 16.1533 291.548 16.1409 291.515 16.1159C291.49 16.0827 291.478 16.0453 291.478 16.0038V15.0441C291.478 15.0026 291.49 14.9693 291.515 14.9444C291.548 14.9112 291.586 14.8946 291.627 14.8946H297.697ZM301.937 23.7184C301.289 23.7184 300.724 23.6145 300.242 23.4068C299.76 23.1991 299.386 22.9083 299.12 22.5344C298.863 22.1605 298.734 21.7201 298.734 21.2133V20.9017C298.734 20.8602 298.746 20.8269 298.771 20.802C298.804 20.7688 298.842 20.7522 298.883 20.7522H299.993C300.034 20.7522 300.067 20.7688 300.092 20.802C300.125 20.8269 300.142 20.8602 300.142 20.9017V21.1385C300.142 21.5207 300.312 21.8406 300.653 22.0982C300.994 22.3474 301.459 22.4721 302.049 22.4721C302.556 22.4721 302.938 22.364 303.196 22.148C303.453 21.932 303.582 21.6537 303.582 21.313C303.582 21.0804 303.511 20.8851 303.37 20.7272C303.229 20.5611 303.025 20.4115 302.759 20.2786C302.502 20.1456 302.111 19.9795 301.588 19.78C300.998 19.564 300.52 19.3605 300.155 19.1694C299.789 18.9783 299.482 18.7207 299.232 18.3967C298.991 18.0643 298.871 17.653 298.871 17.1628C298.871 16.4317 299.137 15.8542 299.668 15.4305C300.2 15.0067 300.911 14.7949 301.8 14.7949C302.423 14.7949 302.971 14.9029 303.445 15.1189C303.927 15.3349 304.301 15.6382 304.566 16.0287C304.832 16.4109 304.965 16.8554 304.965 17.3622V17.5741C304.965 17.6156 304.949 17.653 304.915 17.6863C304.89 17.7112 304.857 17.7237 304.816 17.7237H303.694C303.652 17.7237 303.615 17.7112 303.582 17.6863C303.557 17.653 303.544 17.6156 303.544 17.5741V17.437C303.544 17.0465 303.382 16.7183 303.058 16.4524C302.743 16.1782 302.302 16.0412 301.737 16.0412C301.28 16.0412 300.923 16.1367 300.666 16.3278C300.416 16.5189 300.292 16.7889 300.292 17.1379C300.292 17.3872 300.358 17.5907 300.491 17.7486C300.624 17.9064 300.823 18.0518 301.089 18.1848C301.355 18.3094 301.766 18.4714 302.323 18.6708C302.913 18.8952 303.382 19.0987 303.731 19.2815C304.089 19.4643 304.392 19.7219 304.641 20.0542C304.899 20.3783 305.028 20.7854 305.028 21.2756C305.028 22.0234 304.749 22.6175 304.193 23.0578C303.644 23.4982 302.892 23.7184 301.937 23.7184Z" fill="white"/>
</svg>
