<svg width="160" height="39" viewBox="0 0 160 39" fill="none" xmlns="http://www.w3.org/2000/svg">
<path fill-rule="evenodd" clip-rule="evenodd" d="M97.3356 0.390137H93.749C93.2793 0.390137 92.8951 0.751302 92.8951 1.19305V8.43365C92.8951 8.87522 92.6945 8.92839 92.4492 8.55122L87.5834 1.07549C87.3383 0.69813 86.7535 0.390137 86.2838 0.390137H82.8619C82.392 0.390137 82.0078 0.751302 82.0078 1.19305V16.5335C82.0078 16.9747 82.392 17.3358 82.8619 17.3358H86.4717C86.9414 17.3358 87.3256 16.9747 87.3256 16.5335V9.29305C87.3256 8.8513 87.5264 8.79813 87.7715 9.17456L92.6373 16.6512C92.8824 17.0278 93.4672 17.3358 93.9369 17.3358H97.3356C97.8054 17.3358 98.1896 16.9747 98.1896 16.5335V1.19305C98.1896 0.751302 97.8054 0.390137 97.3356 0.390137" fill="white"/>
<path fill-rule="evenodd" clip-rule="evenodd" d="M113.425 10.5304C113.192 11.02 112.869 11.4525 112.463 11.817C112.054 12.1782 111.578 12.4669 111.047 12.6672C109.992 13.0711 108.706 13.067 107.655 12.6672C107.125 12.4669 106.653 12.1802 106.254 11.8183C105.855 11.4571 105.533 11.022 105.298 10.5304C105.067 10.0436 104.949 9.49989 104.949 8.9185C104.949 8.33507 105.067 7.79158 105.3 7.30475C105.533 6.81314 105.855 6.37875 106.254 6.01685C106.653 5.65495 107.125 5.36885 107.654 5.16794C108.186 4.96905 108.757 4.86657 109.351 4.86657C109.944 4.86657 110.515 4.96905 111.047 5.16794C111.578 5.36885 112.054 5.65697 112.462 6.01887C112.869 6.38261 113.192 6.8159 113.426 7.30475C113.657 7.79158 113.775 8.33507 113.775 8.9185C113.775 9.49989 113.657 10.0436 113.425 10.5304M116.493 2.57169C115.615 1.76878 114.552 1.13071 113.333 0.675164C110.893 -0.228393 107.754 -0.222321 105.354 0.677004C104.142 1.13274 103.087 1.7708 102.219 2.57372C101.35 3.37406 100.659 4.32987 100.166 5.41097C99.6759 6.48931 99.4268 7.67069 99.4268 8.91867C99.4268 10.1674 99.6759 11.3464 100.166 12.4273C100.659 13.5064 101.35 14.4614 102.219 15.2625C103.091 16.0693 104.146 16.7074 105.355 17.159C106.561 17.6102 107.905 17.8402 109.351 17.8402C110.78 17.8402 112.12 17.6102 113.333 17.1611C114.549 16.7094 115.611 16.0693 116.493 15.2644C117.37 14.4614 118.065 13.5084 118.558 12.4253C119.048 11.3464 119.297 10.1674 119.297 8.91867C119.297 7.67069 119.048 6.48932 118.558 5.40821C118.065 4.32784 117.37 3.37406 116.493 2.57169" fill="white"/>
<path fill-rule="evenodd" clip-rule="evenodd" d="M131.705 0.390137L120.096 0.390137C119.626 0.390137 119.025 0.710964 119.025 1.16656L119.025 3.97106C119.025 4.44498 119.193 4.74748 119.663 4.74748H122.235C122.705 4.74748 123.089 5.10865 123.089 5.5504V16.5335C123.089 16.9747 123.473 17.3358 123.943 17.3358H127.553C128.023 17.3358 128.407 16.9747 128.407 16.5335V5.5504C128.407 5.10865 128.791 4.74748 129.261 4.74748H131.705C132.175 4.74748 132.56 4.38632 132.56 3.94438V1.19305C132.56 0.751302 132.175 0.390137 131.705 0.390137Z" fill="white"/>
<path fill-rule="evenodd" clip-rule="evenodd" d="M154.771 6.76398C154.401 6.64678 154.026 6.53786 153.649 6.43538C153.299 6.34154 152.985 6.23299 152.717 6.10751C152.469 5.99418 152.27 5.86263 152.126 5.71636C152.017 5.60376 151.966 5.4654 151.966 5.28178C151.966 4.99513 152.085 4.77545 152.339 4.59606C152.87 4.22147 153.796 4.17952 154.752 4.53075L155.197 4.69376C155.531 4.90663 155.962 5.19862 156.156 5.34231C156.35 5.48619 156.683 5.28178 156.897 4.88805L158.326 2.25429C158.539 1.86129 158.537 1.45266 158.322 1.34631C158.107 1.24052 157.579 1.00631 157.15 0.826738C157.15 0.826738 156.541 0.570629 155.584 0.343222C153.587 -0.135879 151.688 -0.112696 150.194 0.408353C149.409 0.681572 148.731 1.07475 148.177 1.57648C147.63 2.07656 147.198 2.68463 146.895 3.38525C146.594 4.08182 146.442 4.8634 146.442 5.7101C146.442 6.56509 146.59 7.29073 146.883 7.86366C147.174 8.43236 147.563 8.91349 148.04 9.29176C148.509 9.66378 149.047 9.96258 149.637 10.1806C150.201 10.3937 150.777 10.5857 151.354 10.7574C151.832 10.9097 152.238 11.0501 152.576 11.1771C152.876 11.2904 153.124 11.4139 153.309 11.5417C153.465 11.6521 153.575 11.7693 153.636 11.8884C153.698 12.0114 153.73 12.1645 153.73 12.3467C153.73 12.6326 153.599 12.8854 153.331 13.1236C153.044 13.3752 152.855 13.4855 152.243 13.4855C151.717 13.4855 151.053 13.2116 150.404 12.9421L149.765 12.6767C149.487 12.5056 149.067 12.2322 148.833 12.0692C148.598 11.9062 148.225 12.0926 148.005 12.4825L146.559 15.0389C146.339 15.4295 146.349 15.8711 146.583 16.0214C146.816 16.1719 147.339 16.4764 147.745 16.6987C147.745 16.6987 149.833 17.8429 152.199 17.8429C153.289 17.8429 154.281 17.7032 155.15 17.4271C156.03 17.1445 156.784 16.7414 157.391 16.231C158.006 15.7147 158.48 15.0855 158.8 14.3617C159.116 13.6465 159.277 12.8377 159.277 11.9616C159.277 10.6424 158.903 9.55118 158.164 8.71644C157.439 7.89678 156.297 7.24032 154.771 6.76398" fill="white"/>
<path fill-rule="evenodd" clip-rule="evenodd" d="M144.197 0.390137H134.728C134.258 0.390137 133.874 0.751302 133.874 1.19305V16.5335C133.874 16.9747 134.258 17.3358 134.728 17.3358H144.197C144.667 17.3358 145.051 16.9747 145.051 16.5335V13.7821C145.051 13.3404 144.667 12.9785 144.197 12.9785H140.046C139.576 12.9785 139.192 12.6179 139.192 12.1763V11.8015C139.192 11.36 139.576 10.9986 140.046 10.9986H144.197C144.667 10.9986 145.051 10.6374 145.051 10.1964V7.44436C145.051 7.00316 144.667 6.64144 144.197 6.64144H140.046C139.576 6.64144 139.192 6.28027 139.192 5.83908V5.5504C139.192 5.10865 139.576 4.74748 140.046 4.74748H144.197C144.667 4.74748 145.051 4.38632 145.051 3.94438V1.19305C145.051 0.751302 144.667 0.390137 144.197 0.390137" fill="white"/>
<path fill-rule="evenodd" clip-rule="evenodd" d="M8.91093 6.76398C8.54043 6.64678 8.16582 6.53786 7.78886 6.43538C7.43851 6.34154 7.12497 6.23299 6.85683 6.10751C6.60885 5.99418 6.4098 5.86263 6.26535 5.71636C6.15633 5.60376 6.10506 5.4654 6.10506 5.28178C6.10506 4.99513 6.22406 4.77545 6.47889 4.59606C7.00929 4.22147 7.93565 4.17952 8.89195 4.53075L9.33683 4.69376C9.6676 4.90516 10.098 5.19604 10.2931 5.34047C10.4885 5.48545 10.8226 5.28178 11.0359 4.88805L12.4651 2.25429C12.6786 1.86129 12.6285 1.43076 12.3541 1.29829C12.0795 1.16601 11.5033 0.911739 11.0735 0.73364C11.0735 0.73364 10.6803 0.570629 9.72377 0.343222C7.72642 -0.135879 5.82713 -0.112696 4.33357 0.408353C3.54833 0.681572 2.87015 1.07475 2.31626 1.57648C1.76902 2.07656 1.33765 2.68463 1.03388 3.38525C0.733841 4.08182 0.581374 4.8634 0.581374 5.7101C0.581374 6.56509 0.730514 7.29073 1.02292 7.86366C1.31318 8.43236 1.70228 8.91349 2.17945 9.29176C2.64879 9.66378 3.18703 9.96258 3.77635 10.1806C4.34023 10.3937 4.91624 10.5857 5.49342 10.7574C5.97157 10.9097 6.3775 11.0501 6.71551 11.1771C7.01595 11.2904 7.26373 11.4139 7.4485 11.5417C7.60429 11.6521 7.71429 11.7693 7.77555 11.8884C7.83779 12.0114 7.86989 12.1645 7.86989 12.3467C7.86989 12.6326 7.73875 12.8854 7.47061 13.1236C6.94255 13.588 5.60459 13.6239 4.37037 13.1137C3.76187 12.8604 3.52328 12.692 3.52328 12.692C3.14769 12.4265 2.67247 12.0733 2.46716 11.9062C2.26185 11.7386 1.91346 11.9209 1.69288 12.3106L0.149414 15.0389C-0.0711655 15.4295 -0.0443515 15.8505 0.208913 15.9754C0.462178 16.1005 1.01177 16.3673 1.43003 16.5682C1.43003 16.5682 4.08774 17.8429 6.33855 17.8429C7.42853 17.8429 8.42065 17.7032 9.28907 17.4271C10.1698 17.1445 10.9237 16.7414 11.5309 16.231C12.1458 15.7147 12.6197 15.0855 12.9399 14.3617C13.2558 13.6465 13.4159 12.8377 13.4159 11.9616C13.4159 10.6424 13.0422 9.55118 12.3038 8.71644C11.5786 7.89678 10.4366 7.24032 8.91093 6.76398" fill="white"/>
<path fill-rule="evenodd" clip-rule="evenodd" d="M27.8939 10.5304C27.6616 11.02 27.338 11.4525 26.9319 11.817C26.5238 12.1782 26.0478 12.4669 25.5163 12.6672C24.4619 13.0711 23.1754 13.067 22.1246 12.6672C21.594 12.4669 21.1225 12.1802 20.7234 11.8183C20.3241 11.4571 20.0026 11.022 19.7679 10.5304C19.5367 10.0436 19.4187 9.49989 19.4187 8.9185C19.4187 8.33507 19.5367 7.79158 19.7691 7.30475C20.0026 6.81314 20.3241 6.37875 20.7234 6.01685C21.1225 5.65495 21.594 5.36885 22.1234 5.16794C22.655 4.96905 23.2265 4.86657 23.8205 4.86657C24.4132 4.86657 24.9849 4.96905 25.5163 5.16794C26.0478 5.36885 26.5238 5.65697 26.9309 6.01887C27.338 6.38261 27.6616 6.8159 27.8951 7.30475C28.1262 7.79158 28.2442 8.33507 28.2442 8.9185C28.2442 9.49989 28.1262 10.0436 27.8939 10.5304M30.9615 2.57169C30.0841 1.76878 29.0209 1.13071 27.802 0.675164C25.3611 -0.228393 22.2217 -0.222321 19.823 0.677004C18.6109 1.13274 17.5555 1.7708 16.6881 2.57372C15.8183 3.37406 15.1278 4.32987 14.6351 5.41097C14.1447 6.48931 13.8955 7.67069 13.8955 8.91867C13.8955 10.1674 14.1447 11.3464 14.6351 12.4273C15.1278 13.5064 15.8183 14.4614 16.6881 15.2625C17.5598 16.0693 18.6152 16.7074 19.8241 17.159C21.0294 17.6102 22.374 17.8402 23.8198 17.8402C25.2488 17.8402 26.5887 17.6102 27.802 17.1611C29.0174 16.7094 30.0794 16.0693 30.9615 15.2644C31.839 14.4614 32.534 13.5084 33.0266 12.4253C33.5171 11.3464 33.7662 10.1674 33.7662 8.91867C33.7662 7.67069 33.5171 6.48932 33.0266 5.40821C32.534 4.32784 31.839 3.37406 30.9615 2.57169" fill="white"/>
<path fill-rule="evenodd" clip-rule="evenodd" d="M51.468 0.390137H47.8814C47.4117 0.390137 47.0275 0.751302 47.0275 1.19305V8.58378C47.0275 9.02572 46.8075 9.09085 46.5383 8.72895L40.8319 1.04807C40.5629 0.686171 39.9583 0.390137 39.4886 0.390137H36.0834C35.6137 0.390137 35.2295 0.751302 35.2295 1.19305V16.5335C35.2295 16.9747 35.6137 17.3358 36.0834 17.3358H39.6933C40.1631 17.3358 40.5473 16.9747 40.5473 16.5335V9.142C40.5473 8.70098 40.7675 8.63567 41.0366 8.99757L46.7429 16.6779C47.0118 17.0398 47.6164 17.3358 48.0861 17.3358H51.468C51.9377 17.3358 52.3219 16.9747 52.3219 16.5335V1.19305C52.3219 0.751302 51.9377 0.390137 51.468 0.390137" fill="white"/>
<path fill-rule="evenodd" clip-rule="evenodd" d="M72.6995 7.55377H64.7158C64.2462 7.55377 63.8617 7.91493 63.8617 8.35668V10.5454C63.8617 10.987 64.2462 11.3476 64.7158 11.3476H66.1958C66.6656 11.3476 66.9588 11.3369 66.9588 11.5339C66.9588 11.7301 67.1283 12.3155 66.5738 12.6382C65.8457 13.0618 63.1032 13.0673 62.0524 12.6675C61.522 12.4671 61.0505 12.1803 60.651 11.8186C60.2517 11.4574 59.9306 11.0223 59.6961 10.5307C59.4646 10.0437 59.3467 9.50016 59.3467 8.91876C59.3467 8.33534 59.4646 7.79185 59.6971 7.30483C59.9306 6.81341 60.2517 6.37883 60.651 6.01693C61.0505 5.65521 61.522 5.36911 62.0512 5.1682C63.1132 4.77097 64.3799 4.77097 65.4443 5.1682C65.9759 5.36911 66.2176 5.55071 66.2176 5.55071C66.5844 5.82669 66.9699 6.14278 67.0744 6.25188C67.1792 6.36227 67.5569 6.21711 67.9141 5.93064L70.4254 3.91286C70.7826 3.62548 71.1355 3.3127 71.2099 3.21776C71.2842 3.12191 71.2768 2.9749 71.1938 2.89027C71.1104 2.80582 70.9991 2.68623 70.9458 2.62367L70.8901 2.57179C70.0126 1.76887 68.9495 1.13081 67.7307 0.675072C65.2896 -0.228301 62.1514 -0.222413 59.7515 0.677096C58.5392 1.13283 57.484 1.77071 56.6166 2.57381C55.747 3.37397 55.0563 4.32996 54.5637 5.41106C54.0732 6.48941 53.8242 7.67078 53.8242 8.91876C53.8242 10.1675 54.0732 11.3463 54.5637 12.4272C55.0563 13.5065 55.747 14.4615 56.6166 15.2624C57.4883 16.0694 58.5437 16.7075 59.7527 17.1591C60.9581 17.6101 62.3027 17.8403 63.7483 17.8403C65.1773 17.8403 66.5174 17.6101 67.7307 17.1612C68.9461 16.7095 70.0083 16.0694 70.8901 15.2644C71.7675 14.4615 72.4627 13.5083 72.9551 12.4254C73.4456 11.3463 73.6946 10.1675 73.6946 8.91876V8.66394C73.6585 8.39587 73.6122 8.03673 73.5914 7.86489C73.5705 7.69415 73.1692 7.55377 72.6995 7.55377" fill="white"/>
<path d="M5.43393 31.3254C5.52662 31.6729 5.57297 32.1518 5.57297 32.762C5.57297 33.3954 5.5189 33.8859 5.41076 34.2335C5.264 34.7124 5.0091 35.0909 4.64607 35.3689C4.28303 35.647 3.83117 35.786 3.29048 35.786C2.98152 35.786 2.69959 35.7243 2.44469 35.6007C2.18979 35.4771 1.97738 35.2994 1.80745 35.0677C1.79972 35.0523 1.78814 35.0484 1.77269 35.0561C1.75724 35.0561 1.74952 35.0638 1.74952 35.0793V35.5775C1.74952 35.6547 1.7109 35.6934 1.63366 35.6934H1.04276C0.965517 35.6934 0.926897 35.6547 0.926897 35.5775V27.6989C0.926897 27.6216 0.965517 27.583 1.04276 27.583H1.63366C1.7109 27.583 1.74952 27.6216 1.74952 27.6989V30.4332C1.74952 30.4487 1.75338 30.4603 1.7611 30.468C1.77655 30.468 1.792 30.4603 1.80745 30.4448C1.97738 30.2208 2.18979 30.047 2.44469 29.9234C2.69959 29.7998 2.98152 29.738 3.29048 29.738C3.8389 29.738 4.29848 29.8809 4.66924 30.1667C5.04 30.4448 5.2949 30.831 5.43393 31.3254ZM4.54179 34.164C4.61903 34.0018 4.6731 33.8203 4.704 33.6194C4.7349 33.4109 4.75034 33.1251 4.75034 32.762C4.75034 32.3836 4.72717 32.09 4.68083 31.8815C4.64221 31.6652 4.57655 31.4721 4.48386 31.3022C4.38345 31.0473 4.22124 30.8426 3.99724 30.6881C3.77324 30.5336 3.50676 30.4564 3.19779 30.4564C2.90428 30.4564 2.64938 30.5375 2.4331 30.6997C2.22455 30.8542 2.07393 31.0627 1.98124 31.3254C1.904 31.4876 1.84607 31.6729 1.80745 31.8815C1.77655 32.09 1.7611 32.3836 1.7611 32.762C1.7611 33.1328 1.77655 33.4225 1.80745 33.631C1.84607 33.8318 1.90014 34.0134 1.96966 34.1756C2.07007 34.4459 2.22455 34.6622 2.4331 34.8244C2.64166 34.9866 2.90041 35.0677 3.20938 35.0677C3.53379 35.0677 3.81186 34.9866 4.04359 34.8244C4.28303 34.6622 4.4491 34.442 4.54179 34.164ZM6.88347 38.0106C6.8294 38.0106 6.80237 37.972 6.80237 37.8947V37.4313C6.80237 37.354 6.84099 37.3154 6.91823 37.3154H6.96458C7.26582 37.3077 7.49754 37.2614 7.65975 37.1764C7.82968 37.0992 7.97258 36.9485 8.08844 36.7245C8.21203 36.5083 8.34334 36.1761 8.48237 35.7281C8.49782 35.6972 8.49782 35.674 8.48237 35.6586L6.5243 29.9582L6.51272 29.9118C6.51272 29.8578 6.54747 29.8307 6.61699 29.8307H7.23106C7.30058 29.8307 7.34692 29.8616 7.37009 29.9234L8.8763 34.6043C8.88403 34.6197 8.89561 34.6274 8.91106 34.6274C8.92651 34.6274 8.93809 34.6197 8.94582 34.6043L10.4289 29.9234C10.452 29.8616 10.4984 29.8307 10.5679 29.8307H11.1704C11.2553 29.8307 11.2862 29.8732 11.2631 29.9582L9.11961 36.2032C8.93423 36.7207 8.76044 37.103 8.59823 37.3502C8.43603 37.5974 8.23134 37.7673 7.98416 37.86C7.74472 37.9604 7.40485 38.0106 6.96458 38.0106H6.88347ZM14.8679 35.6934C14.8293 35.6934 14.7945 35.6818 14.7636 35.6586C14.7405 35.6277 14.7289 35.5929 14.7289 35.5543V27.722C14.7289 27.6834 14.7405 27.6525 14.7636 27.6294C14.7945 27.5985 14.8293 27.583 14.8679 27.583H17.6949C18.2434 27.583 18.7261 27.6796 19.1432 27.8727C19.5603 28.0658 19.8809 28.3438 20.1049 28.7069C20.3366 29.0622 20.4525 29.4793 20.4525 29.9582V33.3182C20.4525 33.7971 20.3366 34.218 20.1049 34.5811C19.8809 34.9364 19.5603 35.2106 19.1432 35.4037C18.7261 35.5968 18.2434 35.6934 17.6949 35.6934H14.8679ZM16.0729 34.4768C16.0729 34.5154 16.0922 34.5347 16.1308 34.5347H17.7529C18.1623 34.5347 18.4867 34.4073 18.7261 34.1524C18.9733 33.8898 19.1007 33.5422 19.1085 33.1096V30.1783C19.1085 29.738 18.9849 29.3905 18.7377 29.1356C18.4905 28.8729 18.1584 28.7416 17.7413 28.7416H16.1308C16.0922 28.7416 16.0729 28.7609 16.0729 28.7996V34.4768ZM26.5348 35.6934C26.4575 35.6934 26.4073 35.6547 26.3841 35.5775L26.0018 34.3378C25.9864 34.3069 25.967 34.2914 25.9439 34.2914H22.8851C22.8619 34.2914 22.8426 34.3069 22.8272 34.3378L22.4448 35.5775C22.4217 35.6547 22.3715 35.6934 22.2942 35.6934H21.1356C21.0893 35.6934 21.0545 35.6818 21.0313 35.6586C21.0081 35.6277 21.0043 35.5852 21.0197 35.5312L23.5339 27.6989C23.5571 27.6216 23.6073 27.583 23.6846 27.583H25.1328C25.2101 27.583 25.2603 27.6216 25.2835 27.6989L27.8093 35.5312C27.817 35.5466 27.8208 35.5659 27.8208 35.5891C27.8208 35.6586 27.7784 35.6934 27.6934 35.6934H26.5348ZM23.1864 33.1676C23.1786 33.2139 23.1941 33.2371 23.2327 33.2371H25.5847C25.631 33.2371 25.6465 33.2139 25.631 33.1676L24.4377 29.2862C24.4299 29.2553 24.4184 29.2398 24.4029 29.2398C24.3875 29.2398 24.3759 29.2553 24.3681 29.2862L23.1864 33.1676ZM30.7769 35.6934C30.6997 35.6934 30.6495 35.6547 30.6263 35.5775L28.1932 27.7452L28.1816 27.6989C28.1816 27.6216 28.2241 27.583 28.3091 27.583H29.4561C29.5411 27.583 29.5952 27.6216 29.6183 27.6989L31.3563 33.7469C31.364 33.77 31.3756 33.7816 31.391 33.7816C31.4065 33.7816 31.4181 33.77 31.4258 33.7469L33.1521 27.6989C33.1753 27.6216 33.2294 27.583 33.3143 27.583H34.4382C34.4845 27.583 34.5193 27.5985 34.5425 27.6294C34.5656 27.6603 34.5695 27.6989 34.5541 27.7452L32.0862 35.5775C32.063 35.6547 32.0128 35.6934 31.9356 35.6934H30.7769ZM35.8905 35.6934C35.8519 35.6934 35.8172 35.6818 35.7863 35.6586C35.7631 35.6277 35.7515 35.5929 35.7515 35.5543V27.722C35.7515 27.6834 35.7631 27.6525 35.7863 27.6294C35.8172 27.5985 35.8519 27.583 35.8905 27.583H36.9565C36.9951 27.583 37.026 27.5985 37.0492 27.6294C37.0801 27.6525 37.0955 27.6834 37.0955 27.722V35.5543C37.0955 35.5929 37.0801 35.6277 37.0492 35.6586C37.026 35.6818 36.9951 35.6934 36.9565 35.6934H35.8905ZM38.9229 35.6934C38.8842 35.6934 38.8495 35.6818 38.8186 35.6586C38.7954 35.6277 38.7838 35.5929 38.7838 35.5543V27.722C38.7838 27.6834 38.7954 27.6525 38.8186 27.6294C38.8495 27.5985 38.8842 27.583 38.9229 27.583H41.7499C42.2983 27.583 42.7811 27.6796 43.1982 27.8727C43.6153 28.0658 43.9358 28.3438 44.1598 28.7069C44.3916 29.0622 44.5074 29.4793 44.5074 29.9582V33.3182C44.5074 33.7971 44.3916 34.218 44.1598 34.5811C43.9358 34.9364 43.6153 35.2106 43.1982 35.4037C42.7811 35.5968 42.2983 35.6934 41.7499 35.6934H38.9229ZM40.1278 34.4768C40.1278 34.5154 40.1471 34.5347 40.1858 34.5347H41.8078C42.2172 34.5347 42.5416 34.4073 42.7811 34.1524C43.0282 33.8898 43.1557 33.5422 43.1634 33.1096V30.1783C43.1634 29.738 43.0398 29.3905 42.7927 29.1356C42.5455 28.8729 42.2133 28.7416 41.7962 28.7416H40.1858C40.1471 28.7416 40.1278 28.7609 40.1278 28.7996V34.4768ZM51.5212 27.5714C52.0079 27.5714 52.4365 27.6718 52.8073 27.8727C53.1781 28.0735 53.4639 28.3593 53.6647 28.73C53.8732 29.0931 53.9775 29.514 53.9775 29.9929C53.9775 30.4641 53.8732 30.8812 53.6647 31.2443C53.4561 31.6073 53.1588 31.8892 52.7725 32.09C52.3941 32.2832 51.9538 32.3797 51.4517 32.3797H49.5979C49.5593 32.3797 49.54 32.399 49.54 32.4376V35.5543C49.54 35.5929 49.5245 35.6277 49.4937 35.6586C49.4705 35.6818 49.4396 35.6934 49.401 35.6934H48.335C48.2964 35.6934 48.2617 35.6818 48.2308 35.6586C48.2076 35.6277 48.196 35.5929 48.196 35.5543V27.7105C48.196 27.6718 48.2076 27.6409 48.2308 27.6178C48.2617 27.5869 48.2964 27.5714 48.335 27.5714H51.5212ZM51.3243 31.2906C51.7182 31.2906 52.0349 31.1747 52.2743 30.943C52.5138 30.7113 52.6335 30.4062 52.6335 30.0277C52.6335 29.6415 52.5138 29.3287 52.2743 29.0892C52.0349 28.8498 51.7182 28.73 51.3243 28.73H49.5979C49.5593 28.73 49.54 28.7494 49.54 28.788V31.2327C49.54 31.2713 49.5593 31.2906 49.5979 31.2906H51.3243ZM57.9021 35.8092C57.3228 35.8092 56.8091 35.6934 56.3611 35.4616C55.9131 35.2222 55.5655 34.8862 55.3183 34.4536C55.0789 34.0211 54.9592 33.5229 54.9592 32.959V30.3174C54.9592 29.7612 55.0828 29.2707 55.3299 28.8459C55.5771 28.4134 55.9208 28.0812 56.3611 27.8495C56.8091 27.61 57.3228 27.4903 57.9021 27.4903C58.4891 27.4903 59.0028 27.61 59.443 27.8495C59.891 28.0812 60.2386 28.4134 60.4858 28.8459C60.733 29.2707 60.8565 29.7612 60.8565 30.3174V32.959C60.8565 33.5229 60.733 34.0211 60.4858 34.4536C60.2386 34.8862 59.891 35.2222 59.443 35.4616C59.0028 35.6934 58.4891 35.8092 57.9021 35.8092ZM57.9021 34.6506C58.3887 34.6506 58.7788 34.5 59.0723 34.1987C59.3658 33.8975 59.5125 33.4997 59.5125 33.0054V30.3058C59.5125 29.8037 59.3658 29.402 59.0723 29.1008C58.7788 28.7996 58.3887 28.6489 57.9021 28.6489C57.4232 28.6489 57.037 28.7996 56.7434 29.1008C56.4499 29.402 56.3032 29.8037 56.3032 30.3058V33.0054C56.3032 33.4997 56.4499 33.8975 56.7434 34.1987C57.037 34.5 57.4232 34.6506 57.9021 34.6506ZM67.5914 27.583C67.63 27.583 67.6609 27.5985 67.6841 27.6294C67.715 27.6525 67.7304 27.6834 67.7304 27.722V28.6142C67.7304 28.6528 67.715 28.6876 67.6841 28.7185C67.6609 28.7416 67.63 28.7532 67.5914 28.7532H65.4595C65.4209 28.7532 65.4016 28.7725 65.4016 28.8112V35.5543C65.4016 35.5929 65.3862 35.6277 65.3553 35.6586C65.3321 35.6818 65.3012 35.6934 65.2626 35.6934H64.1966C64.158 35.6934 64.1233 35.6818 64.0924 35.6586C64.0692 35.6277 64.0576 35.5929 64.0576 35.5543V28.8112C64.0576 28.7725 64.0383 28.7532 63.9997 28.7532H61.9489C61.9103 28.7532 61.8755 28.7416 61.8446 28.7185C61.8215 28.6876 61.8099 28.6528 61.8099 28.6142V27.722C61.8099 27.6834 61.8215 27.6525 61.8446 27.6294C61.8755 27.5985 61.9103 27.583 61.9489 27.583H67.5914ZM71.5332 35.786C70.9308 35.786 70.4055 35.6895 69.9575 35.4964C69.5095 35.3033 69.1619 35.0329 68.9148 34.6854C68.6753 34.3378 68.5556 33.9284 68.5556 33.4572V33.1676C68.5556 33.1289 68.5672 33.098 68.5903 33.0749C68.6212 33.044 68.656 33.0285 68.6946 33.0285H69.7258C69.7644 33.0285 69.7953 33.044 69.8185 33.0749C69.8494 33.098 69.8648 33.1289 69.8648 33.1676V33.3877C69.8648 33.743 70.0232 34.0404 70.3399 34.2798C70.6565 34.5116 71.0891 34.6274 71.6375 34.6274C72.1087 34.6274 72.464 34.527 72.7034 34.3262C72.9429 34.1254 73.0626 33.8666 73.0626 33.5499C73.0626 33.3336 72.997 33.1521 72.8657 33.0054C72.7343 32.8509 72.5451 32.7118 72.2979 32.5883C72.0585 32.4647 71.6954 32.3102 71.2088 32.1248C70.6604 31.924 70.2163 31.7347 69.8764 31.5571C69.5365 31.3794 69.2508 31.14 69.019 30.8387C68.795 30.5298 68.683 30.1474 68.683 29.6917C68.683 29.012 68.9302 28.4752 69.4245 28.0812C69.9189 27.6873 70.5793 27.4903 71.4058 27.4903C71.9851 27.4903 72.4949 27.5907 72.9352 27.7916C73.3832 27.9924 73.7308 28.2743 73.9779 28.6374C74.2251 28.9927 74.3487 29.4059 74.3487 29.8771V30.074C74.3487 30.1127 74.3332 30.1474 74.3023 30.1783C74.2792 30.2015 74.2483 30.2131 74.2097 30.2131H73.1669C73.1283 30.2131 73.0935 30.2015 73.0626 30.1783C73.0394 30.1474 73.0279 30.1127 73.0279 30.074V29.9466C73.0279 29.5836 72.8772 29.2785 72.576 29.0313C72.2825 28.7764 71.8731 28.6489 71.3479 28.6489C70.923 28.6489 70.5909 28.7378 70.3514 28.9154C70.1197 29.0931 70.0039 29.3441 70.0039 29.6685C70.0039 29.9003 70.0657 30.0895 70.1892 30.2363C70.3128 30.383 70.4982 30.5182 70.7454 30.6418C70.9925 30.7576 71.3749 30.9083 71.8924 31.0936C72.4408 31.3022 72.8772 31.4914 73.2017 31.6614C73.5338 31.8313 73.8157 32.0707 74.0474 32.3797C74.2869 32.6809 74.4066 33.0594 74.4066 33.5152C74.4066 34.2103 74.1479 34.7626 73.6303 35.172C73.1205 35.5814 72.4215 35.786 71.5332 35.786Z" fill="white"/>
</svg>
