<?xml version="1.0" encoding="UTF-8"?>
<svg width="202px" height="192px" viewBox="0 0 202 192" version="1.1" xmlns="http://www.w3.org/2000/svg" xmlns:xlink="http://www.w3.org/1999/xlink">
    <!-- Generator: Sketch 45.1 (43504) - http://www.bohemiancoding.com/sketch -->
    <title>songnotes-logo-vertical</title>
    <desc>Created with Sketch.</desc>
    <defs>
        <polygon id="path-1" points="0 0.4229 0 21.7499 17.1468 21.7499 17.1468 0.4229"></polygon>
        <polygon id="path-3" points="0.0477 31 23.0387 31 23.0387 0.6164 0.0477 0.6164 0.0477 31"></polygon>
    </defs>
    <g id="Page-1" stroke="none" stroke-width="1" fill="none" fill-rule="evenodd">
        <g id="songnotes-logo-vertical">
            <g id="Page-1">
                <g id="Group-3" transform="translate(0.000000, 160.633000)">
                    <mask id="mask-2" fill="white">
                        <use xlink:href="#path-1"></use>
                    </mask>
                    <g id="Clip-2"></g>
                    <path d="M14.4858,5.5509 C14.2828,5.9449 13.7778,6.1339 13.3658,5.9709 C13.3658,5.9709 11.5608,5.2609 10.3228,5.2609 C9.6768,5.2609 9.1548,5.3899 8.7558,5.6479 C8.3548,5.9059 8.1548,6.2549 8.1548,6.6929 C8.1548,6.9259 8.1868,7.1129 8.2518,7.2539 C8.3158,7.3959 8.4588,7.5319 8.6768,7.6599 C8.8968,7.7899 9.2188,7.9059 9.6448,8.0089 C10.0708,8.1129 10.5428,8.2179 10.5428,8.2179 C10.9748,8.3159 11.6738,8.5059 12.0968,8.6409 C12.0968,8.6409 14.7098,9.4739 15.6638,10.4669 C16.6188,11.4609 17.1468,11.8089 17.1468,14.2789 C17.1468,15.9269 16.8638,16.4859 16.3988,17.4139 C15.9348,18.3429 15.2898,19.1239 14.4648,19.7559 C13.6378,20.3889 12.6448,20.8789 11.4838,21.2269 C10.3228,21.5749 9.0458,21.7499 7.6518,21.7499 C4.9678,21.7499 0.4568,19.7869 0.4568,19.7869 C0.0498,19.6109 -0.1172,19.1429 0.0868,18.7489 L1.9018,15.2279 C2.1048,14.8339 2.5918,14.6809 2.9848,14.8869 C2.9848,14.8869 6.0898,16.5239 7.8448,16.5239 C8.4898,16.5239 9.0188,16.3829 9.4318,16.0979 C9.8448,15.8149 10.0508,15.4539 10.0508,15.0149 C10.0508,14.7569 10.0188,14.5439 9.9548,14.3759 C9.8898,14.2089 9.7548,14.0529 9.5488,13.9109 C9.3408,13.7699 9.0388,13.6399 8.6388,13.5249 C8.2388,13.4079 7.8598,13.3269 7.8598,13.3269 C7.4258,13.2329 6.7228,13.0539 6.2978,12.9279 C6.2978,12.9279 3.3868,12.0669 2.5228,11.2019 C1.6588,10.3379 1.2268,9.1449 1.2268,7.6219 C1.2268,6.5129 1.4328,5.5119 1.8458,4.6219 C2.2578,3.7319 2.8518,2.9769 3.6268,2.3579 C4.4008,1.7379 5.3358,1.2609 6.4328,0.9259 C7.5288,0.5909 8.7488,0.4229 10.0898,0.4229 C12.2828,0.4229 15.7058,1.4649 15.7058,1.4649 C16.1298,1.5939 16.3098,2.0219 16.1068,2.4159 L14.4858,5.5509 Z" id="Fill-1" fill="#333333" mask="url(#mask-2)"></path>
                </g>
                <path d="M26.4692,171.6224 C26.4692,172.2934 26.5912,172.9064 26.8362,173.4604 C27.0812,174.0164 27.4042,174.4994 27.8042,174.9124 C28.2042,175.3254 28.6812,175.6474 29.2372,175.8794 C29.7902,176.1124 30.3782,176.2284 30.9972,176.2284 C31.6162,176.2284 32.2032,176.1124 32.7582,175.8794 C33.3132,175.6474 33.7902,175.3254 34.1912,174.9124 C34.5902,174.4994 34.9122,174.0164 35.1582,173.4604 C35.4032,172.9064 35.5262,172.3064 35.5262,171.6614 C35.5262,171.0414 35.4032,170.4554 35.1582,169.8994 C34.9122,169.3454 34.5902,168.8614 34.1912,168.4484 C33.7902,168.0364 33.3132,167.7124 32.7582,167.4804 C32.2032,167.2484 31.6162,167.1324 30.9972,167.1324 C30.3782,167.1324 29.7902,167.2484 29.2372,167.4804 C28.6812,167.7124 28.2042,168.0364 27.8042,168.4484 C27.4042,168.8614 27.0812,169.3384 26.8362,169.8804 C26.5912,170.4224 26.4692,171.0024 26.4692,171.6224 M19.0762,171.5444 C19.0762,170.0744 19.3722,168.7004 19.9662,167.4224 C20.5602,166.1454 21.3852,165.0364 22.4442,164.0944 C23.5012,163.1524 24.7592,162.4104 26.2172,161.8684 C27.6752,161.3264 29.2682,161.0554 30.9972,161.0554 C32.7002,161.0554 34.2812,161.3204 35.7392,161.8494 C37.1962,162.3784 38.4612,163.1134 39.5322,164.0554 C40.6022,164.9974 41.4352,166.1204 42.0292,167.4224 C42.6212,168.7264 42.9182,170.1644 42.9182,171.7384 C42.9182,173.3124 42.6152,174.7514 42.0092,176.0544 C41.4032,177.3574 40.5712,178.4794 39.5122,179.4214 C38.4542,180.3634 37.1842,181.0924 35.6992,181.6084 C34.2162,182.1244 32.6102,182.3824 30.8812,182.3824 C29.1782,182.3824 27.6042,182.1244 26.1582,181.6084 C24.7132,181.0924 23.4692,180.3564 22.4242,179.4024 C21.3792,178.4474 20.5602,177.3064 19.9662,175.9764 C19.3722,174.6474 19.0762,173.1704 19.0762,171.5444" id="Fill-4" fill="#333333"></path>
                <g id="Group-8" transform="translate(69.000000, 160.633000)">
                    <mask id="mask-4" fill="white">
                        <use xlink:href="#path-3"></use>
                    </mask>
                    <g id="Clip-7"></g>
                    <path d="M7.3237,10.9894 C7.3237,11.6344 7.4397,12.2344 7.6727,12.7894 C7.9037,13.3444 8.2197,13.8274 8.6207,14.2404 C9.0197,14.6534 9.4977,14.9754 10.0527,15.2084 C10.6067,15.4404 11.2077,15.5564 11.8517,15.5564 C12.4707,15.5564 13.0577,15.4404 13.6137,15.2084 C14.1687,14.9754 14.6447,14.6534 15.0457,14.2404 C15.4457,13.8274 15.7677,13.3444 16.0127,12.7894 C16.2587,12.2344 16.3817,11.6474 16.3817,11.0284 C16.3817,10.3834 16.2587,9.7894 16.0127,9.2474 C15.7677,8.7054 15.4387,8.2284 15.0257,7.8154 C14.6127,7.4034 14.1297,7.0794 13.5747,6.8474 C13.0197,6.6154 12.4457,6.4994 11.8517,6.4994 C11.2327,6.4994 10.6527,6.6224 10.1107,6.8674 C9.5687,7.1124 9.0917,7.4344 8.6787,7.8344 C8.2647,8.2354 7.9367,8.7054 7.6917,9.2474 C7.4457,9.7894 7.3237,10.3694 7.3237,10.9894 L7.3237,10.9894 Z M22.2317,1.1574 C22.6757,1.1574 23.0387,1.5204 23.0387,1.9644 L23.0387,18.8534 C23.0387,19.2964 23.0267,20.0224 23.0127,20.4654 C23.0127,20.4654 22.9727,21.7614 22.8447,22.6394 C22.7157,23.5164 22.5347,24.2904 22.3027,24.9624 C21.9937,25.8134 21.5097,26.6074 20.8507,27.3424 C20.1937,28.0774 19.3997,28.7164 18.4707,29.2584 C17.5427,29.8004 16.4907,30.2254 15.3167,30.5354 C14.1417,30.8444 12.8717,31.0004 11.5047,31.0004 C9.9557,31.0004 8.5367,30.8064 7.2467,30.4194 C5.9557,30.0324 4.8277,29.4964 3.8597,28.8134 C2.8917,28.1294 2.0987,27.3294 1.4787,26.4134 C0.8597,25.4974 0.4697,24.1864 0.4697,24.1864 C0.3447,23.7614 0.6027,23.4134 1.0477,23.4134 L7.3307,23.4134 C7.7737,23.4134 8.3647,23.6954 8.6437,24.0404 C8.6437,24.0404 9.7357,25.3874 11.4657,25.3874 C12.9357,25.3874 14.0647,24.9744 14.8517,24.1494 C15.6387,23.3224 15.9127,21.5014 15.9127,21.5014 C15.9787,21.0634 16.0327,20.3414 16.0327,19.8984 L16.0327,19.6144 C16.0327,19.1704 15.7617,19.0484 15.4287,19.3424 C15.4287,19.3424 15.0197,19.7044 14.5427,20.0274 C14.0647,20.3494 13.5807,20.6144 13.0917,20.8204 C12.6007,21.0264 12.0847,21.1754 11.5427,21.2654 C11.0007,21.3554 10.4067,21.4014 9.7617,21.4014 C8.3437,21.4014 7.0397,21.1554 5.8527,20.6654 C4.6657,20.1764 3.6397,19.4914 2.7757,18.6144 C1.9117,17.7374 1.2407,16.6854 0.7627,15.4594 C0.2857,14.2344 0.0477,12.8734 0.0477,11.3764 C0.0477,9.8544 0.3047,8.4414 0.8217,7.1374 C1.3377,5.8354 2.0407,4.6994 2.9297,3.7324 C3.8207,2.7644 4.8787,2.0034 6.1047,1.4484 C7.3297,0.8934 8.6657,0.6164 10.1107,0.6164 C12.4587,0.6164 15.3837,2.7704 15.3837,2.7704 C15.7407,3.0324 16.0327,2.8854 16.0327,2.4414 L16.0327,1.9644 C16.0327,1.5204 16.3947,1.1574 16.8387,1.1574 L22.2317,1.1574 Z" id="Fill-6" fill="#333333" mask="url(#mask-4)"></path>
                </g>
                <path d="M126.9526,171.6224 C126.9526,172.2934 127.0746,172.9064 127.3196,173.4604 C127.5646,174.0164 127.8876,174.4994 128.2876,174.9124 C128.6876,175.3254 129.1646,175.6474 129.7206,175.8794 C130.2736,176.1124 130.8616,176.2284 131.4806,176.2284 C132.0996,176.2284 132.6866,176.1124 133.2416,175.8794 C133.7966,175.6474 134.2736,175.3254 134.6746,174.9124 C135.0736,174.4994 135.3956,174.0164 135.6416,173.4604 C135.8866,172.9064 136.0096,172.3064 136.0096,171.6614 C136.0096,171.0414 135.8866,170.4554 135.6416,169.8994 C135.3956,169.3454 135.0736,168.8614 134.6746,168.4484 C134.2736,168.0364 133.7966,167.7124 133.2416,167.4804 C132.6866,167.2484 132.0996,167.1324 131.4806,167.1324 C130.8616,167.1324 130.2736,167.2484 129.7206,167.4804 C129.1646,167.7124 128.6876,168.0364 128.2876,168.4484 C127.8876,168.8614 127.5646,169.3384 127.3196,169.8804 C127.0746,170.4224 126.9526,171.0024 126.9526,171.6224 M119.5596,171.5444 C119.5596,170.0744 119.8556,168.7004 120.4496,167.4224 C121.0436,166.1454 121.8686,165.0364 122.9276,164.0944 C123.9846,163.1524 125.2426,162.4104 126.7006,161.8684 C128.1586,161.3264 129.7516,161.0554 131.4806,161.0554 C133.1836,161.0554 134.7646,161.3204 136.2226,161.8494 C137.6796,162.3784 138.9436,163.1134 140.0156,164.0554 C141.0856,164.9974 141.9186,166.1204 142.5126,167.4224 C143.1046,168.7264 143.4016,170.1644 143.4016,171.7384 C143.4016,173.3124 143.0986,174.7514 142.4926,176.0544 C141.8866,177.3574 141.0546,178.4794 139.9956,179.4214 C138.9376,180.3634 137.6676,181.0924 136.1826,181.6084 C134.6996,182.1244 133.0936,182.3824 131.3646,182.3824 C129.6616,182.3824 128.0876,182.1244 126.6416,181.6084 C125.1966,181.0924 123.9526,180.3564 122.9076,179.4024 C121.8626,178.4474 121.0436,177.3064 120.4496,175.9764 C119.8556,174.6474 119.5596,173.1704 119.5596,171.5444" id="Fill-9" fill="#333333"></path>
                <path d="M156.1674,167.6356 C155.7244,167.6356 155.3614,167.9986 155.3614,168.4416 L155.3614,180.8406 C155.3614,181.2836 154.9984,181.6466 154.5554,181.6466 L149.1614,181.6466 C148.7184,181.6466 148.3554,181.2836 148.3554,180.8406 L148.3554,168.4416 C148.3554,167.9986 147.9924,167.6356 147.5494,167.6356 L144.4204,167.6356 C143.9774,167.6356 143.6634,167.2766 143.7244,166.8366 L144.3104,162.5896 C144.3714,162.1506 144.7834,161.7906 145.2274,161.7906 L147.5494,161.7906 C147.9924,161.7906 148.3554,161.4276 148.3554,160.9846 L148.3554,156.6366 C148.3554,156.1936 148.7184,155.8306 149.1614,155.8306 L154.5554,155.8306 C154.9984,155.8306 155.3614,156.1936 155.3614,156.6366 L155.3614,160.9846 C155.3614,161.4276 155.7244,161.7906 156.1674,161.7906 L158.1394,161.7906 C158.5824,161.7906 158.9944,162.1506 159.0554,162.5896 L159.6414,166.8366 C159.7014,167.2766 159.3884,167.6356 158.9444,167.6356 L156.1674,167.6356 Z" id="Fill-11" fill="#333333"></path>
                <path d="M175.268,168.8353 C175.712,168.8353 175.94,168.4993 175.774,168.0873 C175.774,168.0873 175.365,167.0683 174.643,166.4743 C173.92,165.8813 173.042,165.5843 172.011,165.5843 C170.927,165.5843 170.042,165.8683 169.36,166.4363 C168.675,167.0033 168.319,168.0703 168.319,168.0703 C168.178,168.4913 168.425,168.8353 168.87,168.8353 L175.268,168.8353 Z M168.675,172.8993 C168.232,172.8993 168.11,173.3263 168.11,173.6693 C168.11,174.0113 167.904,177.4283 172.126,177.4283 C174.014,177.4283 174.992,176.1303 174.992,176.1303 C175.311,175.8223 175.934,175.5703 176.378,175.5703 L181.539,175.5703 C181.982,175.5703 182.136,175.8673 181.881,176.2303 C181.881,176.2303 179.179,182.3823 172.088,182.3823 C170.411,182.3823 168.875,182.1303 167.482,181.6273 C166.088,181.1243 164.895,180.4083 163.902,179.4793 C162.909,178.5503 162.141,177.4413 161.599,176.1503 C161.057,174.8603 160.787,173.4163 160.787,171.8153 C160.787,170.1653 161.043,168.6743 161.56,167.3453 C162.076,166.0163 162.812,164.8873 163.766,163.9583 C164.721,163.0293 165.876,162.3133 167.23,161.8103 C168.585,161.3073 170.114,161.0553 171.817,161.0553 C173.495,161.0553 175.004,161.3073 176.346,161.8103 C177.687,162.3133 178.823,163.0433 179.752,163.9973 C180.681,164.9523 181.39,166.1203 181.88,167.5003 C182.371,168.8803 182.556,171.3603 182.556,171.3603 C182.589,171.8023 182.616,172.3293 182.616,172.5323 C182.616,172.7343 182.253,172.8993 181.81,172.8993 L168.675,172.8993 Z" id="Fill-13" fill="#333333"></path>
                <path d="M198.519,166.1839 C198.316,166.5779 197.811,166.7669 197.399,166.6039 C197.399,166.6039 195.594,165.8939 194.356,165.8939 C193.711,165.8939 193.188,166.0229 192.789,166.2809 C192.388,166.5389 192.188,166.8879 192.188,167.3259 C192.188,167.5589 192.22,167.7459 192.286,167.8869 C192.349,168.0289 192.492,168.1649 192.71,168.2929 C192.93,168.4229 193.253,168.5389 193.678,168.6419 C194.104,168.7459 194.576,168.8509 194.576,168.8509 C195.008,168.9489 195.708,169.1389 196.13,169.2739 C196.13,169.2739 198.743,170.1069 199.698,171.0999 C200.652,172.0939 201.129,173.3639 201.129,174.9119 C201.129,176.0729 200.897,177.1189 200.433,178.0469 C199.968,178.9759 199.324,179.7569 198.498,180.3889 C197.671,181.0219 196.678,181.5119 195.517,181.8599 C194.356,182.2079 193.079,182.3829 191.685,182.3829 C189.001,182.3829 184.49,180.4199 184.49,180.4199 C184.083,180.2439 183.917,179.7759 184.121,179.3819 L185.936,175.8609 C186.139,175.4669 186.626,175.3139 187.019,175.5199 C187.019,175.5199 190.123,177.1569 191.879,177.1569 C192.524,177.1569 193.052,177.0159 193.465,176.7309 C193.878,176.4479 194.085,176.0869 194.085,175.6479 C194.085,175.3899 194.052,175.1769 193.989,175.0089 C193.923,174.8419 193.789,174.6859 193.582,174.5439 C193.375,174.4029 193.072,174.2729 192.672,174.1579 C192.272,174.0409 191.893,173.9599 191.893,173.9599 C191.459,173.8659 190.757,173.6869 190.331,173.5609 C190.331,173.5609 187.421,172.6999 186.557,171.8349 C185.692,170.9709 185.26,169.7779 185.26,168.2549 C185.26,167.1459 185.466,166.1449 185.879,165.2549 C186.291,164.3649 186.886,163.6099 187.66,162.9909 C188.434,162.3709 189.37,161.8939 190.466,161.5589 C191.563,161.2239 192.782,161.0559 194.123,161.0559 C196.317,161.0559 199.739,162.0979 199.739,162.0979 C200.164,162.2269 200.343,162.6549 200.14,163.0489 L198.519,166.1839 Z" id="Fill-15" fill="#333333"></path>
                <path d="M66.9868,181.2987 C66.5088,180.0727 66.3378,178.0187 66.3378,178.0187 C66.3008,177.5767 66.2708,176.8527 66.2708,176.4087 L66.2708,169.8357 C66.2708,169.3917 66.2528,168.6667 66.2288,168.2237 C66.2288,168.2237 66.1678,167.0297 65.9618,166.2037 C65.7548,165.3777 65.3678,164.6297 64.7998,163.9587 C64.1028,163.1327 63.2578,162.4947 62.2648,162.0427 C61.2708,161.5907 60.0778,161.3647 58.6848,161.3647 C57.3688,161.3647 56.2198,161.5657 55.2398,161.9657 C55.0838,162.0287 54.9278,162.1057 54.7728,162.1887 C54.0018,162.5997 53.2388,163.2487 52.4838,164.1347 L52.4348,164.1927 C52.3818,164.2557 52.3368,164.3117 52.3368,164.3117 C52.3368,164.3117 52.2648,163.9727 52.1778,163.5377 C52.1778,163.5377 52.0348,162.8247 51.7678,162.1397 L51.7208,162.0187 C51.6618,161.8937 51.2508,161.7907 50.8058,161.7907 L46.1368,161.7907 L44.8958,161.7907 C44.6568,161.7907 44.5088,161.8937 44.5688,162.0187 L44.6158,162.1397 C45.0928,163.3647 45.2638,165.4197 45.2638,165.4197 C45.3008,165.8607 45.3318,166.5857 45.3318,167.0287 L45.3318,180.8407 C45.3318,181.2837 45.6938,181.6467 46.1368,181.6467 L51.5308,181.6467 C51.9738,181.6467 52.3368,181.2837 52.3368,180.8407 L52.3368,171.8477 C52.3368,171.4047 52.3848,170.6817 52.4448,170.2427 C52.4448,170.2427 52.6528,168.7137 53.2848,168.0037 C53.6748,167.5657 54.1718,167.2637 54.7728,167.0957 C55.1458,166.9917 55.5588,166.9387 56.0138,166.9387 C56.4528,166.9387 56.8648,167.0037 57.2528,167.1317 C57.6398,167.2617 57.9878,167.4807 58.2978,167.7907 C58.6588,168.1527 58.9108,168.6357 59.0518,169.2417 C59.1938,169.8487 59.2328,170.8167 59.2328,170.8167 C59.2508,171.2597 59.2648,171.9857 59.2648,172.4287 L59.2648,180.8407 C59.2648,181.2837 59.6278,181.6467 60.0718,181.6467 L65.4648,181.6467 L66.7068,181.6467 C66.9458,181.6467 67.0928,181.5447 67.0338,181.4187 L66.9868,181.2987 Z" id="Fill-17" fill="#333333"></path>
                <path d="M117.4985,181.2987 C117.0205,180.0727 116.8505,178.0187 116.8505,178.0187 C116.8125,177.5767 116.7825,176.8527 116.7825,176.4087 L116.7825,169.8357 C116.7825,169.3917 116.7645,168.6667 116.7415,168.2237 C116.7415,168.2237 116.6805,167.0297 116.4735,166.2037 C116.2675,165.3777 115.8795,164.6297 115.3115,163.9587 C114.6155,163.1327 113.7695,162.4947 112.7765,162.0427 C111.7835,161.5907 110.5905,161.3647 109.1965,161.3647 C107.8805,161.3647 106.7325,161.5657 105.7525,161.9657 C105.5965,162.0287 105.4405,162.1057 105.2855,162.1887 C104.5145,162.5997 103.7505,163.2487 102.9955,164.1347 L102.9465,164.1927 C102.8935,164.2557 102.8495,164.3117 102.8495,164.3117 C102.8495,164.3117 102.7775,163.9727 102.6905,163.5377 C102.6905,163.5377 102.5475,162.8247 102.2795,162.1397 L102.2335,162.0187 C102.1745,161.8937 101.7625,161.7907 101.3185,161.7907 L96.6495,161.7907 L95.4075,161.7907 C95.1685,161.7907 95.0205,161.8937 95.0805,162.0187 L95.1275,162.1397 C95.6045,163.3647 95.7765,165.4197 95.7765,165.4197 C95.8125,165.8607 95.8435,166.5857 95.8435,167.0287 L95.8435,180.8407 C95.8435,181.2837 96.2065,181.6467 96.6495,181.6467 L102.0425,181.6467 C102.4865,181.6467 102.8495,181.2837 102.8495,180.8407 L102.8495,171.8477 C102.8495,171.4047 102.8975,170.6817 102.9575,170.2427 C102.9575,170.2427 103.1645,168.7137 103.7975,168.0037 C104.1865,167.5657 104.6845,167.2637 105.2855,167.0957 C105.6585,166.9917 106.0715,166.9387 106.5255,166.9387 C106.9645,166.9387 107.3775,167.0037 107.7645,167.1317 C108.1515,167.2617 108.5005,167.4807 108.8105,167.7907 C109.1715,168.1527 109.4225,168.6357 109.5645,169.2417 C109.7065,169.8487 109.7445,170.8167 109.7445,170.8167 C109.7635,171.2597 109.7765,171.9857 109.7765,172.4287 L109.7765,180.8407 C109.7765,181.2837 110.1405,181.6467 110.5835,181.6467 L115.9775,181.6467 L117.2185,181.6467 C117.4575,181.6467 117.6045,181.5447 117.5455,181.4187 L117.4985,181.2987 Z" id="Fill-19" fill="#333333"></path>
                <path d="M119.9721,24.8822 L119.9721,23.9102 L119.2251,23.9102 C119.6391,24.0482 119.9471,24.4232 119.9721,24.8822" id="Fill-21" fill="#020303"></path>
                <path d="M103.8764,23.9105 L103.1294,23.9105 L103.1294,24.8825 C103.1544,24.4225 103.4634,24.0485 103.8764,23.9105" id="Fill-23" fill="#020303"></path>
                <path d="M100.5649,14.1903 C67.0829,14.1903 39.8419,40.0423 39.8419,71.8173 C39.8419,103.5923 67.0829,129.4443 100.5649,129.4443 C134.0469,129.4443 161.2879,103.5923 161.2879,71.8173 C161.2879,40.0423 134.0469,14.1903 100.5649,14.1903 M100.5649,19.1903 C131.3389,19.1903 156.2879,42.7523 156.2879,71.8173 C156.2879,100.8823 131.3389,124.4443 100.5649,124.4443 C69.7899,124.4443 44.8419,100.8823 44.8419,71.8173 C44.8419,42.7523 69.7899,19.1903 100.5649,19.1903" id="Fill-25" fill="#333333"></path>
                <path d="M58.0961,37.7645 L143.0341,37.7645 C132.8131,26.4055 117.5851,19.1905 100.5651,19.1905 C83.5441,19.1905 68.3171,26.4055 58.0961,37.7645" id="Fill-27" fill="#64668E"></path>
                <path d="M47.5073,55.7196 L153.6223,55.7196 C151.3573,49.0556 147.7233,42.9756 143.0333,37.7646 L58.0963,37.7646 C53.4063,42.9756 49.7733,49.0556 47.5073,55.7196" id="Fill-29" fill="#2A89C8"></path>
                <path d="M44.8422,71.8177 C44.8422,72.4407 44.8682,73.0567 44.8922,73.6747 L156.2382,73.6747 C156.2602,73.0567 156.2872,72.4407 156.2872,71.8177 C156.2872,66.2017 155.3472,60.7947 153.6222,55.7197 L47.5072,55.7197 C45.7822,60.7947 44.8422,66.2017 44.8422,71.8177" id="Fill-31" fill="#FACD53"></path>
                <path d="M50.0844,94.1063 L151.0454,94.1063 C154.1394,87.8663 155.9704,80.9593 156.2374,73.6743 L44.8924,73.6743 C45.1594,80.9593 46.9894,87.8663 50.0844,94.1063" id="Fill-33" fill="#F8A259"></path>
                <path d="M151.0454,94.1063 L50.0844,94.1063 C58.9714,112.0263 78.2284,124.4443 100.5654,124.4443 C122.9014,124.4443 142.1584,112.0263 151.0454,94.1063" id="Fill-35" fill="#DF6555"></path>
                <path d="M96.5376,69.0477 L96.5376,32.2257 L104.5916,32.2257 L104.5916,69.0477 L104.5916,71.7917 L104.5916,74.5387 L104.5916,78.0117 L104.5916,86.6987 C103.3216,86.2927 101.9706,86.0677 100.5646,86.0677 C99.1596,86.0677 97.8086,86.2927 96.5376,86.6987 L96.5376,78.0117 L96.5376,74.5387 L96.5376,71.7917 L96.5376,69.0477 Z M92.8906,5.1937 C92.9956,5.1577 93.1036,5.1267 93.2216,5.1267 L107.9076,5.1267 C108.0246,5.1267 108.1336,5.1577 108.2396,5.1937 C108.6526,5.3307 108.9606,5.7047 108.9856,6.1647 L107.5286,25.8297 C107.5246,25.8867 107.5226,25.9437 107.5226,26.0007 C107.5226,26.6067 107.0386,27.0987 106.4426,27.0987 L104.5916,27.0987 L96.5376,27.0987 L94.6856,27.0987 C94.0916,27.0987 93.6066,26.6067 93.6066,26.0007 C93.6066,25.9437 93.6046,25.8867 93.6006,25.8297 L92.1436,6.1647 C92.1686,5.7047 92.4766,5.3307 92.8906,5.1937 L92.8906,5.1937 Z M100.5656,142.5067 C76.4506,142.5067 72.8496,129.7817 72.8496,122.1957 C72.8496,117.3227 74.7536,114.4177 76.7696,111.3407 C78.7276,108.3527 80.7536,105.2627 80.7536,100.6787 C80.7536,98.7357 80.1366,96.4407 79.4816,94.0107 C78.1866,89.1987 76.7206,83.7457 79.5376,80.0707 C81.5896,77.3927 85.8236,75.6677 92.1436,74.9037 L92.1436,89.1097 C89.2346,91.5287 87.3816,95.1727 87.3816,99.2507 C87.3816,106.5317 93.2836,112.4337 100.5646,112.4337 C107.8456,112.4337 113.7476,106.5317 113.7476,99.2507 C113.7476,95.1727 111.8946,91.5287 108.9856,89.1097 L108.9856,74.9037 C115.3066,75.6677 119.5406,77.3927 121.5936,80.0697 C124.4096,83.7447 122.9426,89.1987 121.6466,94.0097 C120.9926,96.4407 120.3756,98.7357 120.3756,100.6787 C120.3756,105.2627 122.4006,108.3537 124.3596,111.3407 C126.3756,114.4177 128.2796,117.3227 128.2796,122.1957 C128.2796,129.7817 124.6796,142.5067 100.5656,142.5067 L100.5656,142.5067 Z M128.9536,108.3297 C127.2296,105.6997 125.8686,103.6227 125.8686,100.6787 C125.8686,99.4607 126.4196,97.4157 126.9516,95.4377 C128.4146,90.0017 130.4186,82.5557 125.9526,76.7287 C122.8856,72.7257 117.2936,70.3027 108.9856,69.3817 L108.9856,31.6737 C111.1146,30.7087 112.6106,28.5787 112.6486,26.0967 L114.1086,6.3967 C114.1116,6.3397 114.1146,6.2827 114.1146,6.2257 C114.1146,2.7927 111.3306,0.0007 107.9076,0.0007 L93.2216,0.0007 C89.7996,0.0007 87.0156,2.7927 87.0156,6.2257 C87.0156,6.2827 87.0166,6.3397 87.0206,6.3967 L88.4806,26.0967 C88.5186,28.5787 90.0156,30.7087 92.1436,31.6737 L92.1436,69.3827 C83.8366,70.3027 78.2456,72.7267 75.1776,76.7287 C70.7106,82.5557 72.7146,90.0017 74.1786,95.4387 C74.7106,97.4157 75.2606,99.4617 75.2606,100.6787 C75.2606,103.6227 73.8986,105.6987 72.1766,108.3287 C70.0286,111.6067 67.3566,115.6827 67.3566,122.1957 C67.3566,128.8107 69.5426,134.6127 73.6786,138.9757 C79.3546,144.9637 88.4006,148.0007 100.5656,148.0007 C112.7296,148.0007 121.7756,144.9637 127.4526,138.9747 C131.5876,134.6127 133.7726,128.8107 133.7726,122.1957 C133.7726,115.6827 131.1006,111.6057 128.9536,108.3297 L128.9536,108.3297 Z" id="Fill-37" fill="#333333"></path>
                <path d="M108.6215,116.7742 L92.5085,116.7742 C91.2945,116.7742 90.3105,117.7582 90.3105,118.9712 C90.3105,120.1852 91.2945,121.1692 92.5085,121.1692 L108.6215,121.1692 C109.8345,121.1692 110.8185,120.1852 110.8185,118.9712 C110.8185,117.7582 109.8345,116.7742 108.6215,116.7742" id="Fill-39" fill="#333333"></path>
                <path d="M108.6215,121.1688 L92.5085,121.1688 C91.2945,121.1688 90.3105,120.1848 90.3105,118.9718 C90.3105,117.7578 91.2945,116.7738 92.5085,116.7738 L108.6215,116.7738 C109.8345,116.7738 110.8185,117.7578 110.8185,118.9718 C110.8185,120.1848 109.8345,121.1688 108.6215,121.1688 M124.3595,111.3408 C122.4005,108.3538 120.3755,105.2628 120.3755,100.6788 C120.3755,98.7358 120.9925,96.4398 121.6465,94.0098 C122.9425,89.1988 124.4095,83.7448 121.5935,80.0698 C119.5405,77.3928 115.3065,75.6678 108.9855,74.9038 L108.9855,89.1098 C111.8945,91.5288 113.7475,95.1728 113.7475,99.2508 C113.7475,106.5318 107.8455,112.4338 100.5645,112.4338 C93.2835,112.4338 87.3815,106.5318 87.3815,99.2508 C87.3815,95.1728 89.2345,91.5288 92.1435,89.1098 L92.1435,74.9038 C85.8235,75.6678 81.5895,77.3928 79.5375,80.0708 C76.7205,83.7458 78.1865,89.1988 79.4815,94.0108 C80.1365,96.4408 80.7535,98.7358 80.7535,100.6788 C80.7535,105.2628 78.7275,108.3528 76.7695,111.3408 C74.7535,114.4178 72.8495,117.3228 72.8495,122.1958 C72.8495,129.7818 76.4505,142.5068 100.5655,142.5068 C124.6795,142.5068 128.2795,129.7818 128.2795,122.1958 C128.2795,117.3228 126.3755,114.4178 124.3595,111.3408" id="Fill-41" fill="#FEFEFE"></path>
                <path d="M93.6069,26.0003 C93.6069,26.6063 94.0909,27.0993 94.6859,27.0993 L96.5379,27.0993 L104.5909,27.0993 L106.4429,27.0993 C107.0389,27.0993 107.5229,26.6063 107.5229,26.0003 C107.5229,25.9433 107.5249,25.8873 107.5289,25.8303 L108.9859,6.1653 C108.9609,5.7053 108.6529,5.3313 108.2399,5.1933 C108.1329,5.1573 108.0249,5.1263 107.9079,5.1263 L93.2209,5.1263 C93.1039,5.1263 92.9959,5.1573 92.8899,5.1933 C92.4769,5.3313 92.1689,5.7053 92.1439,6.1653 L93.6009,25.8303 C93.6049,25.8873 93.6069,25.9433 93.6069,26.0003" id="Fill-43" fill="#FEFEFE"></path>
                <path d="M96.5376,68.8104 L96.5376,71.5914 L96.5376,74.3754 L96.5376,77.8944 L96.5376,86.6994 C97.8086,86.2864 99.1596,86.0594 100.5646,86.0594 C101.9706,86.0594 103.3216,86.2864 104.5916,86.6994 L104.5916,77.8944 L104.5916,74.3754 L104.5916,71.5914 L104.5916,68.8104 L104.5916,31.4934 L96.5376,31.4934 L96.5376,68.8104 Z" id="Fill-45" fill="#FEFEFE"></path>
            </g>
        </g>
    </g>
</svg>