<svg width="338" height="51" viewBox="0 0 338 51" fill="none" xmlns="http://www.w3.org/2000/svg">
<path d="M259.929 38.3092V32.163H262.735C263.214 32.163 263.613 32.2182 263.932 32.3286C264.25 32.4329 264.49 32.6046 264.649 32.8438C264.815 33.0769 264.898 33.3836 264.898 33.7639C264.898 34.132 264.821 34.4295 264.668 34.6564C264.52 34.8773 264.272 35.0367 263.922 35.1349C264.339 35.2269 264.637 35.3956 264.815 35.6409C264.993 35.8863 265.082 36.2114 265.082 36.6162C265.082 37.2296 264.888 37.6651 264.502 37.9228C264.116 38.1804 263.527 38.3092 262.735 38.3092H259.929ZM260.72 37.6283H262.616C263.027 37.6283 263.352 37.5915 263.591 37.5179C263.83 37.4443 264.002 37.3308 264.106 37.1775C264.217 37.018 264.272 36.8095 264.272 36.5518C264.272 36.2942 264.217 36.0856 264.106 35.9262C264.002 35.7667 263.83 35.6532 263.591 35.5857C263.352 35.5121 263.027 35.4753 262.616 35.4753H260.72V37.6283ZM260.72 34.8128H262.616C263.156 34.8128 263.536 34.7423 263.757 34.6012C263.978 34.454 264.088 34.1964 264.088 33.8283C264.088 33.4603 263.978 33.2058 263.757 33.0647C263.536 32.9175 263.156 32.8438 262.616 32.8438H260.72V34.8128ZM267.433 38.3092V35.917L264.967 32.163H265.896L267.829 35.1901L269.761 32.163H270.69L268.224 35.917V38.3092H267.433ZM274.71 38.3092V30.7972H277.274C278.548 30.7972 279.519 31.112 280.186 31.7418C280.854 32.3715 281.187 33.3087 281.187 34.5532C281.187 35.7977 280.854 36.7348 280.186 37.3646C279.519 37.9943 278.548 38.3092 277.274 38.3092H274.71ZM275.677 37.477H277.195C278.252 37.477 279.017 37.2371 279.489 36.7573C279.961 36.27 280.198 35.5353 280.198 34.5532C280.198 33.5711 279.961 32.8401 279.489 32.3603C279.017 31.873 278.252 31.6293 277.195 31.6293H275.677V37.477ZM281.329 38.3092L284.41 30.7972H285.467L288.548 38.3092H287.502L286.85 36.6673H283.015L282.374 38.3092H281.329ZM283.342 35.8577H286.535L284.938 31.8205L283.342 35.8577ZM290.252 38.3092L287.171 30.7972H288.239L290.781 37.2071L293.322 30.7972H294.391L291.309 38.3092H290.252ZM295.641 38.3092V30.7972H296.609V38.3092H295.641ZM298.464 38.3092V30.7972H301.028C302.302 30.7972 303.273 31.112 303.94 31.7418C304.608 32.3715 304.941 33.3087 304.941 34.5532C304.941 35.7977 304.608 36.7348 303.94 37.3646C303.273 37.9943 302.302 38.3092 301.028 38.3092H298.464ZM299.431 37.477H300.949C302.006 37.477 302.771 37.2371 303.243 36.7573C303.715 36.27 303.952 35.5353 303.952 34.5532C303.952 33.5711 303.715 32.8401 303.243 32.3603C302.771 31.873 302.006 31.6293 300.949 31.6293H299.431V37.477ZM309.193 38.3092V30.7972H312.117C313.024 30.7972 313.706 30.9883 314.164 31.3707C314.629 31.7455 314.861 32.3303 314.861 33.125C314.861 33.9197 314.629 34.5082 314.164 34.8905C313.706 35.2654 313.024 35.4528 312.117 35.4528H310.16V38.3092H309.193ZM310.16 34.6207H311.926C312.556 34.6207 313.039 34.5119 313.377 34.2945C313.714 34.0696 313.883 33.6798 313.883 33.125C313.883 32.5702 313.721 32.1841 313.399 31.9667C313.077 31.7418 312.586 31.6293 311.926 31.6293H310.16V34.6207ZM319.839 38.4217C319.059 38.4217 318.385 38.2567 317.815 37.9269C317.245 37.5895 316.807 37.1322 316.499 36.5549C316.192 35.9701 316.038 35.3029 316.038 34.5532C316.038 33.8035 316.192 33.14 316.499 32.5627C316.807 31.9779 317.245 31.5206 317.815 31.1907C318.385 30.8534 319.059 30.6847 319.839 30.6847C320.626 30.6847 321.301 30.8534 321.863 31.1907C322.433 31.5206 322.872 31.9779 323.179 32.5627C323.486 33.14 323.64 33.8035 323.64 34.5532C323.64 35.3029 323.486 35.9701 323.179 36.5549C322.872 37.1322 322.433 37.5895 321.863 37.9269C321.301 38.2567 320.626 38.4217 319.839 38.4217ZM319.839 37.567C320.416 37.567 320.915 37.4433 321.335 37.1959C321.755 36.941 322.077 36.5886 322.302 36.1388C322.534 35.6815 322.651 35.1529 322.651 34.5532C322.651 33.9534 322.534 33.4286 322.302 32.9788C322.077 32.5215 321.755 32.1691 321.335 31.9217C320.915 31.6668 320.416 31.5394 319.839 31.5394C319.262 31.5394 318.763 31.6668 318.343 31.9217C317.924 32.1691 317.597 32.5215 317.365 32.9788C317.14 33.4286 317.028 33.9534 317.028 34.5532C317.028 35.1529 317.14 35.6815 317.365 36.1388C317.597 36.5886 317.924 36.941 318.343 37.1959C318.763 37.4433 319.262 37.567 319.839 37.567ZM326.129 38.3092V31.6518H323.768V30.7972H329.447V31.6518H327.096V38.3092H326.129ZM332.816 38.4217C332.298 38.4217 331.826 38.3429 331.399 38.1855C330.971 38.0281 330.548 37.7657 330.128 37.3983L330.544 36.6336C330.949 36.9635 331.331 37.2034 331.691 37.3533C332.051 37.4958 332.426 37.567 332.816 37.567C333.393 37.567 333.839 37.4508 334.154 37.2184C334.469 36.9785 334.626 36.6411 334.626 36.2063C334.626 35.9064 334.529 35.659 334.334 35.4641C334.146 35.2616 333.869 35.123 333.502 35.048L332.208 34.8006C331.556 34.6806 331.084 34.4557 330.792 34.1258C330.499 33.7885 330.353 33.3911 330.353 32.9338C330.353 32.5215 330.447 32.1466 330.634 31.8093C330.822 31.4719 331.106 31.202 331.489 30.9996C331.871 30.7897 332.347 30.6847 332.917 30.6847C333.367 30.6847 333.798 30.7522 334.21 30.8871C334.623 31.0146 335.016 31.2357 335.391 31.5506L334.975 32.3153C334.653 32.0754 334.33 31.888 334.008 31.753C333.685 31.6106 333.329 31.5394 332.939 31.5394C332.415 31.5394 332.017 31.6556 331.747 31.888C331.477 32.1129 331.343 32.4203 331.343 32.8101C331.343 33.11 331.436 33.3462 331.624 33.5186C331.819 33.6835 332.1 33.8035 332.467 33.8784L333.76 34.1258C334.405 34.2458 334.874 34.4932 335.166 34.8681C335.466 35.2429 335.616 35.659 335.616 36.1163C335.616 36.7985 335.372 37.3533 334.885 37.7807C334.405 38.208 333.715 38.4217 332.816 38.4217Z" fill="white"/>
<path fill-rule="evenodd" clip-rule="evenodd" d="M57.3819 25.0907C56.4555 23.9687 54.9968 23.0689 53.0474 22.4162C52.5731 22.2551 52.0961 22.108 51.6135 21.9691C51.1669 21.8386 50.767 21.6886 50.4251 21.5192C50.1053 21.3637 49.8544 21.1831 49.6669 20.9832C49.529 20.8304 49.4628 20.6388 49.4628 20.3889C49.4628 19.9973 49.6145 19.6973 49.9398 19.4502C50.6181 18.9364 51.801 18.8808 53.0226 19.3613L53.5906 19.5862C54.0152 19.8723 54.5639 20.2722 54.8121 20.4694C55.063 20.6666 55.4876 20.3889 55.7634 19.8501L57.5887 16.2425C57.859 15.7065 57.7955 15.1177 57.4454 14.9372C57.0952 14.7539 56.359 14.4067 55.8102 14.1623C55.8102 14.1623 55.3084 13.9402 54.0869 13.6291C51.5336 12.9737 49.1099 13.0042 47.2018 13.718C46.1981 14.0929 45.3295 14.6289 44.6236 15.3149C43.9233 16.0036 43.3718 16.834 42.9858 17.7922C42.6025 18.7447 42.4067 19.8167 42.4067 20.9748C42.4067 22.1441 42.597 23.1383 42.9692 23.9215C43.3415 24.6991 43.8378 25.3601 44.4499 25.8766C45.0483 26.3876 45.7349 26.7959 46.4876 27.0931C47.21 27.3847 47.9463 27.6485 48.6825 27.8846C49.2919 28.0929 49.8102 28.2817 50.2431 28.4594C50.6264 28.615 50.9435 28.7816 51.1779 28.9566C51.3792 29.1065 51.5198 29.2676 51.597 29.4287C51.677 29.6009 51.7183 29.8092 51.7183 30.0563C51.7183 30.4507 51.5501 30.7979 51.2082 31.1228C50.5327 31.756 48.8231 31.806 47.2459 31.1089C46.4683 30.7618 46.165 30.5312 46.165 30.5312C45.6852 30.1674 45.0786 29.6842 44.8167 29.4537C44.5547 29.226 44.108 29.4759 43.8268 30.0091L41.8553 33.7417C41.574 34.2777 41.6071 34.8554 41.9297 35.0248C42.2551 35.197 42.9582 35.5636 43.4904 35.8357C43.4904 35.8357 46.8847 37.5798 49.7606 37.5798C51.1531 37.5798 52.4215 37.391 53.5299 37.0105C54.6549 36.6245 55.6172 36.0718 56.3948 35.3747C57.1807 34.6665 57.7845 33.8084 58.1926 32.8169C58.5979 31.8393 58.802 30.7284 58.802 29.5315C58.802 27.7263 58.325 26.2321 57.3819 25.0907" fill="white"/>
<path fill-rule="evenodd" clip-rule="evenodd" d="M78.2622 25.367C78.2622 26.1614 78.1095 26.9087 77.8124 27.5753C77.5125 28.2448 77.0959 28.8365 76.5739 29.3365C76.0491 29.8281 75.4354 30.2254 74.7523 30.5004C73.3972 31.0531 71.7422 31.0476 70.3898 30.5004C69.7067 30.2254 69.1014 29.8309 68.5876 29.3392C68.0739 28.842 67.6602 28.2476 67.3575 27.5753C67.0604 26.9087 66.9104 26.1614 66.9104 25.367C66.9104 24.5698 67.0604 23.8225 67.3603 23.1586C67.6602 22.4864 68.0739 21.8892 68.5876 21.3947C69.1014 20.9003 69.7067 20.5086 70.3898 20.2308C71.0729 19.9614 71.806 19.8197 72.5724 19.8197C73.3333 19.8197 74.0692 19.9614 74.7523 20.2308C75.4354 20.5086 76.0491 20.9031 76.5739 21.3975C77.0959 21.8947 77.5125 22.4892 77.8124 23.1586C78.1095 23.8225 78.2622 24.5698 78.2622 25.367M84.4137 20.5657C83.7806 19.0823 82.8864 17.7795 81.7562 16.6795C80.6288 15.5823 79.2598 14.7073 77.6909 14.0851C74.5531 12.8462 70.5127 12.8545 67.4276 14.0851C65.8698 14.7101 64.5091 15.5851 63.3928 16.6823C62.2766 17.7795 61.388 19.0851 60.7521 20.5657C60.1217 22.0435 59.8024 23.6601 59.8024 25.3685C59.8024 27.0768 60.1217 28.6907 60.7521 30.1713C61.388 31.6491 62.2766 32.9547 63.3928 34.0519C64.5147 35.1575 65.8754 36.0325 67.4304 36.6491C68.9799 37.2658 70.7099 37.5797 72.5704 37.5797C74.4087 37.5797 76.1303 37.2658 77.6909 36.6519C79.2543 36.0352 80.6233 35.1575 81.7562 34.0547C82.8864 32.9547 83.7806 31.6519 84.4137 30.1713C85.044 28.6907 85.3662 27.0768 85.3662 25.3685C85.3662 23.6601 85.044 22.0435 84.4137 20.5657" fill="white"/>
<path fill-rule="evenodd" clip-rule="evenodd" d="M103.606 13.8712C102.997 13.8712 102.499 14.3704 102.499 14.9817V25.1947C102.499 25.806 102.214 25.893 101.867 25.3938L94.4756 14.7798C94.1261 14.2806 93.3461 13.8712 92.7366 13.8712H88.325C87.7156 13.8712 87.2207 14.3704 87.2207 14.9817V36.1789C87.2207 36.7903 87.7156 37.2922 88.325 37.2922H93.0022C93.6089 37.2922 94.1065 36.7903 94.1065 36.1789V25.9631C94.1065 25.3574 94.3917 25.2648 94.7411 25.764L102.133 36.378C102.48 36.88 103.262 37.2922 103.872 37.2922H108.253C108.859 37.2922 109.357 36.7903 109.357 36.1789V14.9817C109.357 14.3704 108.859 13.8712 108.253 13.8712H103.606Z" fill="white"/>
<path fill-rule="evenodd" clip-rule="evenodd" d="M167.15 13.8712C166.539 13.8712 166.041 14.3704 166.041 14.9817V24.9872C166.041 25.5985 165.78 25.6686 165.464 25.1471L159.151 14.8162C158.832 14.2946 158.073 13.8712 157.465 13.8712H153.023C152.416 13.8712 151.917 14.3704 151.917 14.9817V36.1789C151.917 36.7903 152.416 37.2922 153.023 37.2922H157.706C158.317 37.2922 158.815 36.7903 158.815 36.1789V26.1734C158.815 25.5649 159.076 25.492 159.395 26.0108L165.707 36.3444C166.027 36.8632 166.786 37.2922 167.393 37.2922H171.804C172.412 37.2922 172.911 36.7903 172.911 36.1789V14.9817C172.911 14.3704 172.412 13.8712 171.804 13.8712H167.15Z" fill="white"/>
<path fill-rule="evenodd" clip-rule="evenodd" d="M193.367 25.367C193.367 26.1614 193.217 26.9087 192.917 27.5753C192.618 28.2448 192.204 28.8365 191.679 29.3365C191.154 29.8281 190.543 30.2254 189.857 30.5004C188.502 31.0531 186.847 31.0476 185.495 30.5004C184.812 30.2254 184.206 29.8309 183.693 29.3392C183.179 28.842 182.765 28.2476 182.463 27.5753C182.165 26.9087 182.015 26.1614 182.015 25.367C182.015 24.5698 182.165 23.8225 182.465 23.1586C182.765 22.4864 183.179 21.8892 183.693 21.3947C184.206 20.9003 184.812 20.5086 185.495 20.2308C186.178 19.9614 186.914 19.8197 187.677 19.8197C188.441 19.8197 189.174 19.9614 189.857 20.2308C190.543 20.5086 191.154 20.9031 191.679 21.3975C192.204 21.8947 192.618 22.4892 192.917 23.1586C193.217 23.8225 193.367 24.5698 193.367 25.367M199.521 20.5657C198.888 19.0823 197.994 17.7795 196.864 16.6795C195.736 15.5823 194.367 14.7073 192.801 14.0851C189.663 12.8462 185.623 12.8545 182.535 14.0851C180.977 14.7101 179.619 15.5851 178.503 16.6823C177.384 17.7795 176.495 19.0851 175.862 20.5657C175.229 22.0435 174.91 23.6601 174.91 25.3685C174.91 27.0768 175.229 28.6907 175.862 30.1713C176.495 31.6491 177.384 32.9547 178.503 34.0519C179.625 35.1575 180.983 36.0325 182.538 36.6491C184.087 37.2658 185.817 37.5797 187.678 37.5797C189.516 37.5797 191.238 37.2658 192.801 36.6519C194.365 36.0352 195.731 35.1575 196.864 34.0547C197.994 32.9547 198.888 31.6519 199.521 30.1713C200.151 28.6907 200.474 27.0768 200.474 25.3685C200.474 23.6601 200.151 22.0435 199.521 20.5657" fill="white"/>
<path fill-rule="evenodd" clip-rule="evenodd" d="M203.213 13.8712C202.598 13.8712 201.97 14.3535 201.815 14.9452L200.794 18.8207C200.636 19.4096 201.011 19.8919 201.626 19.8919H204.983C205.597 19.8919 206.099 20.3911 206.099 21.0024V36.1789C206.099 36.7903 206.601 37.2922 207.215 37.2922H211.928C212.542 37.2922 213.044 36.7903 213.044 36.1789V21.0024C213.044 20.3911 213.546 19.8919 214.157 19.8919H217.351C217.963 19.8919 218.467 19.3928 218.467 18.7814V14.9817C218.467 14.3704 217.963 13.8712 217.351 13.8712H203.213Z" fill="white"/>
<path fill-rule="evenodd" clip-rule="evenodd" d="M249.588 25.0906C248.647 23.9686 247.166 23.0687 245.185 22.4161C244.703 22.255 244.219 22.1078 243.729 21.969C243.275 21.8384 242.869 21.6885 242.521 21.5191C242.199 21.3635 241.941 21.183 241.751 20.9831C241.611 20.8303 241.544 20.6387 241.544 20.3887C241.544 19.9971 241.698 19.6972 242.028 19.45C242.717 18.9363 243.919 18.8807 245.16 19.3612L245.737 19.5861C246.171 19.8749 246.729 20.2749 246.981 20.4721C247.233 20.6665 247.664 20.3887 247.944 19.85L249.799 16.2424C250.073 15.7063 250.073 15.1481 249.793 15.0009C249.513 14.8565 248.829 14.5371 248.272 14.29C248.272 14.29 247.482 13.94 246.241 13.629C243.647 12.9736 241.185 13.0041 239.247 13.7179C238.227 14.0928 237.345 14.6288 236.628 15.3148C235.919 16.0035 235.356 16.8339 234.964 17.792C234.575 18.7446 234.376 19.8166 234.376 20.9747C234.376 22.1439 234.569 23.1382 234.95 23.9214C235.325 24.699 235.829 25.36 236.451 25.8765C237.059 26.3875 237.757 26.7958 238.521 27.0929C239.255 27.3845 240.003 27.6484 240.751 27.8844C241.37 28.0927 241.897 28.2816 242.336 28.4593C242.726 28.6148 243.048 28.7815 243.286 28.9564C243.49 29.1064 243.633 29.2675 243.712 29.4286C243.793 29.6008 243.835 29.8091 243.835 30.0562C243.835 30.4506 243.664 30.7977 243.317 31.1227C242.944 31.467 242.701 31.617 241.905 31.617C241.222 31.617 240.359 31.2421 239.518 30.8727L238.687 30.5089C238.328 30.2756 237.785 29.9007 237.479 29.6785C237.174 29.4563 236.692 29.7091 236.404 30.2423L234.53 33.7416C234.241 34.2776 234.255 34.8802 234.558 35.0885C234.86 35.2941 235.538 35.7106 236.068 36.0161C236.068 36.0161 238.776 37.5797 241.846 37.5797C243.261 37.5797 244.549 37.3908 245.675 37.0104C246.818 36.6243 247.796 36.0717 248.586 35.3746C249.384 34.6664 249.997 33.8082 250.412 32.8168C250.824 31.8392 251.031 30.7283 251.031 29.5313C251.031 27.7261 250.546 26.232 249.588 25.0906" fill="white"/>
<path fill-rule="evenodd" clip-rule="evenodd" d="M231.493 19.8559C232.106 19.8559 232.607 19.357 232.607 18.7521V14.9723C232.607 14.3646 232.106 13.8712 231.493 13.8712H221.151C220.538 13.8712 220.039 14.3646 220.039 14.9723V36.0456C220.039 36.6504 220.538 37.1494 221.151 37.1494H231.493C232.106 37.1494 232.607 36.6504 232.607 36.0456V32.2657C232.607 31.6581 232.106 31.1647 231.493 31.1647H228.085C227.471 31.1647 226.971 30.6657 226.971 30.0581V29.548C226.971 28.9403 227.471 28.4413 228.085 28.4413H231.493C232.106 28.4413 232.607 27.9452 232.607 27.3403V23.5605C232.607 22.9528 232.106 22.4594 231.493 22.4594H228.085C227.471 22.4594 226.971 21.9605 226.971 21.3528V20.9597C226.971 20.3521 227.471 19.8559 228.085 19.8559H231.493Z" fill="white"/>
<path fill-rule="evenodd" clip-rule="evenodd" d="M137.065 25.0187C137.018 24.652 136.959 24.1603 136.931 23.9242C136.904 23.6909 136.387 23.4992 135.785 23.4992H125.513C124.91 23.4992 124.413 23.9937 124.413 24.5992V27.5964C124.413 28.202 124.91 28.6936 125.513 28.6936H127.418C128.023 28.6936 128.398 28.677 128.398 28.9492C128.398 29.2186 128.618 30.0186 127.904 30.4603C126.968 31.0409 123.439 31.0492 122.086 30.502C121.403 30.227 120.798 29.8325 120.284 29.3409C119.77 28.8436 119.359 28.2492 119.057 27.577C118.757 26.9103 118.607 26.1631 118.607 25.3687C118.607 24.5714 118.757 23.8242 119.057 23.1603C119.359 22.4881 119.77 21.8909 120.284 21.3965C120.798 20.902 121.403 20.5104 122.086 20.2326C123.453 19.6909 125.083 19.6909 126.452 20.2326C127.135 20.5104 127.446 20.7576 127.446 20.7576C127.918 21.1381 128.412 21.5687 128.548 21.7187C128.681 21.8687 129.167 21.6715 129.628 21.277L132.858 18.5159C133.319 18.1243 133.771 17.6937 133.869 17.5632C133.963 17.4354 133.955 17.2298 133.846 17.1159C133.741 16.9993 133.596 16.8354 133.53 16.7493L133.458 16.6798C132.327 15.5826 130.961 14.7076 129.392 14.0826C126.252 12.8465 122.214 12.8549 119.129 14.0854C117.568 14.7104 116.211 15.5854 115.094 16.6826C113.975 17.7798 113.087 19.0854 112.453 20.5659C111.823 22.0437 111.501 23.6603 111.501 25.3687C111.501 27.077 111.823 28.6909 112.453 30.1714C113.087 31.6492 113.975 32.9547 115.094 34.0519C116.216 35.1575 117.574 36.0325 119.129 36.6492C120.679 37.2658 122.408 37.5797 124.269 37.5797C126.107 37.5797 127.832 37.2658 129.392 36.6492C130.956 36.0353 132.322 35.1575 133.458 34.0547C134.585 32.9547 135.479 31.652 136.112 30.1686C136.745 28.6909 137.065 27.077 137.065 25.3687V25.0187Z" fill="white"/>
<path d="M0.703951 20.2826C1.30632 18.5436 2.25885 16.9441 3.50377 15.581C4.92268 14.0378 6.65272 12.807 8.58192 11.9684C10.5111 11.1299 12.5965 10.7021 14.703 10.7129H15.503H16.3029C18.4095 10.7021 20.4948 11.1299 22.424 11.9684C24.3532 12.807 26.0833 14.0378 27.5022 15.581C28.7471 16.9441 29.6996 18.5436 30.302 20.2826C30.768 21.6409 31.0058 23.0659 31.006 24.5006C31.006 24.667 31.006 24.8256 31.006 24.9921C30.9246 26.8548 30.4447 28.679 29.598 30.3439C28.3323 32.7617 26.4137 34.7834 24.0562 36.1834C21.6986 37.5834 18.995 38.3066 16.2469 38.2724C15.9909 38.2724 15.727 38.2724 15.447 38.2724C15.167 38.2724 14.935 38.2724 14.647 38.2724C11.899 38.3066 9.19532 37.5834 6.8378 36.1834C4.48029 34.7834 2.56163 32.7617 1.29591 30.3439C0.488 28.6705 0.0463604 26.8466 -6.6489e-06 24.9921C-6.6489e-06 24.8256 -6.6489e-06 24.667 -6.6489e-06 24.5006C0.000125035 23.0659 0.237944 21.6409 0.703951 20.2826V20.2826Z" fill="#61D9FF"/>
<path d="M4.82425 39.9733C4.82425 37.4568 5.53287 36.3393 6.832 34.4224L7.10455 33.9773C7.87676 32.8053 7.58605 32.2784 7.00462 31.2518C6.46708 30.4392 6.15369 29.499 6.09613 28.5264C6.09613 26.0825 7.84951 24.2655 10.5205 23.7477C11.0623 23.6137 11.6162 23.5346 12.1739 23.5115C12.7005 23.5437 13.2216 23.3893 13.6457 23.0754L13.3731 12.3099C13.1934 12.2189 13.0001 12.1575 12.8008 12.1282C12.5654 12.1113 12.344 12.0101 12.1771 11.8433C12.0103 11.6764 11.9092 11.455 11.8923 11.2197C11.7982 8.94692 11.5768 6.68123 11.2291 4.43327C11.2204 4.29133 11.2417 4.14915 11.2918 4.01606C11.3419 3.88298 11.4196 3.76199 11.5198 3.66105C12.1921 2.98877 12.1921 2.98877 13.0733 2.06211C13.1671 1.96396 13.2799 1.88594 13.4049 1.83284C13.5299 1.77973 13.6643 1.75264 13.8001 1.75323H17.434C17.5698 1.75264 17.7043 1.77973 17.8293 1.83284C17.9542 1.88594 18.067 1.96396 18.1608 2.06211C19.0693 2.9706 19.0693 2.9706 19.7144 3.66105C19.8145 3.76199 19.8922 3.88298 19.9423 4.01606C19.9924 4.14915 20.0138 4.29133 20.0051 4.43327C19.6493 6.69891 19.4218 8.98286 19.3237 11.2742C19.3068 11.5095 19.2057 11.7309 19.0388 11.8978C18.872 12.0647 18.6506 12.1658 18.4152 12.1827C18.2162 12.2134 18.0231 12.2747 17.8429 12.3644L17.5703 23.1299C18.0164 23.4371 18.5585 23.5727 19.0966 23.5115C19.6463 23.5179 20.1941 23.5788 20.7319 23.6932V23.6932C23.4028 24.211 25.1562 26.028 25.1562 28.4718C25.0986 29.4445 24.7852 30.3847 24.2477 31.1973C23.6663 32.233 23.3392 32.7599 24.1478 33.9228L24.4385 34.3679C25.7376 36.3212 26.4553 37.4023 26.4553 39.9188C26.4553 39.9642 26.4553 40.0005 26.4553 40.0369C26.3827 45.0426 21.9129 49.1218 16.3711 49.1218H14.8994C9.37577 49.1218 4.90601 45.0699 4.82425 40.0369V39.9733ZM17.643 10.3203L17.8429 7.22232C17.9973 5.83234 18.1699 4.49686 18.1699 4.49686C17.8338 4.16072 17.3705 3.85183 16.889 3.34308H14.3724C13.891 3.85183 13.464 4.16072 13.0915 4.49686C13.0915 4.49686 13.2641 5.796 13.4185 7.22232L13.6184 10.3203C14.3299 10.5193 15.007 10.8256 15.6262 11.2288C16.2482 10.8248 16.9283 10.5184 17.643 10.3203V10.3203ZM6.81383 40.0914C6.88651 43.9797 10.4478 45.933 14.8994 45.933H16.3711C20.7864 45.933 24.384 43.9797 24.4567 40.0914C24.4567 40.0914 24.4567 40.0187 24.4567 39.9733C24.4567 38.0564 24.0297 37.4204 22.776 35.5308L22.4762 35.0765C21.962 34.3809 21.6845 33.5386 21.6845 32.6736C21.6845 31.8085 21.962 30.9663 22.4762 30.2706C22.8481 29.7327 23.0706 29.1057 23.1212 28.4537C23.0951 27.7873 22.8378 27.1508 22.3935 26.6535C21.9492 26.1561 21.3457 25.829 20.6864 25.7282V25.7282C20.1967 25.601 19.6934 25.5339 19.1874 25.5283H17.5522L17.4613 29.5257C18.28 29.9421 18.9347 30.6221 19.3197 31.456C19.7047 32.29 19.7977 33.2293 19.5836 34.1226C19.3695 35.0158 18.8608 35.8109 18.1396 36.3797C17.4183 36.9485 16.5265 37.2579 15.608 37.2579C14.6894 37.2579 13.7977 36.9485 13.0764 36.3797C12.3552 35.8109 11.8465 35.0158 11.6324 34.1226C11.4183 33.2293 11.5113 32.29 11.8963 31.456C12.2813 30.6221 12.9359 29.9421 13.7547 29.5257L13.6638 25.5283H12.0285C11.5227 25.5345 11.0194 25.6016 10.5295 25.7282V25.7282C9.87033 25.829 9.26676 26.1561 8.82247 26.6535C8.37819 27.1508 8.12091 27.7873 8.0948 28.4537C8.14534 29.1057 8.36791 29.7327 8.73983 30.2706C9.254 30.9663 9.53147 31.8085 9.53147 32.6736C9.53147 33.5386 9.254 34.3809 8.73983 35.0765L8.44003 35.5308C7.18631 37.4204 6.75932 38.0564 6.75932 39.9733C6.75932 40.0187 6.75932 40.0551 6.75932 40.0914H6.81383Z" fill="#153857"/>
<path d="M12.8018 38.1568H18.1982C18.265 38.1602 18.3295 38.1826 18.3842 38.2211C18.4388 38.2597 18.4815 38.313 18.5071 38.3748L18.8614 39.356C18.8729 39.3793 18.878 39.4052 18.876 39.4312C18.8741 39.4571 18.8653 39.482 18.8504 39.5034C18.8356 39.5247 18.8153 39.5417 18.7916 39.5525C18.768 39.5633 18.7419 39.5676 18.7161 39.5649H12.284C12.2581 39.5676 12.232 39.5633 12.2084 39.5525C12.1847 39.5417 12.1645 39.5247 12.1496 39.5034C12.1348 39.482 12.1259 39.4571 12.124 39.4312C12.122 39.4052 12.1271 39.3793 12.1386 39.356L12.4929 38.3748C12.5186 38.313 12.5612 38.2597 12.6158 38.2211C12.6705 38.1826 12.735 38.1602 12.8018 38.1568V38.1568Z" fill="#153857"/>
<path d="M8.42624 35.5293L8.72604 35.0751C9.24021 34.3794 9.51768 33.5372 9.51768 32.6721C9.51768 31.8071 9.24021 30.9648 8.72604 30.2692C8.35412 29.7312 8.13155 29.1042 8.08101 28.4522C8.10712 27.7858 8.3644 27.1493 8.80869 26.652C9.25297 26.1547 9.85654 25.8275 10.5158 25.7267V25.7267C11.0056 25.6001 11.5089 25.533 12.0148 25.5269H13.65L13.7409 29.5242C12.9222 29.9406 12.2675 30.6206 11.8825 31.4546C11.4975 32.2885 11.4045 33.2278 11.6186 34.1211C11.8327 35.0143 12.3414 35.8095 13.0626 36.3783C13.7839 36.947 14.6757 37.2564 15.5942 37.2564C16.5127 37.2564 17.4045 36.947 18.1258 36.3783C18.847 35.8095 19.3557 35.0143 19.5698 34.1211C19.7839 33.2278 19.6909 32.2885 19.3059 31.4546C18.9209 30.6206 18.2663 29.9406 17.4475 29.5242L17.5384 25.5269H19.1736C19.6796 25.5324 20.1829 25.5995 20.6726 25.7267V25.7267C21.3319 25.8275 21.9354 26.1547 22.3797 26.652C22.824 27.1493 23.0813 27.7858 23.1074 28.4522C23.0569 29.1042 22.8343 29.7312 22.4624 30.2692C21.9482 30.9648 21.6707 31.8071 21.6707 32.6721C21.6707 33.5372 21.9482 34.3794 22.4624 35.0751L22.7622 35.5293C23.9614 37.419 24.3884 38.0458 24.3884 39.9718C24.3884 40.0172 24.3884 40.0536 24.3884 40.0899C24.3157 43.9783 20.7544 45.9315 16.3028 45.9315H14.8311C10.4158 45.9315 6.81821 43.9783 6.74554 40.0899C6.74554 40.0899 6.74554 40.0172 6.74554 39.9718C6.74554 38.0458 7.17252 37.419 8.42624 35.5293ZM12.3509 39.563H18.783C18.8088 39.5657 18.8349 39.5614 18.8586 39.5506C18.8822 39.5397 18.9025 39.5228 18.9174 39.5014C18.9322 39.4801 18.941 39.4552 18.943 39.4292C18.9449 39.4033 18.9399 39.3774 18.9284 39.354L18.574 38.3729C18.5484 38.3111 18.5058 38.2578 18.4511 38.2192C18.3964 38.1806 18.332 38.1583 18.2652 38.1548H12.8687C12.8019 38.1583 12.7374 38.1806 12.6828 38.2192C12.6281 38.2578 12.5855 38.3111 12.5599 38.3729L12.2055 39.354C12.194 39.3774 12.189 39.4033 12.1909 39.4292C12.1928 39.4552 12.2017 39.4801 12.2165 39.5014C12.2314 39.5228 12.2517 39.5397 12.2753 39.5506C12.2989 39.5614 12.325 39.5657 12.3509 39.563Z" fill="white"/>
<path d="M13.6427 10.3189L13.4791 7.221C13.3247 5.83101 13.1521 4.49554 13.1521 4.49554C13.4791 4.19574 13.9152 3.88685 14.3876 3.3781H16.9041C17.3856 3.88685 17.8126 4.19574 18.1851 4.53188C18.1851 4.53188 18.0125 5.83101 17.858 7.25734L17.6582 10.3553C16.9466 10.5543 16.2696 10.8606 15.6504 11.2638C15.0335 10.8479 14.3563 10.5293 13.6427 10.3189V10.3189Z" fill="white"/>
<path d="M6.80004 39.2831C7.05442 42.8535 10.5612 44.6523 14.8583 44.6523H16.3301C20.6272 44.6523 24.134 42.8353 24.3884 39.2831C24.3884 39.5012 24.3884 39.7283 24.3884 39.9736C24.3884 40.019 24.3884 40.0554 24.3884 40.0917C24.3157 43.98 20.7544 45.9333 16.3028 45.9333H14.8311C10.4158 45.9333 6.81822 43.98 6.74554 40.0917C6.74554 40.0917 6.74554 40.019 6.74554 39.9736C6.77279 39.7283 6.78187 39.5012 6.80004 39.2831Z" fill="#E9E6ED"/>
</svg>
