<?xml version="1.0" encoding="UTF-8"?>
<svg width="999px" height="774px" viewBox="0 0 999 774" version="1.1" xmlns="http://www.w3.org/2000/svg" xmlns:xlink="http://www.w3.org/1999/xlink">
    <!-- Generator: Sketch 49 (51002) - http://www.bohemiancoding.com/sketch -->
    <title>Artboard Copy 13</title>
    <desc>Created with Sketch.</desc>
    <defs></defs>
    <g id="Artboard-Copy-13" stroke="none" stroke-width="1" fill="none" fill-rule="evenodd">
        <path d="M713.339431,230.190555 C704.63606,204.619018 690.680455,181.277151 672.669474,161.27979 C633.428776,117.68508 574.945378,90 509.582948,90 C505.794832,90 502.029956,90.1045158 498.28832,90.2903217 C494.546684,90.1045158 490.793428,90 486.993692,90 C421.631262,90 363.147864,117.68508 323.895546,161.27979 C305.896185,181.277151 291.94058,204.619018 283.237209,230.190555 C276.613816,249.67695 273,270.429147 273,291.971019 C273,294.36327 273.10458,296.732295 273.19754,299.112933 C274.220099,327.065109 281.250191,353.577289 293.137439,377.534638 C327.265342,446.294436 401.214943,493.965263 486.993692,493.965263 C490.793428,493.965263 494.535064,493.756231 498.28832,493.570426 C502.029956,493.756231 505.783212,493.965263 509.582948,493.965263 C595.361696,493.965263 669.311297,446.294436 703.439201,377.534638 C715.326448,353.577289 722.356541,327.065109 723.39072,299.112933 C723.47206,296.732295 723.57664,294.36327 723.57664,291.971019 C723.57664,270.429147 719.962823,249.67695 713.339431,230.190555" id="Fill-1-Copy" fill="#3DA7FF"></path>
        <path d="M612.824578,491.132628 C611.904022,540.813136 565.806292,565.804501 509.197908,565.804501 L499.724335,565.804501 L490.262415,565.804501 C433.65403,565.804501 387.544648,540.813136 386.635744,491.132628 L386.717313,491.132628 C386.70566,490.632801 386.624092,490.156221 386.624092,489.656394 C386.624092,465.095113 392.042556,456.935142 408.134812,432.722577 L411.956868,426.945504 C430.426257,398.955175 419.589328,379.578149 411.665553,365.443498 C407.237561,357.539253 403.415504,350.716029 403.415504,342.428195 C403.415504,325.131845 415.184642,312.519924 434.597892,307.382164 L434.597892,307.463532 C440.354281,305.940802 446.763218,305.057386 453.766437,304.929523 L474.787747,304.929523 L476.011271,356.074642 C459.033417,364.734441 447.287585,382.158653 447.287585,402.477214 C447.287585,431.362582 470.767596,454.784722 499.724335,454.784722 C528.692726,454.784722 552.161085,431.362582 552.161085,402.477214 C552.161085,382.158653 540.426905,364.734441 523.449051,356.074642 L524.672575,304.929523 L545.682233,304.929523 C552.697105,305.057386 559.106041,305.940802 564.862431,307.463532 L564.862431,307.382164 C584.275681,312.519924 596.044818,325.131845 596.044818,342.428195 C596.044818,350.716029 592.211109,357.539253 587.794769,365.443498 C579.870994,379.578149 569.022413,398.955175 587.491801,426.945504 L591.313858,432.722577 C607.406114,456.935142 612.824578,465.095113 612.824578,489.656394 C612.824578,490.156221 612.754662,490.632801 612.74301,491.132628 L612.824578,491.132628 Z M499.677724,140.56771 C499.70103,140.497966 499.712682,140.532838 499.724335,140.50959 C499.74764,140.532838 499.74764,140.497966 499.782598,140.56771 L499.770945,140.579334 C499.782598,140.602581 499.782598,140.590957 499.805903,140.649077 L499.794251,140.649077 C499.794251,140.951298 499.759293,140.962922 499.724335,140.881555 C499.689377,140.962922 499.654419,140.951298 499.654419,140.649077 L499.642767,140.649077 C499.666072,140.590957 499.677724,140.602581 499.689377,140.579334 L499.677724,140.56771 Z M474.007022,110.206107 L471.361879,70.6151357 C469.404241,52.7840875 467.21355,36.1851716 467.21355,36.1851716 C471.548321,31.8494604 477.43289,27.8740898 483.632079,21.3763349 L499.724335,21.3763349 L515.816591,21.3763349 C522.027432,27.8740898 527.900348,31.8494604 532.23512,36.1851716 C532.23512,36.1851716 530.044429,52.7840875 528.098443,70.6151357 L525.441647,110.206107 C517.412998,112.542509 507.484974,116.494632 499.724335,121.829998 C491.963696,116.494632 482.047324,112.542509 474.007022,110.206107 Z M638.44867,489.656394 C638.44867,457.400097 629.30137,443.614163 612.684747,418.59955 L608.909301,412.880596 C598.992929,397.874153 602.733417,391.190416 610.167783,377.904309 C615.294932,368.756307 621.66891,357.364894 621.66891,342.428195 C621.66891,311.206424 599.121107,287.958643 564.862431,281.28653 C564.839126,281.274906 564.81582,281.274906 564.804168,281.274906 C564.76921,281.263282 564.745905,281.251658 564.710947,281.251658 L564.710947,281.263282 C558.220442,280.007902 551.38036,279.263973 544.155741,279.263973 C531.2563,279.263973 525.278511,273.707753 525.278511,273.707753 L528.692726,135.941401 C532.339993,134.627902 533.109066,133.988588 536.033871,133.69799 C542.256365,133.058676 548.024408,127.30485 547.534998,121.829998 C545.985201,104.324419 556.216193,34.2672296 556.216193,34.2672296 C556.472551,30.5940802 555.097543,26.9790502 552.487358,24.3869226 C543.852773,15.7619957 543.852773,15.7619957 532.573045,3.96374671 C530.160955,1.42973855 526.805003,0 523.297567,0 L499.724335,0 L476.162755,0 C472.655319,0 469.299367,1.42973855 466.887277,3.96374671 C455.607549,15.7619957 455.607549,15.7619957 446.972965,24.3869226 C444.351127,26.9790502 442.987772,30.5940802 443.244129,34.2672296 C443.244129,34.2672296 453.463469,104.324419 451.913672,121.829998 C451.424262,127.30485 457.203957,133.058676 463.426451,133.69799 C466.351257,133.988588 467.108676,134.627902 470.767596,135.941401 L474.181811,273.707753 C474.181811,273.707753 468.204022,279.263973 455.304581,279.263973 C448.06831,279.263973 441.228227,280.007902 434.749375,281.263282 L434.749375,281.251658 C434.714418,281.251658 434.67946,281.263282 434.644502,281.274906 C434.632849,281.274906 434.609544,281.274906 434.597892,281.28653 C400.339215,287.958643 377.791413,311.206424 377.791413,342.428195 C377.791413,357.364894 384.153738,368.756307 389.280887,377.904309 C396.726906,391.190416 400.455741,397.874153 390.539369,412.880596 L386.763923,418.59955 C370.1473,443.614163 361,457.400097 361,489.656394 C361,490.156221 361.081568,490.632801 361.081568,491.132628 L361,491.132628 C361.885598,555.191889 419.496108,607.057689 490.262415,607.057689 L499.724335,607.057689 L509.197908,607.057689 C579.964215,607.057689 637.574724,555.191889 638.44867,491.132628 L638.367101,491.132628 C638.378754,490.632801 638.44867,490.156221 638.44867,489.656394 Z" id="Fill-3-Copy" fill="#333333"></path>
        <path d="M534.948907,466 L500.284309,466 L465.619712,466 C464.022319,466 462.285008,467.202874 461.736997,468.692147 L457.166354,481.064568 C456.618343,482.542385 457.469509,483.756715 459.055242,483.756715 L468.791179,483.756715 L500.284309,483.756715 L531.77744,483.756715 L541.501716,483.756715 C543.09911,483.756715 543.938615,482.542385 543.402264,481.064568 L538.831621,468.692147 C538.283611,467.202874 536.53464,466 534.948907,466" id="Fill-5-Copy" fill="#333333"></path>
        <path d="M540.681637,484.442109 L530.990943,484.442109 L499.64416,484.442109 L468.308983,484.442109 L458.618289,484.442109 C457.028319,484.442109 456.181108,483.221889 456.726573,481.722761 L461.275976,469.171924 C461.82144,467.661175 463.562283,466.429334 465.140648,466.429334 L499.64416,466.429334 L534.159278,466.429334 C535.737642,466.429334 537.46688,467.661175 538.012344,469.171924 L542.561747,481.722761 C543.107212,483.221889 542.260001,484.442109 540.681637,484.442109 M590.864343,432.751254 L587.057699,426.975544 C568.66279,398.991826 579.467623,379.619376 587.34784,365.488063 C591.757976,357.585684 595.56462,350.764071 595.56462,342.478195 C595.56462,325.18593 583.854548,312.576987 564.519583,307.452062 L564.519583,307.521789 C558.786406,306.01104 552.403314,305.116211 545.41673,305 L524.480189,305 L523.273205,356.121419 C540.182595,364.779173 551.869456,382.19927 551.869456,402.513033 C551.869456,431.403201 528.495734,454.808188 499.64416,454.808188 C470.804191,454.808188 447.418864,431.403201 447.418864,402.513033 C447.418864,382.19927 459.11733,364.779173 476.026721,356.121419 L474.80813,305 L453.87159,305 C446.896611,305.116211 440.51352,306.01104 434.780343,307.521789 L434.780343,307.452062 C415.433772,312.576987 403.7237,325.18593 403.7237,342.478195 C403.7237,350.764071 407.530344,357.585684 411.94048,365.488063 C419.820697,379.619376 430.62553,398.991826 412.230621,426.975544 L408.423977,432.751254 C392.396614,456.9581 387,465.116144 387,489.671625 C387,490.171334 387.081239,490.647801 387.092845,491.14751 L387.011606,491.14751 C387.916844,540.827908 433.828682,565.80175 490.220395,565.80175 L499.64416,565.80175 L509.07953,565.80175 C565.459638,565.80175 611.371476,540.827908 612.28832,491.14751 L612.20708,491.14751 C612.218686,490.647801 612.28832,490.171334 612.28832,489.671625 C612.28832,465.116144 606.891706,456.9581 590.864343,432.751254" id="Fill-7-Copy" fill="#FFFFFF"></path>
        <path d="M524.642895,110.316897 L527.261453,70.5140251 C529.199417,52.5875407 531.368091,35.8997833 531.368091,35.8997833 C527.06535,31.5408663 521.251458,27.5325325 515.114572,21 L499.184046,21 L483.25352,21 C477.105098,27.5325325 471.291206,31.5408663 467,35.8997833 C467,35.8997833 469.168674,52.5875407 471.106638,70.5140251 L473.725197,110.316897 C481.673156,112.654118 491.501403,116.627394 499.184046,121.991316 C506.866689,116.627394 516.694935,112.654118 524.642895,110.316897" id="Fill-9-Copy" fill="#FFFFFF"></path>
        <path d="M611.986574,481 C608.760211,526.882543 563.927696,550.010803 509.07953,550.010803 L499.64416,550.010803 L490.220395,550.010803 C435.360624,550.010803 390.528109,526.882543 387.301746,481 C387.116056,483.734721 387,486.656432 387,489.893687 C387,490.396221 387.081239,490.875382 387.092845,491.377916 L387.011606,491.377916 C387.916844,541.32748 433.828682,566.45419 490.220395,566.45419 L499.64416,566.45419 L509.07953,566.45419 C565.459638,566.45419 611.371476,541.32748 612.28832,491.377916 L612.20708,491.377916 C612.218686,490.875382 612.28832,490.396221 612.28832,489.893687 C612.28832,486.656432 612.183869,483.734721 611.986574,481" id="Fill-11-Copy" fill="#E9E6ED"></path>
        <path d="M75.1072142,713.835101 C70.6800554,708.490555 63.7099155,704.204335 54.3944356,701.095502 C52.1281519,700.328216 49.8486922,699.627075 47.5428803,698.965621 C45.4083573,698.343855 43.4978275,697.629485 41.8639951,696.822511 C40.3355712,696.081683 39.1365491,695.221793 38.2405764,694.2693 C37.5817731,693.541701 37.2655474,692.628895 37.2655474,691.438278 C37.2655474,689.572979 37.9902312,688.144238 39.5450072,686.966851 C42.7863198,684.519472 48.4388529,684.254891 54.275851,686.543521 L56.9901209,687.615076 C59.0192354,688.97767 61.6412729,690.882657 62.827119,691.821921 C64.0261412,692.761185 66.0552556,691.438278 67.3728624,688.871838 L76.0954193,671.68727 C77.3866739,669.134059 77.0836244,666.329495 75.4102637,665.469605 C73.7369031,664.596486 70.218893,662.942852 67.5968555,661.778694 C67.5968555,661.778694 65.1988112,660.720368 59.3618131,659.238711 C47.1607744,656.11665 35.5790107,656.26217 26.4611718,659.662042 C21.6650831,661.447967 17.5146218,664.001178 14.1415484,667.268759 C10.7948272,670.54957 8.15961362,674.505063 6.31496413,679.069094 C4.4834907,683.606666 3.54798989,688.713089 3.54798989,694.229613 C3.54798989,699.799053 4.45713857,704.535061 6.23590772,708.26566 C8.01467688,711.969801 10.3863691,715.118321 13.3114561,717.578929 C16.1706629,720.013078 19.4515037,721.957752 23.0485703,723.373263 C26.5007,724.762316 30.0187101,726.019078 33.5367202,727.143549 C36.4486312,728.13573 38.925732,729.035307 40.9943746,729.881968 C42.825848,730.622796 44.3410958,731.41654 45.4610616,732.249972 C46.4229146,732.964342 47.094894,733.731628 47.4638239,734.498915 C47.8459299,735.319117 48.0435709,736.311298 48.0435709,737.488685 C48.0435709,739.367214 47.2398308,741.020848 45.6059983,742.56865 C42.3778617,745.584879 34.2086997,745.823002 26.6719889,742.502505 C22.9563378,740.84887 21.5069703,739.750857 21.5069703,739.750857 C19.2143345,738.017848 16.3155996,735.715989 15.0638732,734.617976 C13.8121467,733.533192 11.6776237,734.723809 10.3336648,737.263791 L0.912776327,755.043667 C-0.43118259,757.596878 -0.273069776,760.348526 1.26853016,761.155499 C2.82330616,761.975702 6.18320345,763.72194 8.72618454,765.018389 C8.72618454,765.018389 24.945924,773.326248 38.6885627,773.326248 C45.342477,773.326248 51.4034682,772.426671 56.7002474,770.614287 C62.0760831,768.775446 66.6745308,766.14286 70.3901819,762.822363 C74.1453612,759.448949 77.0309201,755.361165 78.9809781,750.638385 C80.9178601,745.981751 81.8928891,740.690121 81.8928891,734.98839 C81.8928891,726.389492 79.6134294,719.27225 75.1072142,713.835101" id="Fill-13-Copy" fill="#333333"></path>
        <path d="M174.143447,715.260085 C174.143447,719.050974 173.414112,722.616531 171.995224,725.797697 C170.563076,728.992118 168.57398,731.815403 166.080981,734.201277 C163.57472,736.547387 160.64412,738.442832 157.382003,739.755063 C150.910813,742.392779 143.007474,742.36627 136.549544,739.755063 C133.287428,738.442832 130.396609,736.560642 127.943392,734.214532 C125.490174,731.841912 123.514339,729.005373 122.06893,725.797697 C120.650042,722.616531 119.933967,719.050974 119.933967,715.260085 C119.933967,711.45594 120.650042,707.890384 122.08219,704.722473 C123.514339,701.514797 125.490174,698.665002 127.943392,696.305638 C130.396609,693.946273 133.287428,692.077338 136.549544,690.751852 C139.811661,689.466131 143.312469,688.790133 146.972404,688.790133 C150.605818,688.790133 154.119887,689.466131 157.382003,690.751852 C160.64412,692.077338 163.57472,693.959528 166.080981,696.318892 C168.57398,698.691512 170.563076,701.528052 171.995224,704.722473 C173.414112,707.890384 174.143447,711.45594 174.143447,715.260085 M203.529017,692.342435 C200.505592,685.264341 196.235667,679.047812 190.838588,673.798888 C185.45477,668.563219 178.917276,664.387939 171.425017,661.418851 C156.440498,655.507184 137.146273,655.546949 122.413706,661.418851 C114.97449,664.401194 108.476778,668.576474 103.146002,673.812143 C97.8152266,679.047812 93.5718231,685.277596 90.5351375,692.342435 C87.5249731,699.39402 86,707.108347 86,715.260085 C86,723.411823 87.5249731,731.112895 90.5351375,738.177735 C93.5718231,745.229319 97.8152266,751.459102 103.146002,756.694771 C108.503299,761.970205 115.001011,766.145485 122.426967,769.088064 C129.826402,772.030642 138.087778,773.528441 146.972404,773.528441 C155.750945,773.528441 163.972539,772.030642 171.425017,769.101319 C178.890755,766.15874 185.428248,761.970205 190.838588,756.708026 C196.235667,751.459102 200.505592,745.242574 203.529017,738.177735 C206.539181,731.112895 208.077415,723.411823 208.077415,715.260085 C208.077415,707.108347 206.539181,699.39402 203.529017,692.342435" id="Fill-16-Copy" fill="#333333"></path>
        <path d="M295.040936,660 C292.138202,660 289.768079,662.388876 289.768079,665.314577 L289.768079,714.192582 C289.768079,717.118283 288.409919,717.534323 286.758823,715.145448 L251.553187,664.34829 C249.888775,661.959415 246.173808,660 243.271074,660 L222.259541,660 C219.356807,660 217,662.388876 217,665.314577 L217,766.761265 C217,769.686966 219.356807,772.089263 222.259541,772.089263 L244.536027,772.089263 C247.425446,772.089263 249.795568,769.686966 249.795568,766.761265 L249.795568,717.86984 C249.795568,714.970979 251.153728,714.528098 252.81814,716.916973 L288.023776,767.714131 C289.674872,770.116427 293.403155,772.089263 296.305889,772.089263 L317.170954,772.089263 C320.060372,772.089263 322.430494,769.686966 322.430494,766.761265 L322.430494,665.314577 C322.430494,662.388876 320.060372,660 317.170954,660 L295.040936,660 Z" id="Fill-18-Copy" fill="#333333"></path>
        <path d="M598.472731,660 C595.567959,660 593.196173,662.388876 593.196173,665.314577 L593.196173,713.199454 C593.196173,716.125155 591.956981,716.460671 590.451296,713.964431 L560.417552,664.522759 C558.898543,662.026518 555.287564,660 552.396117,660 L531.263234,660 C528.371786,660 526,662.388876 526,665.314577 L526,766.761265 C526,769.686966 528.371786,772.089263 531.263234,772.089263 L553.542036,772.089263 C556.446808,772.089263 558.818595,769.686966 558.818595,766.761265 L558.818595,718.876388 C558.818595,715.964107 560.057787,715.615171 561.576796,718.097991 L591.61054,767.553083 C593.12955,770.035903 596.740528,772.089263 599.631975,772.089263 L620.618287,772.089263 C623.509735,772.089263 625.881521,769.686966 625.881521,766.761265 L625.881521,665.314577 C625.881521,662.388876 623.509735,660 620.618287,660 L598.472731,660 Z" id="Fill-20-Copy" fill="#333333"></path>
        <path d="M724.143447,715.260085 C724.143447,719.050974 723.427373,722.616531 721.995224,725.797697 C720.563076,728.992118 718.587241,731.815403 716.080981,734.201277 C713.57472,736.547387 710.65738,738.442832 707.382003,739.755063 C700.910813,742.392779 693.007474,742.36627 686.549544,739.755063 C683.287428,738.442832 680.396609,736.560642 677.943392,734.214532 C675.490174,731.841912 673.514339,729.005373 672.06893,725.797697 C670.650042,722.616531 669.933967,719.050974 669.933967,715.260085 C669.933967,711.45594 670.650042,707.890384 672.08219,704.722473 C673.514339,701.514797 675.490174,698.665002 677.943392,696.305638 C680.396609,693.946273 683.287428,692.077338 686.549544,690.751852 C689.811661,689.466131 693.325729,688.790133 696.972404,688.790133 C700.619079,688.790133 704.119887,689.466131 707.382003,690.751852 C710.65738,692.077338 713.57472,693.959528 716.080981,696.318892 C718.587241,698.691512 720.563076,701.528052 721.995224,704.722473 C723.427373,707.890384 724.143447,711.45594 724.143447,715.260085 M753.529017,692.342435 C750.505592,685.264341 746.235667,679.047812 740.838588,673.798888 C735.45477,668.563219 728.917276,664.387939 721.438278,661.418851 C706.453759,655.507184 687.159534,655.546949 672.413706,661.418851 C664.97449,664.401194 658.490039,668.576474 653.159263,673.812143 C647.815227,679.047812 643.571823,685.277596 640.548398,692.342435 C637.524973,699.39402 636,707.108347 636,715.260085 C636,723.411823 637.524973,731.112895 640.548398,738.177735 C643.571823,745.229319 647.815227,751.459102 653.159263,756.694771 C658.51656,761.970205 665.001011,766.145485 672.426967,769.088064 C679.826402,772.030642 688.087778,773.528441 696.972404,773.528441 C705.750945,773.528441 713.972539,772.030642 721.438278,769.101319 C728.904016,766.15874 735.428248,761.970205 740.838588,756.708026 C746.235667,751.459102 750.505592,745.242574 753.529017,738.177735 C756.539181,731.112895 758.077415,723.411823 758.077415,715.260085 C758.077415,707.108347 756.539181,699.39402 753.529017,692.342435" id="Fill-22-Copy" fill="#333333"></path>
        <path d="M770.690245,660 C767.763674,660 764.769979,662.308352 764.031624,665.140109 L759.171904,683.687446 C758.420125,686.505782 760.205602,688.814134 763.132173,688.814134 L779.120919,688.814134 C782.047491,688.814134 784.437076,691.20301 784.437076,694.128711 L784.437076,766.761265 C784.437076,769.686966 786.826662,772.089263 789.753234,772.089263 L812.199231,772.089263 C815.125803,772.089263 817.515389,769.686966 817.515389,766.761265 L817.515389,694.128711 C817.515389,691.20301 819.904975,688.814134 822.818121,688.814134 L838.028238,688.814134 C840.941385,688.814134 843.344396,686.425258 843.344396,683.499557 L843.344396,665.314577 C843.344396,662.388876 840.941385,660 838.028238,660 L770.690245,660 Z" id="Fill-24-Copy" fill="#333333"></path>
        <path d="M992.006703,713.933889 C987.505925,708.580054 980.419879,704.286383 970.949492,701.172147 C968.645522,700.403527 966.328157,699.701168 963.984002,699.038564 C961.813984,698.415717 959.871684,697.700105 958.210683,696.891729 C956.670238,696.149613 955.437882,695.288229 954.527011,694.33408 C953.857252,693.605216 953.535768,692.690823 953.535768,691.498137 C953.535768,689.629596 954.272502,688.198372 955.853133,687.018938 C959.148345,684.567305 964.894874,684.302264 970.828935,686.594872 L973.588341,687.668289 C975.664593,689.046505 978.330232,690.954802 979.535797,691.895699 C980.741363,692.823344 982.80422,691.498137 984.143737,688.927236 L993.011341,671.712799 C994.324068,669.15515 994.324068,666.491484 992.984551,665.789124 C991.645033,665.100017 988.376611,663.576029 985.710972,662.396595 C985.710972,662.396595 981.933533,660.726834 975.999472,659.242602 C963.595542,656.115114 951.821186,656.260887 942.551726,659.666669 C937.675884,661.455698 933.456404,664.013347 930.02724,667.286608 C926.638261,670.573121 923.945832,674.53549 922.070508,679.107453 C920.208579,683.652913 919.257521,688.768211 919.257521,694.294324 C919.257521,699.873445 920.181788,704.617685 922.003532,708.354768 C923.798485,712.065348 926.209616,715.21934 929.183344,717.684225 C932.090097,720.122605 935.425495,722.070659 939.082377,723.488631 C942.591912,724.880098 946.168423,726.139044 949.744934,727.26547 C952.705267,728.259375 955.223559,729.160516 957.326602,730.008648 C959.188531,730.750764 960.728975,731.545888 961.867565,732.380769 C962.845413,733.09638 963.528566,733.865 963.903631,734.63362 C964.292091,735.455248 964.493019,736.449154 964.493019,737.628588 C964.493019,739.510381 963.675913,741.16689 962.014912,742.717382 C960.233354,744.360638 959.067974,745.07625 955.263745,745.07625 C951.995323,745.07625 947.86961,743.287221 943.851058,741.524696 L939.872692,739.788675 C938.15811,738.675501 935.559446,736.886472 934.099373,735.826306 C932.639299,734.766141 930.335329,735.972079 928.955626,738.516476 L919.994256,755.214083 C918.614553,757.771732 918.681529,760.647431 920.128208,761.641336 C921.574886,762.621989 924.816518,764.609799 927.348206,766.067527 C927.348206,766.067527 940.301337,773.528441 954.982446,773.528441 C961.747008,773.528441 967.908788,772.627301 973.293647,770.811767 C978.758877,768.96973 983.433793,766.332568 987.211231,763.006299 C991.028855,759.627021 993.962398,755.532132 995.944884,750.801144 C997.913974,746.136416 998.905217,740.835588 998.905217,735.123947 C998.905217,726.510102 996.587852,719.380489 992.006703,713.933889" id="Fill-26-Copy" fill="#333333"></path>
        <path d="M905.615019,688.532262 C908.540344,688.532262 910.928913,686.153466 910.928913,683.269674 L910.928913,665.249298 C910.928913,662.352217 908.540344,660 905.615019,660 L856.300475,660 C853.375149,660 851,662.352217 851,665.249298 L851,765.71688 C851,768.600672 853.375149,770.979468 856.300475,770.979468 L905.615019,770.979468 C908.540344,770.979468 910.928913,768.600672 910.928913,765.71688 L910.928913,747.696504 C910.928913,744.799423 908.540344,742.447206 905.615019,742.447206 L889.364702,742.447206 C886.439377,742.447206 884.050809,740.06841 884.050809,737.171329 L884.050809,734.739376 C884.050809,731.842295 886.439377,729.463499 889.364702,729.463499 L905.615019,729.463499 C908.540344,729.463499 910.928913,727.097992 910.928913,724.214201 L910.928913,706.193825 C910.928913,703.296744 908.540344,700.944526 905.615019,700.944526 L889.364702,700.944526 C886.439377,700.944526 884.050809,698.565731 884.050809,695.668649 L884.050809,693.794849 C884.050809,690.897768 886.439377,688.532262 889.364702,688.532262 L905.615019,688.532262 Z" id="Fill-28-Copy" fill="#333333"></path>
        <path d="M455.077415,713.59083 C454.851984,711.841214 454.573511,709.495137 454.440904,708.368491 C454.308298,707.255098 451.841819,706.340526 448.964261,706.340526 L399.913169,706.340526 C397.035611,706.340526 394.661957,708.699857 394.661957,711.589375 L394.661957,725.891162 C394.661957,728.78068 397.035611,731.126756 399.913169,731.126756 L409.009965,731.126756 C411.900784,731.126756 413.69097,731.047228 413.69097,732.346186 C413.69097,733.631889 414.73856,737.449233 411.330577,739.556726 C406.861742,742.326951 390.007474,742.366715 383.549544,739.755546 C380.287428,738.443334 377.396609,736.561171 374.943392,734.215094 C372.490174,731.842509 370.5276,729.006009 369.08219,725.79838 C367.650042,722.617259 366.933967,719.051753 366.933967,715.260918 C366.933967,711.456828 367.650042,707.891322 369.08219,704.723457 C370.5276,701.515827 372.490174,698.666073 374.943392,696.306742 C377.396609,693.947411 380.287428,692.078503 383.549544,690.753036 C390.073777,688.168376 397.85777,688.168376 404.395264,690.753036 C407.65738,692.078503 409.142572,693.258168 409.142572,693.258168 C411.39688,695.074058 413.757273,697.128532 414.407044,697.844284 C415.043555,698.560036 417.364166,697.618954 419.565432,695.736791 L434.987551,682.561651 C437.188817,680.692742 439.3503,678.638269 439.814423,678.015299 C440.265284,677.405585 440.225502,676.424739 439.708338,675.881298 C439.204433,675.324602 438.51488,674.542576 438.196625,674.131682 L437.851849,673.800315 C432.45477,668.564721 425.930537,664.3895 418.438278,661.4072 C403.440498,655.508872 384.159534,655.548636 369.426967,661.420454 C361.97449,664.402755 355.490039,668.577975 350.159263,673.813569 C344.815227,679.049164 340.571823,685.278858 337.548398,692.343596 C334.538234,699.39508 333,707.109297 333,715.260918 C333,723.412539 334.538234,731.113502 337.548398,738.17824 C340.571823,745.229724 344.815227,751.459418 350.159263,756.695012 C355.51656,761.97037 362.001011,766.145591 369.426967,769.088127 C376.826402,772.030664 385.087778,773.528441 393.972404,773.528441 C402.750945,773.528441 410.9858,772.030664 418.438278,769.088127 C425.904016,766.158846 432.428248,761.97037 437.851849,756.708267 C443.235667,751.459418 447.505592,745.242979 450.529017,738.164985 C453.552442,731.113502 455.077415,723.412539 455.077415,715.260918 L455.077415,713.59083 Z" id="Fill-30-Copy" fill="#333333"></path>
    </g>
</svg>