<?xml version="1.0" encoding="UTF-8"?>
<svg width="202px" height="48px" viewBox="0 0 202 48" version="1.1" xmlns="http://www.w3.org/2000/svg" xmlns:xlink="http://www.w3.org/1999/xlink">
    <!-- Generator: Sketch 45.1 (43504) - http://www.bohemiancoding.com/sketch -->
    <title>songnotes-logo-horizontal</title>
    <desc>Created with Sketch.</desc>
    <defs>
        <polygon id="path-1" points="0 0.4229 0 21.7499 17.1468 21.7499 17.1468 0.4229"></polygon>
        <polygon id="path-3" points="0.0477 31 23.0387 31 23.0387 0.6164 0.0477 0.6164 0.0477 31"></polygon>
    </defs>
    <g id="Page-1" stroke="none" stroke-width="1" fill="none" fill-rule="evenodd">
        <g id="songnotes-logo-horizontal">
            <g id="Group-2" transform="translate(0.000000, 8.000000)">
                <g id="Group-3" transform="translate(0.000000, 5.633000)">
                    <mask id="mask-2" fill="white">
                        <use xlink:href="#path-1"></use>
                    </mask>
                    <g id="Clip-2"></g>
                    <path d="M14.4858,5.5509 C14.2828,5.9449 13.7778,6.1339 13.3658,5.9709 C13.3658,5.9709 11.5608,5.2609 10.3228,5.2609 C9.6768,5.2609 9.1548,5.3899 8.7558,5.6479 C8.3548,5.9059 8.1548,6.2549 8.1548,6.6929 C8.1548,6.9259 8.1868,7.1129 8.2518,7.2539 C8.3158,7.3959 8.4588,7.5319 8.6768,7.6599 C8.8968,7.7899 9.2188,7.9059 9.6448,8.0089 C10.0708,8.1129 10.5428,8.2179 10.5428,8.2179 C10.9748,8.3159 11.6738,8.5059 12.0968,8.6409 C12.0968,8.6409 14.7098,9.4739 15.6638,10.4669 C16.6188,11.4609 17.1468,11.8089 17.1468,14.2789 C17.1468,15.9269 16.8638,16.4859 16.3988,17.4139 C15.9348,18.3429 15.2898,19.1239 14.4648,19.7559 C13.6378,20.3889 12.6448,20.8789 11.4838,21.2269 C10.3228,21.5749 9.0458,21.7499 7.6518,21.7499 C4.9678,21.7499 0.4568,19.7869 0.4568,19.7869 C0.0498,19.6109 -0.1172,19.1429 0.0868,18.7489 L1.9018,15.2279 C2.1048,14.8339 2.5918,14.6809 2.9848,14.8869 C2.9848,14.8869 6.0898,16.5239 7.8448,16.5239 C8.4898,16.5239 9.0188,16.3829 9.4318,16.0979 C9.8448,15.8149 10.0508,15.4539 10.0508,15.0149 C10.0508,14.7569 10.0188,14.5439 9.9548,14.3759 C9.8898,14.2089 9.7548,14.0529 9.5488,13.9109 C9.3408,13.7699 9.0388,13.6399 8.6388,13.5249 C8.2388,13.4079 7.8598,13.3269 7.8598,13.3269 C7.4258,13.2329 6.7228,13.0539 6.2978,12.9279 C6.2978,12.9279 3.3868,12.0669 2.5228,11.2019 C1.6588,10.3379 1.2268,9.1449 1.2268,7.6219 C1.2268,6.5129 1.4328,5.5119 1.8458,4.6219 C2.2578,3.7319 2.8518,2.9769 3.6268,2.3579 C4.4008,1.7379 5.3358,1.2609 6.4328,0.9259 C7.5288,0.5909 8.7488,0.4229 10.0898,0.4229 C12.2828,0.4229 15.7058,1.4649 15.7058,1.4649 C16.1298,1.5939 16.3098,2.0219 16.1068,2.4159 L14.4858,5.5509 Z" id="Fill-1" fill="#333333" mask="url(#mask-2)"></path>
                </g>
                <path d="M26.4692,16.6224 C26.4692,17.2934 26.5912,17.9064 26.8362,18.4604 C27.0812,19.0164 27.4042,19.4994 27.8042,19.9124 C28.2042,20.3254 28.6812,20.6474 29.2372,20.8794 C29.7902,21.1124 30.3782,21.2284 30.9972,21.2284 C31.6162,21.2284 32.2032,21.1124 32.7582,20.8794 C33.3132,20.6474 33.7902,20.3254 34.1912,19.9124 C34.5902,19.4994 34.9122,19.0164 35.1582,18.4604 C35.4032,17.9064 35.5262,17.3064 35.5262,16.6614 C35.5262,16.0414 35.4032,15.4554 35.1582,14.8994 C34.9122,14.3454 34.5902,13.8614 34.1912,13.4484 C33.7902,13.0364 33.3132,12.7124 32.7582,12.4804 C32.2032,12.2484 31.6162,12.1324 30.9972,12.1324 C30.3782,12.1324 29.7902,12.2484 29.2372,12.4804 C28.6812,12.7124 28.2042,13.0364 27.8042,13.4484 C27.4042,13.8614 27.0812,14.3384 26.8362,14.8804 C26.5912,15.4224 26.4692,16.0024 26.4692,16.6224 M19.0762,16.5444 C19.0762,15.0744 19.3722,13.7004 19.9662,12.4224 C20.5602,11.1454 21.3852,10.0364 22.4442,9.0944 C23.5012,8.1524 24.7592,7.4104 26.2172,6.8684 C27.6752,6.3264 29.2682,6.0554 30.9972,6.0554 C32.7002,6.0554 34.2812,6.3204 35.7392,6.8494 C37.1962,7.3784 38.4612,8.1134 39.5322,9.0554 C40.6022,9.9974 41.4352,11.1204 42.0292,12.4224 C42.6212,13.7264 42.9182,15.1644 42.9182,16.7384 C42.9182,18.3124 42.6152,19.7514 42.0092,21.0544 C41.4032,22.3574 40.5712,23.4794 39.5122,24.4214 C38.4542,25.3634 37.1842,26.0924 35.6992,26.6084 C34.2162,27.1244 32.6102,27.3824 30.8812,27.3824 C29.1782,27.3824 27.6042,27.1244 26.1582,26.6084 C24.7132,26.0924 23.4692,25.3564 22.4242,24.4024 C21.3792,23.4474 20.5602,22.3064 19.9662,20.9764 C19.3722,19.6474 19.0762,18.1704 19.0762,16.5444" id="Fill-4" fill="#333333"></path>
                <g id="Group-8" transform="translate(69.000000, 5.633000)">
                    <mask id="mask-4" fill="white">
                        <use xlink:href="#path-3"></use>
                    </mask>
                    <g id="Clip-7"></g>
                    <path d="M7.3237,10.9894 C7.3237,11.6344 7.4397,12.2344 7.6727,12.7894 C7.9037,13.3444 8.2197,13.8274 8.6207,14.2404 C9.0197,14.6534 9.4977,14.9754 10.0527,15.2084 C10.6067,15.4404 11.2077,15.5564 11.8517,15.5564 C12.4707,15.5564 13.0577,15.4404 13.6137,15.2084 C14.1687,14.9754 14.6447,14.6534 15.0457,14.2404 C15.4457,13.8274 15.7677,13.3444 16.0127,12.7894 C16.2587,12.2344 16.3817,11.6474 16.3817,11.0284 C16.3817,10.3834 16.2587,9.7894 16.0127,9.2474 C15.7677,8.7054 15.4387,8.2284 15.0257,7.8154 C14.6127,7.4034 14.1297,7.0794 13.5747,6.8474 C13.0197,6.6154 12.4457,6.4994 11.8517,6.4994 C11.2327,6.4994 10.6527,6.6224 10.1107,6.8674 C9.5687,7.1124 9.0917,7.4344 8.6787,7.8344 C8.2647,8.2354 7.9367,8.7054 7.6917,9.2474 C7.4457,9.7894 7.3237,10.3694 7.3237,10.9894 L7.3237,10.9894 Z M22.2317,1.1574 C22.6757,1.1574 23.0387,1.5204 23.0387,1.9644 L23.0387,18.8534 C23.0387,19.2964 23.0267,20.0224 23.0127,20.4654 C23.0127,20.4654 22.9727,21.7614 22.8447,22.6394 C22.7157,23.5164 22.5347,24.2904 22.3027,24.9624 C21.9937,25.8134 21.5097,26.6074 20.8507,27.3424 C20.1937,28.0774 19.3997,28.7164 18.4707,29.2584 C17.5427,29.8004 16.4907,30.2254 15.3167,30.5354 C14.1417,30.8444 12.8717,31.0004 11.5047,31.0004 C9.9557,31.0004 8.5367,30.8064 7.2467,30.4194 C5.9557,30.0324 4.8277,29.4964 3.8597,28.8134 C2.8917,28.1294 2.0987,27.3294 1.4787,26.4134 C0.8597,25.4974 0.4697,24.1864 0.4697,24.1864 C0.3447,23.7614 0.6027,23.4134 1.0477,23.4134 L7.3307,23.4134 C7.7737,23.4134 8.3647,23.6954 8.6437,24.0404 C8.6437,24.0404 9.7357,25.3874 11.4657,25.3874 C12.9357,25.3874 14.0647,24.9744 14.8517,24.1494 C15.6387,23.3224 15.9127,21.5014 15.9127,21.5014 C15.9787,21.0634 16.0327,20.3414 16.0327,19.8984 L16.0327,19.6144 C16.0327,19.1704 15.7617,19.0484 15.4287,19.3424 C15.4287,19.3424 15.0197,19.7044 14.5427,20.0274 C14.0647,20.3494 13.5807,20.6144 13.0917,20.8204 C12.6007,21.0264 12.0847,21.1754 11.5427,21.2654 C11.0007,21.3554 10.4067,21.4014 9.7617,21.4014 C8.3437,21.4014 7.0397,21.1554 5.8527,20.6654 C4.6657,20.1764 3.6397,19.4914 2.7757,18.6144 C1.9117,17.7374 1.2407,16.6854 0.7627,15.4594 C0.2857,14.2344 0.0477,12.8734 0.0477,11.3764 C0.0477,9.8544 0.3047,8.4414 0.8217,7.1374 C1.3377,5.8354 2.0407,4.6994 2.9297,3.7324 C3.8207,2.7644 4.8787,2.0034 6.1047,1.4484 C7.3297,0.8934 8.6657,0.6164 10.1107,0.6164 C12.4587,0.6164 15.3837,2.7704 15.3837,2.7704 C15.7407,3.0324 16.0327,2.8854 16.0327,2.4414 L16.0327,1.9644 C16.0327,1.5204 16.3947,1.1574 16.8387,1.1574 L22.2317,1.1574 Z" id="Fill-6" fill="#333333" mask="url(#mask-4)"></path>
                </g>
                <path d="M126.9526,16.6224 C126.9526,17.2934 127.0746,17.9064 127.3196,18.4604 C127.5646,19.0164 127.8876,19.4994 128.2876,19.9124 C128.6876,20.3254 129.1646,20.6474 129.7206,20.8794 C130.2736,21.1124 130.8616,21.2284 131.4806,21.2284 C132.0996,21.2284 132.6866,21.1124 133.2416,20.8794 C133.7966,20.6474 134.2736,20.3254 134.6746,19.9124 C135.0736,19.4994 135.3956,19.0164 135.6416,18.4604 C135.8866,17.9064 136.0096,17.3064 136.0096,16.6614 C136.0096,16.0414 135.8866,15.4554 135.6416,14.8994 C135.3956,14.3454 135.0736,13.8614 134.6746,13.4484 C134.2736,13.0364 133.7966,12.7124 133.2416,12.4804 C132.6866,12.2484 132.0996,12.1324 131.4806,12.1324 C130.8616,12.1324 130.2736,12.2484 129.7206,12.4804 C129.1646,12.7124 128.6876,13.0364 128.2876,13.4484 C127.8876,13.8614 127.5646,14.3384 127.3196,14.8804 C127.0746,15.4224 126.9526,16.0024 126.9526,16.6224 M119.5596,16.5444 C119.5596,15.0744 119.8556,13.7004 120.4496,12.4224 C121.0436,11.1454 121.8686,10.0364 122.9276,9.0944 C123.9846,8.1524 125.2426,7.4104 126.7006,6.8684 C128.1586,6.3264 129.7516,6.0554 131.4806,6.0554 C133.1836,6.0554 134.7646,6.3204 136.2226,6.8494 C137.6796,7.3784 138.9436,8.1134 140.0156,9.0554 C141.0856,9.9974 141.9186,11.1204 142.5126,12.4224 C143.1046,13.7264 143.4016,15.1644 143.4016,16.7384 C143.4016,18.3124 143.0986,19.7514 142.4926,21.0544 C141.8866,22.3574 141.0546,23.4794 139.9956,24.4214 C138.9376,25.3634 137.6676,26.0924 136.1826,26.6084 C134.6996,27.1244 133.0936,27.3824 131.3646,27.3824 C129.6616,27.3824 128.0876,27.1244 126.6416,26.6084 C125.1966,26.0924 123.9526,25.3564 122.9076,24.4024 C121.8626,23.4474 121.0436,22.3064 120.4496,20.9764 C119.8556,19.6474 119.5596,18.1704 119.5596,16.5444" id="Fill-9" fill="#333333"></path>
                <path d="M156.1674,12.6356 C155.7244,12.6356 155.3614,12.9986 155.3614,13.4416 L155.3614,25.8406 C155.3614,26.2836 154.9984,26.6466 154.5554,26.6466 L149.1614,26.6466 C148.7184,26.6466 148.3554,26.2836 148.3554,25.8406 L148.3554,13.4416 C148.3554,12.9986 147.9924,12.6356 147.5494,12.6356 L144.4204,12.6356 C143.9774,12.6356 143.6634,12.2766 143.7244,11.8366 L144.3104,7.5896 C144.3714,7.1506 144.7834,6.7906 145.2274,6.7906 L147.5494,6.7906 C147.9924,6.7906 148.3554,6.4276 148.3554,5.9846 L148.3554,1.6366 C148.3554,1.1936 148.7184,0.8306 149.1614,0.8306 L154.5554,0.8306 C154.9984,0.8306 155.3614,1.1936 155.3614,1.6366 L155.3614,5.9846 C155.3614,6.4276 155.7244,6.7906 156.1674,6.7906 L158.1394,6.7906 C158.5824,6.7906 158.9944,7.1506 159.0554,7.5896 L159.6414,11.8366 C159.7014,12.2766 159.3884,12.6356 158.9444,12.6356 L156.1674,12.6356 Z" id="Fill-11" fill="#333333"></path>
                <path d="M175.268,13.8353 C175.712,13.8353 175.94,13.4993 175.774,13.0873 C175.774,13.0873 175.365,12.0683 174.643,11.4743 C173.92,10.8813 173.042,10.5843 172.011,10.5843 C170.927,10.5843 170.042,10.8683 169.36,11.4363 C168.675,12.0033 168.319,13.0703 168.319,13.0703 C168.178,13.4913 168.425,13.8353 168.87,13.8353 L175.268,13.8353 Z M168.675,17.8993 C168.232,17.8993 168.11,18.3263 168.11,18.6693 C168.11,19.0113 167.904,22.4283 172.126,22.4283 C174.014,22.4283 174.992,21.1303 174.992,21.1303 C175.311,20.8223 175.934,20.5703 176.378,20.5703 L181.539,20.5703 C181.982,20.5703 182.136,20.8673 181.881,21.2303 C181.881,21.2303 179.179,27.3823 172.088,27.3823 C170.411,27.3823 168.875,27.1303 167.482,26.6273 C166.088,26.1243 164.895,25.4083 163.902,24.4793 C162.909,23.5503 162.141,22.4413 161.599,21.1503 C161.057,19.8603 160.787,18.4163 160.787,16.8153 C160.787,15.1653 161.043,13.6743 161.56,12.3453 C162.076,11.0163 162.812,9.8873 163.766,8.9583 C164.721,8.0293 165.876,7.3133 167.23,6.8103 C168.585,6.3073 170.114,6.0553 171.817,6.0553 C173.495,6.0553 175.004,6.3073 176.346,6.8103 C177.687,7.3133 178.823,8.0433 179.752,8.9973 C180.681,9.9523 181.39,11.1203 181.88,12.5003 C182.371,13.8803 182.556,16.3603 182.556,16.3603 C182.589,16.8023 182.616,17.3293 182.616,17.5323 C182.616,17.7343 182.253,17.8993 181.81,17.8993 L168.675,17.8993 Z" id="Fill-13" fill="#333333"></path>
                <path d="M198.519,11.1839 C198.316,11.5779 197.811,11.7669 197.399,11.6039 C197.399,11.6039 195.594,10.8939 194.356,10.8939 C193.711,10.8939 193.188,11.0229 192.789,11.2809 C192.388,11.5389 192.188,11.8879 192.188,12.3259 C192.188,12.5589 192.22,12.7459 192.286,12.8869 C192.349,13.0289 192.492,13.1649 192.71,13.2929 C192.93,13.4229 193.253,13.5389 193.678,13.6419 C194.104,13.7459 194.576,13.8509 194.576,13.8509 C195.008,13.9489 195.708,14.1389 196.13,14.2739 C196.13,14.2739 198.743,15.1069 199.698,16.0999 C200.652,17.0939 201.129,18.3639 201.129,19.9119 C201.129,21.0729 200.897,22.1189 200.433,23.0469 C199.968,23.9759 199.324,24.7569 198.498,25.3889 C197.671,26.0219 196.678,26.5119 195.517,26.8599 C194.356,27.2079 193.079,27.3829 191.685,27.3829 C189.001,27.3829 184.49,25.4199 184.49,25.4199 C184.083,25.2439 183.917,24.7759 184.121,24.3819 L185.936,20.8609 C186.139,20.4669 186.626,20.3139 187.019,20.5199 C187.019,20.5199 190.123,22.1569 191.879,22.1569 C192.524,22.1569 193.052,22.0159 193.465,21.7309 C193.878,21.4479 194.085,21.0869 194.085,20.6479 C194.085,20.3899 194.052,20.1769 193.989,20.0089 C193.923,19.8419 193.789,19.6859 193.582,19.5439 C193.375,19.4029 193.072,19.2729 192.672,19.1579 C192.272,19.0409 191.893,18.9599 191.893,18.9599 C191.459,18.8659 190.757,18.6869 190.331,18.5609 C190.331,18.5609 187.421,17.6999 186.557,16.8349 C185.692,15.9709 185.26,14.7779 185.26,13.2549 C185.26,12.1459 185.466,11.1449 185.879,10.2549 C186.291,9.3649 186.886,8.6099 187.66,7.9909 C188.434,7.3709 189.37,6.8939 190.466,6.5589 C191.563,6.2239 192.782,6.0559 194.123,6.0559 C196.317,6.0559 199.739,7.0979 199.739,7.0979 C200.164,7.2269 200.343,7.6549 200.14,8.0489 L198.519,11.1839 Z" id="Fill-15" fill="#333333"></path>
                <path d="M66.9868,26.2987 C66.5088,25.0727 66.3378,23.0187 66.3378,23.0187 C66.3008,22.5767 66.2708,21.8527 66.2708,21.4087 L66.2708,14.8357 C66.2708,14.3917 66.2528,13.6667 66.2288,13.2237 C66.2288,13.2237 66.1678,12.0297 65.9618,11.2037 C65.7548,10.3777 65.3678,9.6297 64.7998,8.9587 C64.1028,8.1327 63.2578,7.4947 62.2648,7.0427 C61.2708,6.5907 60.0778,6.3647 58.6848,6.3647 C57.3688,6.3647 56.2198,6.5657 55.2398,6.9657 C55.0838,7.0287 54.9278,7.1057 54.7728,7.1887 C54.0018,7.5997 53.2388,8.2487 52.4838,9.1347 L52.4348,9.1927 C52.3818,9.2557 52.3368,9.3117 52.3368,9.3117 C52.3368,9.3117 52.2648,8.9727 52.1778,8.5377 C52.1778,8.5377 52.0348,7.8247 51.7678,7.1397 L51.7208,7.0187 C51.6618,6.8937 51.2508,6.7907 50.8058,6.7907 L46.1368,6.7907 L44.8958,6.7907 C44.6568,6.7907 44.5088,6.8937 44.5688,7.0187 L44.6158,7.1397 C45.0928,8.3647 45.2638,10.4197 45.2638,10.4197 C45.3008,10.8607 45.3318,11.5857 45.3318,12.0287 L45.3318,25.8407 C45.3318,26.2837 45.6938,26.6467 46.1368,26.6467 L51.5308,26.6467 C51.9738,26.6467 52.3368,26.2837 52.3368,25.8407 L52.3368,16.8477 C52.3368,16.4047 52.3848,15.6817 52.4448,15.2427 C52.4448,15.2427 52.6528,13.7137 53.2848,13.0037 C53.6748,12.5657 54.1718,12.2637 54.7728,12.0957 C55.1458,11.9917 55.5588,11.9387 56.0138,11.9387 C56.4528,11.9387 56.8648,12.0037 57.2528,12.1317 C57.6398,12.2617 57.9878,12.4807 58.2978,12.7907 C58.6588,13.1527 58.9108,13.6357 59.0518,14.2417 C59.1938,14.8487 59.2328,15.8167 59.2328,15.8167 C59.2508,16.2597 59.2648,16.9857 59.2648,17.4287 L59.2648,25.8407 C59.2648,26.2837 59.6278,26.6467 60.0718,26.6467 L65.4648,26.6467 L66.7068,26.6467 C66.9458,26.6467 67.0928,26.5447 67.0338,26.4187 L66.9868,26.2987 Z" id="Fill-17" fill="#333333"></path>
                <path d="M117.4985,26.2987 C117.0205,25.0727 116.8505,23.0187 116.8505,23.0187 C116.8125,22.5767 116.7825,21.8527 116.7825,21.4087 L116.7825,14.8357 C116.7825,14.3917 116.7645,13.6667 116.7415,13.2237 C116.7415,13.2237 116.6805,12.0297 116.4735,11.2037 C116.2675,10.3777 115.8795,9.6297 115.3115,8.9587 C114.6155,8.1327 113.7695,7.4947 112.7765,7.0427 C111.7835,6.5907 110.5905,6.3647 109.1965,6.3647 C107.8805,6.3647 106.7325,6.5657 105.7525,6.9657 C105.5965,7.0287 105.4405,7.1057 105.2855,7.1887 C104.5145,7.5997 103.7505,8.2487 102.9955,9.1347 L102.9465,9.1927 C102.8935,9.2557 102.8495,9.3117 102.8495,9.3117 C102.8495,9.3117 102.7775,8.9727 102.6905,8.5377 C102.6905,8.5377 102.5475,7.8247 102.2795,7.1397 L102.2335,7.0187 C102.1745,6.8937 101.7625,6.7907 101.3185,6.7907 L96.6495,6.7907 L95.4075,6.7907 C95.1685,6.7907 95.0205,6.8937 95.0805,7.0187 L95.1275,7.1397 C95.6045,8.3647 95.7765,10.4197 95.7765,10.4197 C95.8125,10.8607 95.8435,11.5857 95.8435,12.0287 L95.8435,25.8407 C95.8435,26.2837 96.2065,26.6467 96.6495,26.6467 L102.0425,26.6467 C102.4865,26.6467 102.8495,26.2837 102.8495,25.8407 L102.8495,16.8477 C102.8495,16.4047 102.8975,15.6817 102.9575,15.2427 C102.9575,15.2427 103.1645,13.7137 103.7975,13.0037 C104.1865,12.5657 104.6845,12.2637 105.2855,12.0957 C105.6585,11.9917 106.0715,11.9387 106.5255,11.9387 C106.9645,11.9387 107.3775,12.0037 107.7645,12.1317 C108.1515,12.2617 108.5005,12.4807 108.8105,12.7907 C109.1715,13.1527 109.4225,13.6357 109.5645,14.2417 C109.7065,14.8487 109.7445,15.8167 109.7445,15.8167 C109.7635,16.2597 109.7765,16.9857 109.7765,17.4287 L109.7765,25.8407 C109.7765,26.2837 110.1405,26.6467 110.5835,26.6467 L115.9775,26.6467 L117.2185,26.6467 C117.4575,26.6467 117.6045,26.5447 117.5455,26.4187 L117.4985,26.2987 Z" id="Fill-19" fill="#333333"></path>
            </g>
        </g>
    </g>
</svg>