<svg width="32" height="32" viewBox="0 0 32 32" fill="none" xmlns="http://www.w3.org/2000/svg">
<g opacity="0.4">
<path fill-rule="evenodd" clip-rule="evenodd" d="M16 0C7.16344 0 0 7.16344 0 16C0 24.8366 7.16344 32 16 32C24.8366 32 32 24.8366 32 16C32 7.16344 24.8366 0 16 0ZM12.4823 7.51819C13.3925 7.47677 13.6834 7.46663 16.0009 7.46663H15.9983C18.3165 7.46663 18.6063 7.47677 19.5165 7.51819C20.425 7.55979 21.0454 7.70361 21.5894 7.91464C22.1512 8.13242 22.6259 8.42398 23.1006 8.89865C23.5752 9.37296 23.8668 9.84906 24.0855 10.4103C24.2952 10.9529 24.4392 11.573 24.4819 12.4814C24.5228 13.3917 24.5335 13.6825 24.5335 16.0001C24.5335 18.3176 24.5228 18.6077 24.4819 19.518C24.4392 20.4261 24.2952 21.0463 24.0855 21.5891C23.8668 22.1502 23.5752 22.6263 23.1006 23.1006C22.6264 23.5752 22.151 23.8675 21.59 24.0855C21.047 24.2965 20.4262 24.4403 19.5178 24.4819C18.6075 24.5233 18.3176 24.5335 15.9999 24.5335C13.6825 24.5335 13.3918 24.5233 12.4816 24.4819C11.5733 24.4403 10.9531 24.2965 10.4101 24.0855C9.84922 23.8675 9.37313 23.5752 8.89899 23.1006C8.4245 22.6263 8.13294 22.1502 7.9148 21.5889C7.70395 21.0463 7.56013 20.4262 7.51835 19.5178C7.47711 18.6075 7.4668 18.3176 7.4668 16.0001C7.4668 13.6825 7.47746 13.3915 7.51818 12.4813C7.55906 11.5732 7.70307 10.9529 7.91462 10.4101C8.13329 9.84906 8.42485 9.37296 8.89952 8.89865C9.37384 8.42416 9.84993 8.1326 10.4112 7.91464C10.9538 7.70361 11.5739 7.55979 12.4823 7.51819Z" fill="#414551"/>
<path fill-rule="evenodd" clip-rule="evenodd" d="M15.235 9.00433C15.3836 9.0041 15.5435 9.00417 15.7161 9.00425L16.0005 9.00433C18.2789 9.00433 18.549 9.01251 19.4487 9.0534C20.2807 9.09144 20.7323 9.23047 21.0331 9.34727C21.4313 9.50194 21.7152 9.68683 22.0137 9.9855C22.3124 10.2842 22.4973 10.5686 22.6523 10.9668C22.7691 11.2673 22.9083 11.7188 22.9462 12.5509C22.9871 13.4504 22.996 13.7206 22.996 15.998C22.996 18.2754 22.9871 18.5456 22.9462 19.4451C22.9081 20.2772 22.7691 20.7287 22.6523 21.0292C22.4976 21.4274 22.3124 21.711 22.0137 22.0094C21.7151 22.3081 21.4315 22.493 21.0331 22.6477C20.7326 22.765 20.2807 22.9037 19.4487 22.9417C18.5492 22.9826 18.2789 22.9915 16.0005 22.9915C13.7219 22.9915 13.4519 22.9826 12.5523 22.9417C11.7203 22.9033 11.2687 22.7643 10.9677 22.6475C10.5695 22.4928 10.2851 22.3079 9.9864 22.0093C9.68773 21.7106 9.50284 21.4269 9.34782 21.0285C9.23102 20.728 9.09182 20.2764 9.05395 19.4444C9.01306 18.5449 9.00488 18.2746 9.00488 15.9959C9.00488 13.7171 9.01306 13.4483 9.05395 12.5487C9.09199 11.7167 9.23102 11.2652 9.34782 10.9644C9.50249 10.5661 9.68773 10.2817 9.9864 9.98301C10.2851 9.68434 10.5695 9.49945 10.9677 9.34442C11.2686 9.22709 11.7203 9.08842 12.5523 9.0502C13.3395 9.01464 13.6446 9.00398 15.235 9.0022V9.00433ZM20.5559 10.4213C19.9906 10.4213 19.5319 10.8794 19.5319 11.4449C19.5319 12.0102 19.9906 12.4689 20.5559 12.4689C21.1213 12.4689 21.5799 12.0102 21.5799 11.4449C21.5799 10.8796 21.1213 10.4209 20.5559 10.4209V10.4213ZM11.6185 16.0001C11.6185 13.5801 13.5805 11.6179 16.0006 11.6178C18.4207 11.6178 20.3823 13.58 20.3823 16.0001C20.3823 18.4202 18.4209 20.3815 16.0008 20.3815C13.5806 20.3815 11.6185 18.4202 11.6185 16.0001Z" fill="#414551"/>
<path d="M16.0007 13.1555C17.5716 13.1555 18.8452 14.429 18.8452 16C18.8452 17.5709 17.5716 18.8445 16.0007 18.8445C14.4297 18.8445 13.1562 17.5709 13.1562 16C13.1562 14.429 14.4297 13.1555 16.0007 13.1555V13.1555Z" fill="#414551"/>
</g>
</svg>
