<svg width="32" height="32" viewBox="0 0 32 32" fill="none" xmlns="http://www.w3.org/2000/svg">
<g opacity="0.4">
<path fill-rule="evenodd" clip-rule="evenodd" d="M16 32C7.16344 32 0 24.8366 0 16C0 7.16344 7.16344 0 16 0C24.8366 0 32 7.16344 32 16C32 24.8366 24.8366 32 16 32ZM8.5332 22.9334H11.1999V9.06673H8.5332V22.9334ZM12.8001 14.4081C12.8001 11.4628 15.1964 9.06673 18.1418 9.06673C21.078 9.06673 23.4668 11.4628 23.4668 14.4081C23.4668 17.3445 21.078 19.7334 18.1418 19.7334C15.1964 19.7334 12.8001 17.3445 12.8001 14.4081Z" fill="#414551"/>
</g>
</svg>
