<svg width="24" height="24" viewBox="0 0 24 24" fill="none" xmlns="http://www.w3.org/2000/svg">
<g opacity="0.5">
<path fill-rule="evenodd" clip-rule="evenodd" d="M15.5 14.2C16.4 13 16.9 11.5 16.9 10C16.9 8.1 16.2 6.4 14.9 5.1C13.6 3.8 11.8 3.1 10 3.1C8.1 3 6.4 3.7 5 5C3.7 6.4 3 8.1 3 10C3 11.9 3.7 13.6 5 14.9C6.3 16.2 8.1 16.9 9.9 16.9C11.4 16.9 12.8 16.4 14 15.5L19.9 21.5L21.3 20.1L15.5 14.2ZM13.5 13.4V13.4C12.5 14.4 11.2 14.9 9.9 14.9C8.6 14.9 7.3 14.4 6.4 13.4C5.5 12.5 5 11.3 5 10C5 8.7 5.5 7.4 6.5 6.5C7.5 5.6 8.6 5 10 5C11.3 5 12.6 5.5 13.5 6.5C14.4 7.4 15 8.7 15 10C14.9 11.3 14.4 12.5 13.5 13.4Z" fill="white"/>
</g>
</svg>
