<svg width="37" height="37" viewBox="0 0 37 37" fill="none" xmlns="http://www.w3.org/2000/svg">
<path fill-rule="evenodd" clip-rule="evenodd" d="M23.8958 21.8917C25.2833 20.0417 26.0542 17.7292 26.0542 15.4167C26.0542 12.4875 24.975 9.86668 22.9708 7.86251C20.9667 5.85834 18.1917 4.77918 15.4167 4.77918C12.4875 4.62501 9.86667 5.70418 7.70833 7.70834C5.70417 9.86668 4.625 12.4875 4.625 15.4167C4.625 18.3458 5.70417 20.9667 7.70833 22.9708C9.7125 24.975 12.4875 26.0542 15.2625 26.0542C17.575 26.0542 19.7333 25.2833 21.5833 23.8958L30.6792 33.1458L32.8375 30.9875L23.8958 21.8917ZM20.8125 20.6583V20.6583C19.2708 22.2 17.2667 22.9708 15.2625 22.9708C13.2583 22.9708 11.2542 22.2 9.86667 20.6583C8.47917 19.2708 7.70833 17.4208 7.70833 15.4167C7.70833 13.4125 8.47917 11.4083 10.0208 10.0208C11.5625 8.63334 13.2583 7.70834 15.4167 7.70834C17.4208 7.70834 19.425 8.47918 20.8125 10.0208C22.2 11.4083 23.125 13.4125 23.125 15.4167C22.9708 17.4208 22.2 19.2708 20.8125 20.6583Z" fill="#B7BCCB"/>
</svg>
